<svg width="18" height="15" viewBox="0 0 18 15" fill="none" xmlns="http://www.w3.org/2000/svg">
<path d="M3.89738 6.35695C4.10827 6.66885 4.47655 7.04072 4.81353 7.28825M3.89738 6.35695L4.07494 6.23689L3.89738 6.35696C3.89738 6.35695 3.89738 6.35695 3.89738 6.35695ZM3.89738 6.35695C3.19475 5.31791 3.01439 4.11983 3.38632 2.94031M4.81353 7.28825L3.38632 2.94031M4.81353 7.28825L4.7611 7.3055L4.7611 7.3055C4.28099 7.46343 3.51226 7.83829 3.10072 8.11548L3.22046 8.29326L3.10072 8.11548C1.75842 9.01959 0.831488 10.2651 0.432454 11.716L0.432452 11.7161C0.264782 12.3258 0.202723 12.9156 0.215852 13.7251L0.215852 13.7251L0.226301 14.3678L0.227828 14.4617L0.297864 14.5242L0.407249 14.6219C0.627936 14.8189 0.969562 14.8438 1.19116 14.6222C1.2274 14.586 1.26051 14.5438 1.28648 14.5037C1.3085 14.4697 1.34067 14.4142 1.35278 14.3536L4.81353 7.28825ZM3.38632 2.94031C3.80518 1.61192 4.95417 0.572269 6.31968 0.285375C6.5239 0.242467 6.8036 0.219938 7.07459 0.215828C7.34553 0.211719 7.62541 0.225754 7.83001 0.262501C8.64398 0.40869 9.42579 0.837518 10.0078 1.45405C11.0152 2.52124 11.3389 4.08455 10.8369 5.46037L10.6355 5.38689L10.8369 5.46038C10.582 6.15878 10.0723 6.83442 9.46594 7.28683C9.57705 7.32419 9.73127 7.38129 9.86367 7.43397L9.86369 7.43398C11.4781 8.07642 12.7491 9.23727 13.4636 10.7308C13.8056 11.4457 13.9718 12.0718 14.0346 12.8783C14.0561 13.1555 14.0666 13.4735 14.0664 13.7422C14.0662 13.8766 14.0634 14.0007 14.0576 14.1024C14.0523 14.1969 14.0436 14.292 14.0259 14.356L13.8194 14.2986L14.0259 14.356C13.9436 14.6523 13.6814 14.7873 13.4395 14.7729C13.1988 14.7586 12.9546 14.5959 12.895 14.2981L12.895 14.298C12.8885 14.2656 12.8852 14.217 12.8829 14.1746C12.8802 14.1258 12.8778 14.0639 12.8758 13.9937C12.8718 13.8529 12.8694 13.6746 12.8693 13.4922C12.869 12.6284 12.7815 12.1334 12.5233 11.4892C11.9786 10.1305 10.7274 8.96977 9.23292 8.45144C8.48351 8.19153 7.95982 8.10258 7.15477 8.09877C6.107 8.09383 5.29784 8.27808 4.37916 8.72962L4.37915 8.72962C3.78784 9.02023 3.39641 9.30475 2.88618 9.81782C2.4178 10.2888 2.15219 10.6454 1.92501 11.0983C1.53592 11.8739 1.41497 12.4044 1.38852 13.5098L1.38852 13.5098C1.38364 13.7133 1.37762 13.9065 1.37184 14.054C1.36895 14.1277 1.36609 14.1907 1.36342 14.2382L3.38632 2.94031ZM7.86182 1.24426L7.8047 1.45086C7.72204 1.428 7.49987 1.40532 7.24906 1.39534C6.99923 1.38539 6.77156 1.39002 6.68031 1.4066L6.68031 1.4066C5.43747 1.6323 4.53066 2.60233 4.38882 3.85803C4.23872 5.18666 5.12964 6.47062 6.45693 6.82116C6.45693 6.82116 6.45693 6.82116 6.45694 6.82116L7.86182 1.24426ZM7.86182 1.24426L7.8047 1.45086C8.86479 1.74395 9.63037 2.55875 9.84436 3.61489L10.0544 3.57233M7.86182 1.24426L10.0544 3.57233M10.0544 3.57233L9.84437 3.6149C9.87422 3.76221 9.88731 3.9965 9.88086 4.2391M10.0544 3.57233L9.88086 4.2391M12.1903 1.95369L12.0955 1.76144C12.2115 1.70428 12.3551 1.68854 12.4918 1.69008C12.6339 1.69169 12.7934 1.71248 12.9569 1.74742C13.2833 1.81717 13.6468 1.94787 13.9508 2.12095L13.9508 2.12096C14.2778 2.30712 14.7267 2.71622 14.9485 3.02898L14.9485 3.02899C15.7396 4.14461 15.7395 5.61589 14.9485 6.7319C14.8655 6.84889 14.6883 7.03962 14.5331 7.19399C14.4962 7.23065 14.4595 7.26634 14.4243 7.29965C14.7276 7.42113 15.1622 7.63799 15.3937 7.78718C16.2456 8.3362 16.8821 9.05307 17.3101 9.94824C17.6528 10.6649 17.7856 11.3112 17.7859 12.2246C17.786 12.4199 17.7829 12.5666 17.7745 12.6772C17.7664 12.7838 17.7525 12.8768 17.7206 12.9532C17.7205 12.9532 17.7205 12.9532 17.7205 12.9533L17.5228 12.8706L12.1903 1.95369ZM12.1903 1.95369L12.0955 1.76144C11.8474 1.88383 11.7245 2.16852 11.8037 2.43309L12.1903 1.95369ZM12.0237 7.34922L11.826 7.2666C11.8783 7.14136 11.9614 7.04591 12.1033 6.9841C12.2233 6.93175 12.3817 6.90587 12.5787 6.88393C13.5562 6.77506 14.3113 5.97504 14.3667 4.98568C14.387 4.62418 14.3275 4.3448 14.1435 3.97202C13.9443 3.56852 13.6596 3.28551 13.2583 3.09083C13.085 3.00679 12.9743 2.96058 12.865 2.93001C12.756 2.89952 12.6398 2.8822 12.4529 2.86539C12.4529 2.86539 12.4529 2.86539 12.4529 2.86538L12.0237 7.34922ZM12.0237 7.34922L11.826 7.26661C11.8017 7.32464 11.7794 7.38853 11.7756 7.46278C11.7717 7.53695 11.7873 7.60285 11.8053 7.66318M12.0237 7.34922L12.577 8.09042M12.577 8.09042L12.577 8.09042C12.3755 8.07643 12.2064 8.05477 12.0783 7.99417C12.0081 7.96095 11.9475 7.91525 11.8992 7.85318C11.8523 7.79293 11.8244 7.72679 11.8053 7.66318M12.577 8.09042C14.1033 8.19628 15.3318 8.90836 16.0626 10.0905L16.2449 9.97781L12.577 8.09042ZM11.8053 7.66318L12.0107 7.60169L11.8054 7.66322C11.8054 7.66321 11.8053 7.6632 11.8053 7.66318ZM9.88086 4.2391C9.8744 4.48257 9.84894 4.70832 9.81261 4.84033L9.88086 4.2391Z" fill="#3B71FE" stroke="#3B71FE" stroke-width="0.425"/>
</svg>
