<svg width="32" height="32" viewBox="0 0 32 32" fill="none" xmlns="http://www.w3.org/2000/svg">
<path fill-rule="evenodd" clip-rule="evenodd" d="M26.666 24.0007V14.6673C26.666 13.1946 25.4721 12.0007 23.9994 12.0007H7.99935C6.52659 12.0007 5.33268 13.1946 5.33268 14.6673V24.0007C5.33268 25.4734 6.52659 26.6673 7.99935 26.6673H23.9993C25.4721 26.6673 26.666 25.4734 26.666 24.0007ZM7.99935 9.33398C5.05383 9.33398 2.66602 11.7218 2.66602 14.6673V24.0007C2.66602 26.9462 5.05383 29.334 7.99935 29.334H23.9993C26.9449 29.334 29.3327 26.9462 29.3327 24.0007V14.6673C29.3327 11.7218 26.9449 9.33398 23.9994 9.33398H7.99935Z" fill="white"/>
<path fill-rule="evenodd" clip-rule="evenodd" d="M12 5.33268C11.2636 5.33268 10.6667 5.92964 10.6667 6.66602V10.666C10.6667 11.4024 10.0697 11.9993 9.33333 11.9993C8.59695 11.9993 8 11.4024 8 10.666V6.66602C8 4.45688 9.79086 2.66602 12 2.66602H20C22.2091 2.66602 24 4.45688 24 6.66602V10.666C24 11.4024 23.403 11.9993 22.6667 11.9993C21.9303 11.9993 21.3333 11.4024 21.3333 10.666V6.66602C21.3333 5.92964 20.7364 5.33268 20 5.33268H12Z" fill="white"/>
</svg>
