<svg width="25" height="20" viewBox="0 0 25 20" fill="none" xmlns="http://www.w3.org/2000/svg">
<path fill-rule="evenodd" clip-rule="evenodd" d="M12.3986 4.61779L12.0407 4.9041L12.0218 7.21192L12.003 9.51975L10.4113 9.58238C9.53591 9.61686 8.73327 9.68688 8.62769 9.73783C8.19667 9.94612 8.16207 10.2811 8.13273 14.5303L8.10386 18.7057L7.54757 18.7416C6.98054 18.7782 6.79181 18.9488 6.92734 19.3022C6.98758 19.4591 8.10636 19.4811 15.9982 19.4811H25.0004L24.9626 19.1531C24.9299 18.8682 24.866 18.8201 24.4775 18.788L24.0302 18.7509V14.4741V10.1971L23.6631 9.88826C23.3082 9.58954 23.2434 9.5794 21.6947 9.5794H20.0933V7.26931V4.95934L19.7789 4.64475L19.4643 4.33028L16.1104 4.33087L12.7565 4.33147L12.3986 4.61779ZM19.3487 11.9355L19.3794 18.7654H18.4241H17.4688V17.2741V15.7829H16.0968H14.7249V17.0854C14.7249 17.8018 14.6923 18.4728 14.6525 18.5766C14.5949 18.7267 14.3871 18.7654 13.6385 18.7654H12.6968V12.0489C12.6968 6.93515 12.7314 5.29778 12.8419 5.18731C12.9501 5.07911 13.7904 5.05036 16.1524 5.07398L19.3179 5.10571L19.3487 11.9355ZM13.616 6.19467C13.4608 6.34988 13.5192 8.11871 13.681 8.16488C13.7631 8.18826 14.206 8.20747 14.6653 8.20747H15.5003V7.19343V6.1794L14.6002 6.14504C14.1052 6.12607 13.6623 6.1485 13.616 6.19467ZM16.6575 6.26291C16.462 6.45844 16.4669 7.98498 16.6635 8.10678C16.8844 8.24361 18.3398 8.25053 18.5126 8.11573C18.6675 7.99476 18.7241 6.65981 18.5893 6.30848C18.5325 6.16055 18.3313 6.11975 17.6588 6.11975C17.1505 6.11975 16.7424 6.17809 16.6575 6.26291ZM14.9635 7.20095C14.9635 7.67599 14.9557 7.68494 14.5758 7.64832C14.2746 7.61933 14.1794 7.54918 14.1488 7.33385C14.0858 6.88958 14.213 6.71624 14.6019 6.71624C14.9451 6.71624 14.9635 6.74082 14.9635 7.20095ZM18.0426 7.22326C18.0791 7.66406 18.0734 7.67063 17.6512 7.67063C17.1735 7.67063 17.0405 7.49025 17.1617 7.00697C17.2269 6.74738 17.2958 6.70729 17.6219 6.73879C17.9712 6.77255 18.0089 6.81597 18.0426 7.22326ZM13.557 10.2057L13.5916 11.1899H14.546H15.5003L15.5349 10.2057L15.5697 9.2215H14.546H13.5223L13.557 10.2057ZM16.5644 9.38244C16.5305 9.47095 16.5187 9.91391 16.5384 10.3666L16.574 11.1899H17.5881H18.6021L18.6386 10.4791C18.7024 9.23749 18.6889 9.2215 17.5821 9.2215C16.8899 9.2215 16.6091 9.26588 16.5644 9.38244ZM14.9635 10.2355C14.9635 10.6332 14.9436 10.6531 14.546 10.6531C14.1483 10.6531 14.1284 10.6332 14.1284 10.2355C14.1284 9.83792 14.1483 9.81799 14.546 9.81799C14.9436 9.81799 14.9635 9.83792 14.9635 10.2355ZM18.0653 10.2355C18.0653 10.6332 18.0453 10.6531 17.6477 10.6531C17.2501 10.6531 17.2302 10.6332 17.2302 10.2355C17.2302 9.83792 17.2501 9.81799 17.6477 9.81799C18.0453 9.81799 18.0653 9.83792 18.0653 10.2355ZM11.9979 13.3969C11.9986 15.0701 11.9952 16.9624 11.9901 17.6022L11.981 18.7654H10.4302C9.57719 18.7654 8.87333 18.725 8.86605 18.6759C8.85877 18.6267 8.8342 16.8207 8.81129 14.6625C8.78481 12.1666 8.81356 10.6565 8.89027 10.5134C9.00002 10.3081 9.14318 10.2911 10.5035 10.3216L11.9963 10.3548L11.9979 13.3969ZM23.2861 14.5601L23.3175 18.7654H21.7054H20.0933V14.6098C20.0933 12.3242 20.1307 10.417 20.1762 10.3713C20.2218 10.3257 20.9332 10.3033 21.7569 10.3217L23.2547 10.3548L23.2861 14.5601ZM9.52613 11.1713C9.49225 11.2595 9.48056 11.7292 9.5 12.2152L9.53543 13.0987L10.2462 13.1352C11.485 13.1989 11.5039 13.1833 11.5039 12.0952C11.5039 11.0054 11.5098 11.011 10.357 11.011C9.82294 11.011 9.56884 11.06 9.52613 11.1713ZM20.7739 11.0859C20.7276 11.1322 20.6898 11.5896 20.6898 12.1023C20.6898 13.1823 20.7099 13.1988 21.9475 13.1352L22.6582 13.0987V12.0847V11.0706L21.7581 11.0363C21.263 11.0173 20.8202 11.0397 20.7739 11.0859ZM10.8851 12.0548C10.921 12.4267 10.9051 12.4426 10.4973 12.4426C10.0897 12.4426 10.0723 12.4251 10.0723 12.0175C10.0723 11.6097 10.0881 11.5939 10.46 11.6298C10.8009 11.6626 10.8522 11.7139 10.8851 12.0548ZM22.1214 12.025C22.1214 12.4226 22.1015 12.4426 21.7038 12.4426C21.3062 12.4426 21.2863 12.4226 21.2863 12.025C21.2863 11.6274 21.3062 11.6075 21.7038 11.6075C22.1015 11.6075 22.1214 11.6274 22.1214 12.025ZM13.681 12.2805C13.5796 12.3231 13.5319 12.6445 13.5319 13.2853C13.5319 14.3767 13.5503 14.3919 14.7896 14.3282L15.5003 14.2917V13.2776V12.2636L14.6653 12.2408C14.206 12.2282 13.7631 12.2461 13.681 12.2805ZM16.6575 12.3471C16.5751 12.4295 16.5144 12.8243 16.5144 13.2776C16.5144 13.731 16.5751 14.1257 16.6575 14.2082C16.74 14.2906 17.1347 14.3513 17.5881 14.3513C18.0414 14.3513 18.4362 14.2906 18.5186 14.2082C18.6034 14.1233 18.6617 13.7152 18.6617 13.2069C18.6617 12.5344 18.6209 12.3332 18.473 12.2764C18.1361 12.1471 16.8057 12.1989 16.6575 12.3471ZM14.9635 13.2776C14.9635 13.7435 14.9536 13.7548 14.546 13.7548C14.1523 13.7548 14.1284 13.7322 14.1284 13.3572C14.1284 12.8724 14.1926 12.8004 14.6255 12.8004C14.9404 12.8004 14.9635 12.8333 14.9635 13.2776ZM18.0426 13.3075C18.0789 13.7451 18.0706 13.7548 17.6685 13.7548C17.3079 13.7548 17.2512 13.7131 17.2075 13.416C17.1317 12.8999 17.215 12.7833 17.6301 12.8236C17.9702 12.8566 18.0091 12.9023 18.0426 13.3075ZM9.50072 15.092L9.53543 16.0811H10.4898H11.4442V15.1268V14.1724L10.4551 14.1377L9.466 14.1029L9.50072 15.092ZM20.6898 15.1315V16.1505L21.674 16.1157L22.6582 16.0811L22.6928 15.0969L22.7275 14.1127H21.7086H20.6898V15.1315ZM10.9074 15.1268C10.9074 15.5244 10.8874 15.5443 10.4898 15.5443C10.0922 15.5443 10.0723 15.5244 10.0723 15.1268C10.0723 14.7291 10.0922 14.7092 10.4898 14.7092C10.8874 14.7092 10.9074 14.7291 10.9074 15.1268ZM22.1214 15.1268C22.1214 15.5244 22.1015 15.5443 21.7038 15.5443C21.3062 15.5443 21.2863 15.5244 21.2863 15.1268C21.2863 14.7291 21.3062 14.7092 21.7038 14.7092C22.1015 14.7092 22.1214 14.7291 22.1214 15.1268ZM16.8466 17.5426L16.8806 18.7654H16.1138C15.2083 18.7654 15.2021 18.7569 15.2021 17.5127C15.2021 16.2582 15.2131 16.2428 16.0818 16.2847L16.8126 16.3197L16.8466 17.5426Z" fill="#353945"/>
<path d="M2.35473 0.158704C2.34261 0.169979 2.33932 0.183736 2.33875 0.192342C2.33822 0.200411 2.33975 0.206724 2.34061 0.209731C2.34235 0.215849 2.34489 0.220367 2.34579 0.221944C2.34802 0.225854 2.35055 0.229269 2.35212 0.23132C2.35566 0.235962 2.36045 0.241619 2.36583 0.247737C2.37682 0.260256 2.39304 0.277855 2.41364 0.299712C2.45496 0.343563 2.51531 0.406012 2.59003 0.482343C2.73956 0.635074 2.94735 0.844067 3.17734 1.07248C3.63709 1.52909 4.32805 2.21583 4.71278 2.5986L4.74816 2.56304L4.71278 2.5986L5.36152 3.24397L4.44436 3.67382L3.48144 4.12513L2.49486 3.75524L2.47725 3.80221L2.49486 3.75524C2.21801 3.65145 1.9633 3.55706 1.77592 3.48859C1.68225 3.45436 1.60528 3.42656 1.55075 3.4073C1.52353 3.39768 1.50167 3.39011 1.48604 3.3849C1.47828 3.38232 1.4717 3.3802 1.46662 3.37868L1.45912 3.37659C1.45884 3.37652 1.45209 3.37465 1.44461 3.37461C1.43541 3.37455 1.4266 3.3767 1.42178 3.37795C1.41566 3.37955 1.4088 3.3817 1.40158 3.38415C1.38708 3.38909 1.36871 3.39611 1.34742 3.40469C1.3047 3.42191 1.24797 3.44637 1.18243 3.47556C1.05123 3.534 0.883187 3.61209 0.718032 3.69087C0.552892 3.76963 0.390243 3.84927 0.269871 3.91083C0.209795 3.94155 0.159695 3.96805 0.124957 3.9878C0.107804 3.99755 0.0932693 4.00629 0.0829325 4.01342C0.0781515 4.01672 0.0720998 4.02114 0.0669797 4.02617C0.0648137 4.0283 0.0596411 4.03356 0.0556239 4.04135C0.0521591 4.04807 0.0420827 4.07274 0.0603909 4.09651L0.0604 4.09652C0.0721972 4.11182 0.349494 4.45255 0.675695 4.85263C0.93157 5.16645 1.07792 5.34888 1.15692 5.45752C1.19682 5.5124 1.21724 5.5454 1.22635 5.56552C1.22762 5.56832 1.22855 5.5706 1.22923 5.57243C1.06718 5.79763 1.04247 6.07899 1.18911 6.26843L1.18912 6.26844C1.29607 6.40655 1.51846 6.52489 1.75209 6.57747C2.08617 6.65266 2.5827 6.65223 3.10582 6.59396C3.62994 6.53557 4.18613 6.4185 4.64104 6.25707L4.62427 6.20979L4.64104 6.25706C4.6741 6.24533 4.82632 6.17822 5.06337 6.07178C5.30208 5.9646 5.62995 5.8161 6.01728 5.6399C6.79197 5.28749 7.80476 4.82421 8.81834 4.35897C9.83192 3.89373 10.8463 3.42652 11.6243 3.06624C12.4006 2.70674 12.9448 2.45223 13.0145 2.41365C13.1355 2.34673 13.306 2.21678 13.4276 2.09948C13.5154 2.01494 13.5712 1.95757 13.6097 1.9034C13.6495 1.84731 13.6698 1.7962 13.6903 1.7267C13.7498 1.52503 13.7275 1.33807 13.6213 1.17078C13.5164 1.00559 13.3326 0.864126 13.0775 0.744127L2.35473 0.158704ZM2.35473 0.158704C2.36262 0.151371 2.37106 0.148437 2.37246 0.14795M2.35473 0.158704L2.37246 0.14795M12.1747 0.578897L12.177 0.528791C12.5435 0.546037 12.7722 0.600512 13.0775 0.744125L13.0562 0.789517L12.1747 0.578897ZM12.1747 0.578897L12.177 0.528791C11.8166 0.511851 11.5765 0.538916 11.1844 0.64002C10.8559 0.724763 10.6092 0.828446 9.3645 1.40136L8.31884 1.88271L6.47964 0.974119L4.61898 0.0549569L4.60809 0.0495786M12.1747 0.578897L4.60809 0.0495786M4.60809 0.0495786L4.59595 0.0497754M4.60809 0.0495786L4.59595 0.0497754M4.59595 0.0497754L4.36173 0.0535714L4.36254 0.103726M4.59595 0.0497754L4.36254 0.103726M4.36254 0.103726L4.36173 0.0535715C4.23204 0.0556798 3.7372 0.074673 3.26241 0.0957643C3.02477 0.106308 2.80728 0.117163 2.64829 0.126161M4.36254 0.103726L2.64829 0.126161M2.64829 0.126161C2.56884 0.130658 2.5038 0.134701 2.4581 0.13802M2.64829 0.126161L2.4581 0.13802M2.4581 0.13802C2.43531 0.139674 2.41697 0.141174 2.40392 0.142488M2.4581 0.13802L2.40392 0.142488M2.40392 0.142488C2.3975 0.143134 2.39172 0.143798 2.38712 0.144492M2.40392 0.142488L2.38712 0.144492M2.38712 0.144492C2.38494 0.144822 2.38207 0.145296 2.37918 0.145974M2.38712 0.144492L2.37918 0.145974M2.37918 0.145974C2.3778 0.146298 2.37539 0.146903 2.3726 0.147902M2.37918 0.145974L2.3726 0.147902M2.3726 0.147902L2.37246 0.14795M2.3726 0.147902L2.37246 0.14795M8.27937 2.59815L8.30083 2.60881L8.32261 2.59881L9.57095 2.02567C10.2584 1.71 10.9316 1.41092 11.0683 1.36017C11.7066 1.1231 12.3199 1.1116 12.768 1.3189C12.8545 1.35893 12.935 1.40723 12.9931 1.4511C13.0223 1.47313 13.0445 1.49305 13.0589 1.50929C13.0655 1.51677 13.0697 1.52258 13.072 1.52663C13.0716 1.52752 13.0711 1.52855 13.0704 1.52975C13.0665 1.53699 13.0599 1.54675 13.0501 1.55892C13.0306 1.58316 13.0016 1.61282 12.9658 1.64498C12.8943 1.70922 12.7998 1.77965 12.7092 1.83225C12.6856 1.84595 12.5441 1.9138 12.3088 2.02436C12.0752 2.13407 11.7526 2.28434 11.3704 2.46163C10.6059 2.81619 9.6031 3.27872 8.59784 3.74081C7.59259 4.2029 6.58491 4.66453 5.81063 5.01729C5.03467 5.37083 4.49642 5.61348 4.42691 5.63933C4.10928 5.75741 3.66876 5.85723 3.23747 5.91906C2.80559 5.98097 2.38834 6.00401 2.11658 5.9711C2.04858 5.96287 1.97844 5.95221 1.92042 5.9417C1.86162 5.93106 1.81981 5.92136 1.80366 5.91542L1.92395 5.80473L1.92396 5.80473L2.10391 5.6392L2.13872 5.60717L2.10879 5.57054L1.57009 4.91119C1.42202 4.72997 1.28645 4.56259 1.18732 4.43893C1.13774 4.37708 1.09736 4.32627 1.06912 4.29018C1.06282 4.28212 1.05715 4.27484 1.05214 4.26835C1.05805 4.26479 1.06471 4.2609 1.07208 4.25671C1.11115 4.23452 1.16546 4.20674 1.22253 4.17944C1.27953 4.15217 1.33837 4.12582 1.38636 4.10639C1.41041 4.09666 1.43114 4.0889 1.44725 4.08367C1.45775 4.08026 1.46429 4.07861 1.4677 4.07783C1.47129 4.07888 1.47615 4.08038 1.48237 4.08239C1.49745 4.08724 1.51894 4.09452 1.54631 4.10403C1.60096 4.12302 1.67799 4.15055 1.77184 4.18462C1.95947 4.25272 2.2137 4.34669 2.4892 4.45008L3.49144 4.82627L3.51123 4.8337L3.53037 4.82472L4.54419 4.34905C5.10179 4.0874 5.74628 3.78611 5.97635 3.67945C6.0918 3.62593 6.19696 3.57522 6.27346 3.53658C6.31161 3.51731 6.34311 3.5008 6.36532 3.48834C6.37627 3.48219 6.38583 3.47654 6.39303 3.47176C6.39644 3.46949 6.40066 3.46653 6.40452 3.46318C6.40634 3.4616 6.40955 3.45867 6.41272 3.45463L6.41283 3.45449C6.41464 3.4522 6.42395 3.44038 6.42395 3.42254C6.42395 3.4102 6.41922 3.40108 6.41861 3.3999L6.41856 3.3998C6.41717 3.39701 6.41579 3.39488 6.41509 3.39384C6.4136 3.3916 6.41211 3.38969 6.41119 3.38854C6.40918 3.38603 6.40673 3.3832 6.40423 3.38039C6.39908 3.3746 6.39175 3.36667 6.38257 3.35693C6.36413 3.33735 6.33711 3.30924 6.30256 3.27367C6.23341 3.20247 6.13351 3.10075 6.01035 2.97606C5.76398 2.72666 5.42422 2.38511 5.05053 2.01158L5.01506 2.04706L5.05052 2.01158L3.77116 0.732856L3.92166 0.724512L3.92167 0.724512C3.98378 0.721064 4.03504 0.716979 4.07984 0.713409C4.14798 0.707979 4.20118 0.70374 4.2549 0.704742C4.33895 0.706309 4.42057 0.721267 4.55254 0.770866C4.76893 0.852199 5.11078 1.02259 5.80054 1.36639C5.9668 1.44925 6.15327 1.5422 6.36307 1.6464L8.27937 2.59815ZM1.46247 4.07639L1.46263 4.07643L1.46247 4.07639Z" fill="#353945" stroke="#353945" stroke-width="0.1"/>
</svg>
