<svg width="29" height="30" viewBox="0 0 29 30" fill="none" xmlns="http://www.w3.org/2000/svg">
<path fill-rule="evenodd" clip-rule="evenodd" d="M19.3327 5H9.66602C6.99664 5 4.83268 7.23857 4.83268 10V20C4.83268 22.7614 6.99664 25 9.66602 25H19.3327C22.002 25 24.166 22.7614 24.166 20V10C24.166 7.23857 22.002 5 19.3327 5ZM9.66602 2.5C5.66195 2.5 2.41602 5.85786 2.41602 10V20C2.41602 24.1421 5.66195 27.5 9.66602 27.5H19.3327C23.3367 27.5 26.5827 24.1421 26.5827 20V10C26.5827 5.85786 23.3367 2.5 19.3327 2.5H9.66602Z" fill="#B1B5C4"/>
<path d="M20.5423 10C21.2097 10 21.7507 9.44035 21.7507 8.75C21.7507 8.05965 21.2097 7.5 20.5423 7.5C19.875 7.5 19.334 8.05965 19.334 8.75C19.334 9.44035 19.875 10 20.5423 10Z" fill="#B1B5C4"/>
<path fill-rule="evenodd" clip-rule="evenodd" d="M20.5423 15C20.5423 18.4517 17.8373 21.25 14.5007 21.25C11.1639 21.25 8.45898 18.4517 8.45898 15C8.45898 11.5482 11.1639 8.75 14.5007 8.75C17.8373 8.75 20.5423 11.5482 20.5423 15ZM18.1257 15C18.1257 17.0711 16.5027 18.75 14.5007 18.75C12.4986 18.75 10.8757 17.0711 10.8757 15C10.8757 12.9289 12.4986 11.25 14.5007 11.25C16.5027 11.25 18.1257 12.9289 18.1257 15Z" fill="#B1B5C4"/>
</svg>
