<svg width="18" height="18" viewBox="0 0 18 18" fill="none" xmlns="http://www.w3.org/2000/svg">
<path fill-rule="evenodd" clip-rule="evenodd" d="M6.65207 0.142771C6.61835 0.239084 6.57362 0.589815 6.5528 0.922277L6.51492 1.52675L5.73635 1.56719L4.95765 1.60775L4.99755 2.44032L5.03731 3.27302L5.68584 3.31439C6.52996 3.36826 6.71641 3.19981 6.71641 2.3835V1.72825H7.38805H8.05969V2.3835C8.05969 3.19981 8.24614 3.36826 9.09026 3.31439L9.7388 3.27302L9.80596 2.53422L9.87312 1.79541L10.5783 1.75484L11.2836 1.71414V2.44569C11.2836 3.25005 11.3716 3.34018 12.1567 3.34018C12.9526 3.34018 13.0298 3.25569 13.0298 2.38551V1.59392L12.3918 1.5919C12.0409 1.59069 11.682 1.54422 11.5944 1.48847C11.5068 1.43286 11.4162 1.08616 11.3929 0.718233L11.3507 0.0491437H10.5448H9.7388L9.67163 0.787949L9.60447 1.52675L9.083 1.56947C8.43003 1.62307 8.29195 1.48484 8.20007 0.686531L8.12686 0.0491437L7.42016 0.00844232C6.93053 -0.0196323 6.69451 0.0216065 6.65207 0.142771ZM7.8582 4.37035C5.88371 4.4668 3.80847 4.88147 3.62982 5.21527C3.56064 5.3445 3.31415 6.04838 3.08189 6.77952C2.84977 7.51067 2.6155 8.15612 2.56137 8.21388C2.50724 8.27178 2.00606 8.33451 1.44752 8.35331C0.195179 8.39549 0 8.53398 0 9.38052C0 10.0391 0.272418 10.4596 0.699313 10.4596C1.0076 10.4596 1.21728 10.7669 1.06898 11.0015C1.00048 11.1097 0.943521 12.5695 0.942312 14.2452L0.940297 17.2921L1.33039 17.5698C1.66325 17.8068 1.92089 17.8476 3.08552 17.8476C4.98787 17.8476 5.36158 17.6113 5.36883 16.4036L5.37313 15.6984H8.91845C12.8656 15.6984 12.6269 15.6367 12.6269 16.6561C12.6269 17.0597 12.7131 17.2687 12.9823 17.5183C13.3156 17.8271 13.4313 17.8476 14.8433 17.8476C16.2552 17.8476 16.371 17.8271 16.7043 17.5183L17.0597 17.1888V14.168C17.0597 12.2989 17.0085 11.1154 16.9254 11.0641C16.6653 10.9034 16.7952 10.5981 17.1604 10.5113C17.7899 10.3618 18 10.0788 18 9.38052C18 8.97297 17.926 8.68484 17.793 8.57442C17.6742 8.47582 17.1209 8.38381 16.4967 8.35869C15.8977 8.33464 15.3982 8.29878 15.3866 8.27903C15.3751 8.25928 15.1272 7.52182 14.8359 6.64023C14.2323 4.81444 14.4025 4.95279 12.3582 4.62503C11.096 4.42274 9.10006 4.30977 7.8582 4.37035ZM12.0444 5.36344C12.3278 5.42926 12.7518 5.48447 12.9867 5.48621C13.5498 5.49051 13.761 5.72599 14.0397 6.66051C14.1671 7.08767 14.3848 7.77369 14.5237 8.185C14.9711 9.51055 15.5496 9.38495 8.99999 9.38495C3.31858 9.38495 3.22388 9.38052 3.22388 9.11697C3.22388 8.79243 4.15222 5.87536 4.31032 5.70275C4.74796 5.22521 10.3837 4.97805 12.0444 5.36344ZM2.20782 9.23666C2.24865 9.30288 2.17316 9.49148 2.04004 9.65603C1.84473 9.89728 1.71698 9.93718 1.37834 9.86276C0.910477 9.76 0.602999 9.47025 0.735178 9.25654C0.840895 9.08554 2.10385 9.06848 2.20782 9.23666ZM17.1268 9.44715C17.1268 9.63158 16.99 9.74992 16.6713 9.8414C16.2724 9.95585 16.1849 9.93382 15.9668 9.66449C15.6221 9.23867 15.7687 9.09574 16.501 9.14303C17.0195 9.17648 17.1268 9.2286 17.1268 9.44715ZM15.82 10.8459L16.2594 11.494L16.223 14.2343L16.1865 16.9745L14.9304 17.0133C13.4704 17.0585 13.2654 16.9605 13.3252 16.2472C13.3649 15.7745 13.3781 15.7643 14.0373 15.6984C14.6506 15.637 14.7126 15.5991 14.7514 15.2618L14.794 14.8924H9.02014C2.97255 14.8924 2.95401 14.8943 3.24671 15.4633C3.33483 15.6347 3.53216 15.6984 3.97477 15.6984H4.58193L4.54097 16.3364L4.5 16.9745L3.12313 17.0128L1.74627 17.0511V14.2294V11.4077L2.17518 10.7993L2.60395 10.1909L8.99233 10.1944L15.3806 10.1979L15.82 10.8459ZM2.83795 11.6814C1.50783 12.9206 3.21488 14.8985 4.63432 13.7627C4.98882 13.4791 5.03731 13.3564 5.03731 12.7442C5.03731 12.1482 4.98317 12.0017 4.66038 11.724C4.16444 11.2974 3.2725 11.2766 2.83795 11.6814ZM13.2881 11.7925C12.4282 12.6525 13.0147 14.0864 14.2263 14.0864C15.4785 14.0864 16.0961 12.69 15.2394 11.7957C14.7014 11.2341 13.848 11.2326 13.2881 11.7925ZM6.26869 11.6238C6.2194 11.673 6.1791 11.8543 6.1791 12.0268V12.3402H8.99999H11.8209V12.0187C11.8209 11.842 11.7252 11.6606 11.6084 11.6157C11.3184 11.5044 6.38059 11.5118 6.26869 11.6238ZM4.23134 12.4745C4.38125 12.9468 4.18473 13.2805 3.75689 13.2805C3.27398 13.2805 3.00788 12.8782 3.22388 12.4745C3.31683 12.3007 3.50516 12.2058 3.75689 12.2058C4.0281 12.2058 4.17197 12.2872 4.23134 12.4745ZM14.7761 12.4745C14.9921 12.8782 14.726 13.2805 14.2431 13.2805C13.8153 13.2805 13.6187 12.9468 13.7686 12.4745C13.828 12.2872 13.9719 12.2058 14.2431 12.2058C14.4948 12.2058 14.6831 12.3007 14.7761 12.4745ZM6.1791 13.4676C6.1791 13.6444 6.27474 13.8257 6.3916 13.8706C6.66859 13.9768 11.3314 13.9768 11.6084 13.8706C11.7252 13.8257 11.8209 13.6444 11.8209 13.4676V13.1461H8.99999H6.1791V13.4676Z" fill="#353945"/>
</svg>
