<svg width="19" height="14" viewBox="0 0 19 14" fill="none" xmlns="http://www.w3.org/2000/svg">
<mask id="path-1-outside-1_0_75" maskUnits="userSpaceOnUse" x="-0.717435" y="-0.717435" width="20.521" height="15.3908" fill="black">
<rect fill="white" x="-0.717435" y="-0.717435" width="20.521" height="15.3908"/>
<path fill-rule="evenodd" clip-rule="evenodd" d="M6.19296 0.354787C5.84812 0.419773 5.39092 0.673208 5.04248 0.992582C4.44821 1.5372 4.31652 1.57897 3.19265 1.57897C2.4114 1.57897 2.40657 1.57948 2.3099 1.67643L2.21266 1.77385V3.91939C2.21266 5.96152 2.20922 6.06489 2.14114 6.06489C1.99765 6.06489 1.57522 6.23409 1.34286 6.38462C0.905503 6.66795 0.636705 7.00626 0.433571 7.52897L0.33143 7.79177L0.308617 13.4494L0.506048 13.6473H14.6918L14.789 13.5498C14.9177 13.4209 14.9177 13.2385 14.789 13.1096L14.6918 13.0121H0.945306V10.4714H1.79859C2.6518 10.4714 2.65192 10.4714 2.74911 10.374C2.87775 10.2451 2.87775 10.0626 2.74911 9.9337L2.65192 9.83624H0.939207L0.965109 7.87117L1.09046 7.60599C1.26488 7.23691 1.4894 7.00706 1.84988 6.82849L2.14914 6.68022H16.8508L17.1501 6.82849C17.5106 7.00706 17.7351 7.23691 17.9095 7.60599L18.0348 7.87117L18.0607 9.83624H4.30812L4.21093 9.9337C4.0823 10.0626 4.0823 10.2451 4.21093 10.374L4.30812 10.4714H18.0546V13.0121H17.2014C16.3481 13.0121 16.348 13.0121 16.2508 13.1096C16.1222 13.2385 16.1222 13.4209 16.2508 13.5498L16.348 13.6473H18.4939L18.6913 13.4494L18.6685 7.79177L18.5664 7.52897C18.4161 7.14227 18.2837 6.93667 18.0098 6.6647C17.7383 6.39502 17.354 6.17938 17.0057 6.10126L16.7873 6.05227V3.91927C16.7873 1.87933 16.784 1.78218 16.7117 1.69254C16.6371 1.60013 16.6232 1.59854 15.7315 1.57897L14.8268 1.55912L14.5622 1.43343C14.3917 1.35249 14.1867 1.2039 13.9861 1.01588C13.8055 0.846571 13.5551 0.660981 13.3897 0.573843C12.9038 0.317946 12.818 0.310086 10.4982 0.309292L8.42704 0.308617L8.32985 0.406077C8.26854 0.46749 8.23262 0.548872 8.23262 0.626205C8.23262 0.703537 8.26854 0.784919 8.32985 0.846333L8.42704 0.943792H10.48C13.0459 0.943792 12.9445 0.924697 13.5991 1.53069C13.9582 1.86317 14.4006 2.10239 14.7846 2.17171C14.9139 2.19505 15.2748 2.21414 15.5866 2.21414H16.1536V6.02519H14.8942L14.8664 4.69101L14.7185 4.39109C14.5404 4.02987 14.311 3.80478 13.9429 3.62999L13.6783 3.50434H10.3911L10.1293 3.62864C9.98541 3.697 9.78489 3.83241 9.68378 3.92951L9.49998 4.10605L9.31617 3.92951C9.21506 3.83241 9.01454 3.697 8.87061 3.62864L8.60886 3.50434H5.32165L5.05709 3.62999C4.68896 3.80478 4.45957 4.02987 4.28143 4.39109L4.13351 4.69101L4.1057 6.02519H2.84634V2.21414L3.43052 2.21347C3.78375 2.21303 4.12048 2.19028 4.2823 2.15591C4.66207 2.07524 5.05182 1.85511 5.42558 1.51013C5.81525 1.15046 6.12528 0.992383 6.5121 0.956178C6.72078 0.936647 6.8049 0.909652 6.87456 0.839822C6.99659 0.717511 6.99381 0.53212 6.86803 0.406077C6.76062 0.298375 6.56953 0.283845 6.19296 0.354787ZM8.52506 4.16794C8.74261 4.23237 9.0707 4.56123 9.13498 4.7793C9.16246 4.87255 9.18314 5.17501 9.18314 5.48394V6.02519H4.74738V5.48394C4.74738 5.17501 4.76806 4.87255 4.79554 4.7793C4.85515 4.57707 5.18668 4.23297 5.38106 4.17155C5.58431 4.10736 8.30985 4.10423 8.52506 4.16794ZM13.5945 4.16794C13.812 4.23237 14.1401 4.56123 14.2044 4.7793C14.2319 4.87255 14.2526 5.17501 14.2526 5.48394V6.02519H9.81682V5.48394C9.81682 5.17501 9.83749 4.87255 9.86498 4.7793C9.92458 4.57707 10.2561 4.23297 10.4505 4.17155C10.6537 4.10736 13.3793 4.10423 13.5945 4.16794Z"/>
<path d="M8.43512 0.308617H6.58563L6.69772 0.925111H8.43512V0.308617Z"/>
<path d="M4.68011 9.83625H2.55041V10.4527H4.39989L4.68011 9.83625Z"/>
<path d="M14.2078 12.9748H16.6737V13.6473H14.2078V12.9748Z"/>
</mask>
<path fill-rule="evenodd" clip-rule="evenodd" d="M6.19296 0.354787C5.84812 0.419773 5.39092 0.673208 5.04248 0.992582C4.44821 1.5372 4.31652 1.57897 3.19265 1.57897C2.4114 1.57897 2.40657 1.57948 2.3099 1.67643L2.21266 1.77385V3.91939C2.21266 5.96152 2.20922 6.06489 2.14114 6.06489C1.99765 6.06489 1.57522 6.23409 1.34286 6.38462C0.905503 6.66795 0.636705 7.00626 0.433571 7.52897L0.33143 7.79177L0.308617 13.4494L0.506048 13.6473H14.6918L14.789 13.5498C14.9177 13.4209 14.9177 13.2385 14.789 13.1096L14.6918 13.0121H0.945306V10.4714H1.79859C2.6518 10.4714 2.65192 10.4714 2.74911 10.374C2.87775 10.2451 2.87775 10.0626 2.74911 9.9337L2.65192 9.83624H0.939207L0.965109 7.87117L1.09046 7.60599C1.26488 7.23691 1.4894 7.00706 1.84988 6.82849L2.14914 6.68022H16.8508L17.1501 6.82849C17.5106 7.00706 17.7351 7.23691 17.9095 7.60599L18.0348 7.87117L18.0607 9.83624H4.30812L4.21093 9.9337C4.0823 10.0626 4.0823 10.2451 4.21093 10.374L4.30812 10.4714H18.0546V13.0121H17.2014C16.3481 13.0121 16.348 13.0121 16.2508 13.1096C16.1222 13.2385 16.1222 13.4209 16.2508 13.5498L16.348 13.6473H18.4939L18.6913 13.4494L18.6685 7.79177L18.5664 7.52897C18.4161 7.14227 18.2837 6.93667 18.0098 6.6647C17.7383 6.39502 17.354 6.17938 17.0057 6.10126L16.7873 6.05227V3.91927C16.7873 1.87933 16.784 1.78218 16.7117 1.69254C16.6371 1.60013 16.6232 1.59854 15.7315 1.57897L14.8268 1.55912L14.5622 1.43343C14.3917 1.35249 14.1867 1.2039 13.9861 1.01588C13.8055 0.846571 13.5551 0.660981 13.3897 0.573843C12.9038 0.317946 12.818 0.310086 10.4982 0.309292L8.42704 0.308617L8.32985 0.406077C8.26854 0.46749 8.23262 0.548872 8.23262 0.626205C8.23262 0.703537 8.26854 0.784919 8.32985 0.846333L8.42704 0.943792H10.48C13.0459 0.943792 12.9445 0.924697 13.5991 1.53069C13.9582 1.86317 14.4006 2.10239 14.7846 2.17171C14.9139 2.19505 15.2748 2.21414 15.5866 2.21414H16.1536V6.02519H14.8942L14.8664 4.69101L14.7185 4.39109C14.5404 4.02987 14.311 3.80478 13.9429 3.62999L13.6783 3.50434H10.3911L10.1293 3.62864C9.98541 3.697 9.78489 3.83241 9.68378 3.92951L9.49998 4.10605L9.31617 3.92951C9.21506 3.83241 9.01454 3.697 8.87061 3.62864L8.60886 3.50434H5.32165L5.05709 3.62999C4.68896 3.80478 4.45957 4.02987 4.28143 4.39109L4.13351 4.69101L4.1057 6.02519H2.84634V2.21414L3.43052 2.21347C3.78375 2.21303 4.12048 2.19028 4.2823 2.15591C4.66207 2.07524 5.05182 1.85511 5.42558 1.51013C5.81525 1.15046 6.12528 0.992383 6.5121 0.956178C6.72078 0.936647 6.8049 0.909652 6.87456 0.839822C6.99659 0.717511 6.99381 0.53212 6.86803 0.406077C6.76062 0.298375 6.56953 0.283845 6.19296 0.354787ZM8.52506 4.16794C8.74261 4.23237 9.0707 4.56123 9.13498 4.7793C9.16246 4.87255 9.18314 5.17501 9.18314 5.48394V6.02519H4.74738V5.48394C4.74738 5.17501 4.76806 4.87255 4.79554 4.7793C4.85515 4.57707 5.18668 4.23297 5.38106 4.17155C5.58431 4.10736 8.30985 4.10423 8.52506 4.16794ZM13.5945 4.16794C13.812 4.23237 14.1401 4.56123 14.2044 4.7793C14.2319 4.87255 14.2526 5.17501 14.2526 5.48394V6.02519H9.81682V5.48394C9.81682 5.17501 9.83749 4.87255 9.86498 4.7793C9.92458 4.57707 10.2561 4.23297 10.4505 4.17155C10.6537 4.10736 13.3793 4.10423 13.5945 4.16794Z" fill="#3B71FE"/>
<path d="M8.43512 0.308617H6.58563L6.69772 0.925111H8.43512V0.308617Z" fill="#3B71FE"/>
<path d="M4.68011 9.83625H2.55041V10.4527H4.39989L4.68011 9.83625Z" fill="#3B71FE"/>
<path d="M14.2078 12.9748H16.6737V13.6473H14.2078V12.9748Z" fill="#3B71FE"/>
<path fill-rule="evenodd" clip-rule="evenodd" d="M6.19296 0.354787C5.84812 0.419773 5.39092 0.673208 5.04248 0.992582C4.44821 1.5372 4.31652 1.57897 3.19265 1.57897C2.4114 1.57897 2.40657 1.57948 2.3099 1.67643L2.21266 1.77385V3.91939C2.21266 5.96152 2.20922 6.06489 2.14114 6.06489C1.99765 6.06489 1.57522 6.23409 1.34286 6.38462C0.905503 6.66795 0.636705 7.00626 0.433571 7.52897L0.33143 7.79177L0.308617 13.4494L0.506048 13.6473H14.6918L14.789 13.5498C14.9177 13.4209 14.9177 13.2385 14.789 13.1096L14.6918 13.0121H0.945306V10.4714H1.79859C2.6518 10.4714 2.65192 10.4714 2.74911 10.374C2.87775 10.2451 2.87775 10.0626 2.74911 9.9337L2.65192 9.83624H0.939207L0.965109 7.87117L1.09046 7.60599C1.26488 7.23691 1.4894 7.00706 1.84988 6.82849L2.14914 6.68022H16.8508L17.1501 6.82849C17.5106 7.00706 17.7351 7.23691 17.9095 7.60599L18.0348 7.87117L18.0607 9.83624H4.30812L4.21093 9.9337C4.0823 10.0626 4.0823 10.2451 4.21093 10.374L4.30812 10.4714H18.0546V13.0121H17.2014C16.3481 13.0121 16.348 13.0121 16.2508 13.1096C16.1222 13.2385 16.1222 13.4209 16.2508 13.5498L16.348 13.6473H18.4939L18.6913 13.4494L18.6685 7.79177L18.5664 7.52897C18.4161 7.14227 18.2837 6.93667 18.0098 6.6647C17.7383 6.39502 17.354 6.17938 17.0057 6.10126L16.7873 6.05227V3.91927C16.7873 1.87933 16.784 1.78218 16.7117 1.69254C16.6371 1.60013 16.6232 1.59854 15.7315 1.57897L14.8268 1.55912L14.5622 1.43343C14.3917 1.35249 14.1867 1.2039 13.9861 1.01588C13.8055 0.846571 13.5551 0.660981 13.3897 0.573843C12.9038 0.317946 12.818 0.310086 10.4982 0.309292L8.42704 0.308617L8.32985 0.406077C8.26854 0.46749 8.23262 0.548872 8.23262 0.626205C8.23262 0.703537 8.26854 0.784919 8.32985 0.846333L8.42704 0.943792H10.48C13.0459 0.943792 12.9445 0.924697 13.5991 1.53069C13.9582 1.86317 14.4006 2.10239 14.7846 2.17171C14.9139 2.19505 15.2748 2.21414 15.5866 2.21414H16.1536V6.02519H14.8942L14.8664 4.69101L14.7185 4.39109C14.5404 4.02987 14.311 3.80478 13.9429 3.62999L13.6783 3.50434H10.3911L10.1293 3.62864C9.98541 3.697 9.78489 3.83241 9.68378 3.92951L9.49998 4.10605L9.31617 3.92951C9.21506 3.83241 9.01454 3.697 8.87061 3.62864L8.60886 3.50434H5.32165L5.05709 3.62999C4.68896 3.80478 4.45957 4.02987 4.28143 4.39109L4.13351 4.69101L4.1057 6.02519H2.84634V2.21414L3.43052 2.21347C3.78375 2.21303 4.12048 2.19028 4.2823 2.15591C4.66207 2.07524 5.05182 1.85511 5.42558 1.51013C5.81525 1.15046 6.12528 0.992383 6.5121 0.956178C6.72078 0.936647 6.8049 0.909652 6.87456 0.839822C6.99659 0.717511 6.99381 0.53212 6.86803 0.406077C6.76062 0.298375 6.56953 0.283845 6.19296 0.354787ZM8.52506 4.16794C8.74261 4.23237 9.0707 4.56123 9.13498 4.7793C9.16246 4.87255 9.18314 5.17501 9.18314 5.48394V6.02519H4.74738V5.48394C4.74738 5.17501 4.76806 4.87255 4.79554 4.7793C4.85515 4.57707 5.18668 4.23297 5.38106 4.17155C5.58431 4.10736 8.30985 4.10423 8.52506 4.16794ZM13.5945 4.16794C13.812 4.23237 14.1401 4.56123 14.2044 4.7793C14.2319 4.87255 14.2526 5.17501 14.2526 5.48394V6.02519H9.81682V5.48394C9.81682 5.17501 9.83749 4.87255 9.86498 4.7793C9.92458 4.57707 10.2561 4.23297 10.4505 4.17155C10.6537 4.10736 13.3793 4.10423 13.5945 4.16794Z" stroke="#3B71FE" stroke-width="0.6" mask="url(#path-1-outside-1_0_75)"/>
<path d="M8.43512 0.308617H6.58563L6.69772 0.925111H8.43512V0.308617Z" stroke="#3B71FE" stroke-width="0.6" mask="url(#path-1-outside-1_0_75)"/>
<path d="M4.68011 9.83625H2.55041V10.4527H4.39989L4.68011 9.83625Z" stroke="#3B71FE" stroke-width="0.6" mask="url(#path-1-outside-1_0_75)"/>
<path d="M14.2078 12.9748H16.6737V13.6473H14.2078V12.9748Z" stroke="#3B71FE" stroke-width="0.6" mask="url(#path-1-outside-1_0_75)"/>
</svg>
