<svg width="14" height="17" viewBox="0 0 14 17" fill="none" xmlns="http://www.w3.org/2000/svg">
<path d="M1.87264 8.2937L1.87289 8.29343L1.868 8.28981C1.30837 7.87566 0.850353 7.32152 0.533564 6.67475C0.216769 6.02797 0.0507745 5.30805 0.05 4.57687L0.05 1.96154C0.05 1.45346 0.23793 0.966844 0.571445 0.608591C0.904847 0.250458 1.35624 0.05 1.82609 0.05H2.43478C2.58176 0.05 2.7235 0.112683 2.8286 0.225576C2.93381 0.33859 2.99348 0.492588 2.99348 0.653846C2.99348 0.815105 2.93381 0.969102 2.8286 1.08212C2.7235 1.19501 2.58176 1.25769 2.43478 1.25769H1.82609C1.65019 1.25769 1.48229 1.33278 1.35908 1.46513C1.23598 1.59736 1.16739 1.77598 1.16739 1.96154V4.57692C1.16739 5.45613 1.4925 6.29998 2.07221 6.92269C2.65203 7.54551 3.43923 7.89615 4.26087 7.89615C4.66763 7.89615 5.07031 7.81009 5.44588 7.64298C5.82145 7.47588 6.16245 7.23106 6.44953 6.92269C6.7366 6.61432 6.96414 6.24843 7.11933 5.84599C7.27451 5.44355 7.35434 5.01233 7.35434 4.57692V1.96154C7.35434 1.77598 7.28575 1.59736 7.16266 1.46513C7.03945 1.33278 6.87155 1.25769 6.69565 1.25769H6.08695C5.93998 1.25769 5.79823 1.19501 5.69314 1.08212C5.58793 0.969102 5.52826 0.815105 5.52826 0.653846C5.52826 0.492588 5.58793 0.33859 5.69314 0.225576C5.79823 0.112683 5.93998 0.05 6.08695 0.05H6.69565C7.1655 0.05 7.61689 0.250458 7.95029 0.608591C8.28381 0.966844 8.47174 1.45346 8.47174 1.96154V4.57692V4.57696C8.47231 5.307 8.30816 6.02617 7.99351 6.67287C7.67886 7.31955 7.22317 7.87432 6.66576 8.28992L6.66557 8.28965L6.66138 8.29359C6.11014 8.81234 5.66281 9.44565 5.34631 10.1551C5.02981 10.8645 4.85066 11.6354 4.8196 12.4211L4.81956 12.4211V12.4231C4.81956 13.3023 5.14468 14.1461 5.72438 14.7688C6.3042 15.3917 7.0914 15.7423 7.91304 15.7423C8.73468 15.7423 9.52188 15.3917 10.1017 14.7688C10.6814 14.1461 11.0065 13.3023 11.0065 12.4231V11.6777V11.6397L10.9699 11.6295C10.4087 11.4739 9.91865 11.1034 9.59234 10.5865C9.266 10.0696 9.12613 9.44205 9.19949 8.82168C9.27285 8.20132 9.55425 7.63169 9.99005 7.21926C10.4258 6.80692 10.9858 6.57997 11.5652 6.57997C12.1446 6.57997 12.7047 6.80692 13.1404 7.21926C13.5762 7.63169 13.8576 8.20132 13.9309 8.82168C14.0043 9.44205 13.8644 10.0696 13.5381 10.5865C13.2118 11.1034 12.7218 11.4739 12.1605 11.6295L12.1239 11.6397V11.6777V12.4231C12.1239 13.6248 11.6795 14.7766 10.8893 15.6254C10.0993 16.474 9.02863 16.95 7.91304 16.95C6.79745 16.95 5.72676 16.474 4.93675 15.6254C4.14662 14.7766 3.70217 13.6248 3.70221 12.4231L3.70214 12.4212C3.67263 11.6364 3.4954 10.8662 3.18103 10.1568C2.86667 9.44744 2.42164 8.81361 1.87264 8.2937ZM10.6678 10.1126C10.9052 10.3676 11.2279 10.5115 11.5652 10.5115C11.9025 10.5115 12.2253 10.3676 12.4626 10.1126C12.6999 9.85775 12.8326 9.51282 12.8326 9.15385C12.8326 8.79487 12.6999 8.44995 12.4626 8.1951C12.2253 7.94013 11.9025 7.79615 11.5652 7.79615C11.2279 7.79615 10.9052 7.94013 10.6678 8.1951C10.4305 8.44995 10.2978 8.79487 10.2978 9.15385C10.2978 9.51282 10.4305 9.85775 10.6678 10.1126Z" fill="#3B71FE" stroke="white" stroke-width="0.1"/>
</svg>
