<svg width="12" height="11" viewBox="0 0 12 11" fill="none" xmlns="http://www.w3.org/2000/svg">
<path d="M5.473 0.340375C5.67238 -0.113458 6.32752 -0.113458 6.5269 0.340375L7.77806 3.18828C7.86248 3.38045 8.04835 3.51086 8.26079 3.52698L11.4694 3.77051C11.9842 3.80958 12.1887 4.44438 11.7906 4.76728L9.37758 6.72415C9.20738 6.86218 9.13285 7.08385 9.18587 7.29429L9.92849 10.2417C10.0506 10.7264 9.51828 11.1162 9.08021 10.8629L6.29111 9.25008C6.11142 9.14617 5.88848 9.14617 5.70879 9.25008L2.91969 10.8629C2.48161 11.1162 1.94929 10.7264 2.07141 10.2417L2.81403 7.29429C2.86705 7.08385 2.79251 6.86218 2.62232 6.72415L0.209333 4.76728C-0.188829 4.44438 0.0157188 3.80958 0.530518 3.77051L3.7391 3.52698C3.95155 3.51086 4.13741 3.38045 4.22184 3.18828L5.473 0.340375Z" fill="#3772FF"/>
<path d="M5.473 0.340375C5.67238 -0.113458 6.32752 -0.113458 6.5269 0.340375L7.77806 3.18828C7.86248 3.38045 8.04835 3.51086 8.26079 3.52698L11.4694 3.77051C11.9842 3.80958 12.1887 4.44438 11.7906 4.76728L9.37758 6.72415C9.20738 6.86218 9.13285 7.08385 9.18587 7.29429L9.92849 10.2417C10.0506 10.7264 9.51828 11.1162 9.08021 10.8629L6.29111 9.25008C6.11142 9.14617 5.88848 9.14617 5.70879 9.25008L2.91969 10.8629C2.48161 11.1162 1.94929 10.7264 2.07141 10.2417L2.81403 7.29429C2.86705 7.08385 2.79251 6.86218 2.62232 6.72415L0.209333 4.76728C-0.188829 4.44438 0.0157188 3.80958 0.530518 3.77051L3.7391 3.52698C3.95155 3.51086 4.13741 3.38045 4.22184 3.18828L5.473 0.340375Z" fill="black" fill-opacity="0.25"/>
</svg>
