<svg width="21" height="15" viewBox="0 0 21 15" fill="none" xmlns="http://www.w3.org/2000/svg">
<mask id="path-1-outside-1_0_25" maskUnits="userSpaceOnUse" x="-0.605352" y="-0.605352" width="22.2107" height="16.1532" fill="black">
<rect fill="white" x="-0.605352" y="-0.605352" width="22.2107" height="16.1532"/>
<path fill-rule="evenodd" clip-rule="evenodd" d="M9.96955 0.440292C8.79456 0.607305 7.85483 1.39524 7.49689 2.51355C7.36351 2.93018 7.36327 3.71115 7.49633 4.12943C7.89707 5.38901 9.03656 6.20873 10.3899 6.21092C10.9097 6.21177 11.2303 6.14024 11.7033 5.91787C12.3344 5.62116 12.7613 5.20838 13.0826 4.58388C13.323 4.11677 13.3932 3.77817 13.3708 3.19337C13.3564 2.81626 13.332 2.66525 13.2456 2.41736C13.0925 1.97838 12.8593 1.615 12.5151 1.2792C12.0304 0.806444 11.4582 0.531859 10.7638 0.43883C10.4167 0.392354 10.3055 0.392547 9.96955 0.440292ZM11.1314 1.16509C11.8433 1.40282 12.4045 1.95203 12.634 2.63558C12.7571 3.00212 12.7666 3.61269 12.6542 3.93706C12.3666 4.76732 11.7813 5.30806 10.9439 5.51697C10.1796 5.70769 9.37569 5.50124 8.78033 4.96142C8.46951 4.67964 8.29058 4.41094 8.14505 4.00766C8.01006 3.63351 8.00284 3.04894 8.12853 2.66744C8.37944 1.90578 9.11654 1.24743 9.88965 1.09442C10.2104 1.03094 10.8364 1.06656 11.1314 1.16509ZM16.1007 2.45557C15.3025 2.63143 14.6105 3.25104 14.3601 4.01401C14.2638 4.30737 14.2444 4.92902 14.3228 5.20669C14.4297 5.58507 14.6411 5.93895 14.931 6.22454C15.2514 6.54014 15.4687 6.67545 15.8661 6.8066C16.4637 7.00382 17.0634 6.95846 17.6615 6.67083C19.2305 5.91633 19.3765 3.7737 17.9249 2.80614C17.4078 2.46142 16.6954 2.32453 16.1007 2.45557ZM3.91707 2.61177C3.32857 2.73627 2.78878 3.09211 2.45916 3.57291C1.8369 4.4805 1.96022 5.65725 2.75794 6.42406C3.16948 6.81964 3.83989 7.09054 4.40721 7.09054C5.38934 7.09054 6.33413 6.40767 6.64108 5.476C6.76531 5.09888 6.7575 4.5127 6.62325 4.13578C6.48242 3.74043 6.30329 3.46861 5.99784 3.18675C5.43486 2.66721 4.66305 2.45395 3.91707 2.61177ZM17.0893 3.11408C17.39 3.20099 17.5966 3.32822 17.8332 3.57234C18.6155 4.37928 18.3476 5.65906 17.2958 6.13924C16.6086 6.45295 15.7236 6.23927 15.2635 5.64848C15.0168 5.3318 14.9396 5.0943 14.9384 4.64882C14.9375 4.29464 14.9475 4.24339 15.0639 4.00347C15.2697 3.57938 15.6587 3.24893 16.1204 3.10611C16.3442 3.0369 16.8362 3.04094 17.0893 3.11408ZM5.09738 3.34677C5.57123 3.56683 5.86181 3.8934 6.01148 4.37408C6.24728 5.13151 5.86256 5.94915 5.10819 6.29375C4.88489 6.39575 4.78278 6.41821 4.48609 6.43072C3.92465 6.45438 3.51579 6.28864 3.13091 5.88124C2.57996 5.29818 2.57996 4.34573 3.13091 3.76266C3.51784 3.35311 3.89625 3.19826 4.46637 3.21603C4.78921 3.22611 4.87649 3.2442 5.09738 3.34677ZM10.0272 6.61735C8.81973 6.73358 7.66351 7.22435 6.82044 7.97843L6.55183 8.21869L6.16971 8.04233C5.7041 7.82749 5.38579 7.73223 4.9203 7.66848C3.0697 7.41506 1.22127 8.53002 0.614195 10.2659C0.453287 10.726 0.404225 11.1173 0.404225 11.9402C0.404225 12.6975 0.40462 12.701 0.514416 12.906C0.594633 13.0558 0.676941 13.1434 0.816908 13.2278L1.00921 13.3438L3.00905 13.3548L5.00884 13.3657L5.03444 13.5218C5.07112 13.7456 5.18541 13.943 5.37495 14.11C5.70982 14.4052 5.28527 14.3826 10.5004 14.3826C15.7156 14.3826 15.291 14.4052 15.6259 14.11C15.8503 13.9123 15.9508 13.7053 15.9737 13.3939L15.9926 13.1361L17.9693 13.1242C19.3744 13.1158 19.976 13.0993 20.05 13.0671C20.2224 12.9922 20.4468 12.7769 20.5231 12.6132C20.5846 12.481 20.595 12.3509 20.5958 11.7041C20.5967 10.8861 20.5478 10.4955 20.3866 10.0351C19.9756 8.86116 19.0235 7.9523 17.8153 7.58069C16.725 7.24535 15.4499 7.39428 14.5064 7.96715L14.3138 8.08411L14.0696 7.88197C12.9519 6.95703 11.4333 6.48196 10.0272 6.61735ZM11.3136 7.30449C13.2843 7.63486 14.8317 9.08673 15.2362 10.985C15.3054 11.3097 15.3238 11.5546 15.3374 12.3346C15.3554 13.3724 15.334 13.5411 15.1676 13.6688C15.0651 13.7474 15.0446 13.7478 10.5004 13.7478C5.98415 13.7478 5.93517 13.747 5.83515 13.6702C5.66588 13.5403 5.6496 13.4155 5.6645 12.3627C5.67614 11.5406 5.69219 11.3174 5.76377 10.985C6.16971 9.09954 7.70607 7.64667 9.6525 7.30764C10.0781 7.2335 10.8811 7.232 11.3136 7.30449ZM17.4393 8.13474C18.614 8.42676 19.5451 9.339 19.8467 10.4933C19.9138 10.75 19.9262 10.9218 19.9262 11.5917C19.9262 12.1581 19.9126 12.3991 19.8789 12.432C19.8434 12.4666 19.3525 12.4782 17.9127 12.4782H15.9938L15.9706 11.8145C15.9369 10.8525 15.7846 10.2624 15.366 9.47166C15.2639 9.27883 15.087 8.99412 14.9728 8.83892L14.7653 8.5568L14.8946 8.47885C15.5871 8.0613 16.5954 7.92499 17.4393 8.13474ZM5.22358 8.37686C5.55692 8.45934 6.08334 8.67537 6.08334 8.72966C6.08334 8.74112 6.01038 8.85531 5.92117 8.98343C5.68872 9.31734 5.35495 10.0165 5.23542 10.4198C5.08224 10.9366 5.01898 11.4279 5.01874 12.103L5.01851 12.709H3.09084C1.44453 12.709 1.1562 12.7008 1.11518 12.6526C1.07941 12.6105 1.0714 12.3724 1.08383 11.7196C1.09873 10.9371 1.11021 10.8141 1.19074 10.5737C1.57479 9.42733 2.50727 8.59692 3.69732 8.34146C4.10334 8.25432 4.79304 8.27032 5.22358 8.37686Z"/>
</mask>
<path fill-rule="evenodd" clip-rule="evenodd" d="M9.96955 0.440292C8.79456 0.607305 7.85483 1.39524 7.49689 2.51355C7.36351 2.93018 7.36327 3.71115 7.49633 4.12943C7.89707 5.38901 9.03656 6.20873 10.3899 6.21092C10.9097 6.21177 11.2303 6.14024 11.7033 5.91787C12.3344 5.62116 12.7613 5.20838 13.0826 4.58388C13.323 4.11677 13.3932 3.77817 13.3708 3.19337C13.3564 2.81626 13.332 2.66525 13.2456 2.41736C13.0925 1.97838 12.8593 1.615 12.5151 1.2792C12.0304 0.806444 11.4582 0.531859 10.7638 0.43883C10.4167 0.392354 10.3055 0.392547 9.96955 0.440292ZM11.1314 1.16509C11.8433 1.40282 12.4045 1.95203 12.634 2.63558C12.7571 3.00212 12.7666 3.61269 12.6542 3.93706C12.3666 4.76732 11.7813 5.30806 10.9439 5.51697C10.1796 5.70769 9.37569 5.50124 8.78033 4.96142C8.46951 4.67964 8.29058 4.41094 8.14505 4.00766C8.01006 3.63351 8.00284 3.04894 8.12853 2.66744C8.37944 1.90578 9.11654 1.24743 9.88965 1.09442C10.2104 1.03094 10.8364 1.06656 11.1314 1.16509ZM16.1007 2.45557C15.3025 2.63143 14.6105 3.25104 14.3601 4.01401C14.2638 4.30737 14.2444 4.92902 14.3228 5.20669C14.4297 5.58507 14.6411 5.93895 14.931 6.22454C15.2514 6.54014 15.4687 6.67545 15.8661 6.8066C16.4637 7.00382 17.0634 6.95846 17.6615 6.67083C19.2305 5.91633 19.3765 3.7737 17.9249 2.80614C17.4078 2.46142 16.6954 2.32453 16.1007 2.45557ZM3.91707 2.61177C3.32857 2.73627 2.78878 3.09211 2.45916 3.57291C1.8369 4.4805 1.96022 5.65725 2.75794 6.42406C3.16948 6.81964 3.83989 7.09054 4.40721 7.09054C5.38934 7.09054 6.33413 6.40767 6.64108 5.476C6.76531 5.09888 6.7575 4.5127 6.62325 4.13578C6.48242 3.74043 6.30329 3.46861 5.99784 3.18675C5.43486 2.66721 4.66305 2.45395 3.91707 2.61177ZM17.0893 3.11408C17.39 3.20099 17.5966 3.32822 17.8332 3.57234C18.6155 4.37928 18.3476 5.65906 17.2958 6.13924C16.6086 6.45295 15.7236 6.23927 15.2635 5.64848C15.0168 5.3318 14.9396 5.0943 14.9384 4.64882C14.9375 4.29464 14.9475 4.24339 15.0639 4.00347C15.2697 3.57938 15.6587 3.24893 16.1204 3.10611C16.3442 3.0369 16.8362 3.04094 17.0893 3.11408ZM5.09738 3.34677C5.57123 3.56683 5.86181 3.8934 6.01148 4.37408C6.24728 5.13151 5.86256 5.94915 5.10819 6.29375C4.88489 6.39575 4.78278 6.41821 4.48609 6.43072C3.92465 6.45438 3.51579 6.28864 3.13091 5.88124C2.57996 5.29818 2.57996 4.34573 3.13091 3.76266C3.51784 3.35311 3.89625 3.19826 4.46637 3.21603C4.78921 3.22611 4.87649 3.2442 5.09738 3.34677ZM10.0272 6.61735C8.81973 6.73358 7.66351 7.22435 6.82044 7.97843L6.55183 8.21869L6.16971 8.04233C5.7041 7.82749 5.38579 7.73223 4.9203 7.66848C3.0697 7.41506 1.22127 8.53002 0.614195 10.2659C0.453287 10.726 0.404225 11.1173 0.404225 11.9402C0.404225 12.6975 0.40462 12.701 0.514416 12.906C0.594633 13.0558 0.676941 13.1434 0.816908 13.2278L1.00921 13.3438L3.00905 13.3548L5.00884 13.3657L5.03444 13.5218C5.07112 13.7456 5.18541 13.943 5.37495 14.11C5.70982 14.4052 5.28527 14.3826 10.5004 14.3826C15.7156 14.3826 15.291 14.4052 15.6259 14.11C15.8503 13.9123 15.9508 13.7053 15.9737 13.3939L15.9926 13.1361L17.9693 13.1242C19.3744 13.1158 19.976 13.0993 20.05 13.0671C20.2224 12.9922 20.4468 12.7769 20.5231 12.6132C20.5846 12.481 20.595 12.3509 20.5958 11.7041C20.5967 10.8861 20.5478 10.4955 20.3866 10.0351C19.9756 8.86116 19.0235 7.9523 17.8153 7.58069C16.725 7.24535 15.4499 7.39428 14.5064 7.96715L14.3138 8.08411L14.0696 7.88197C12.9519 6.95703 11.4333 6.48196 10.0272 6.61735ZM11.3136 7.30449C13.2843 7.63486 14.8317 9.08673 15.2362 10.985C15.3054 11.3097 15.3238 11.5546 15.3374 12.3346C15.3554 13.3724 15.334 13.5411 15.1676 13.6688C15.0651 13.7474 15.0446 13.7478 10.5004 13.7478C5.98415 13.7478 5.93517 13.747 5.83515 13.6702C5.66588 13.5403 5.6496 13.4155 5.6645 12.3627C5.67614 11.5406 5.69219 11.3174 5.76377 10.985C6.16971 9.09954 7.70607 7.64667 9.6525 7.30764C10.0781 7.2335 10.8811 7.232 11.3136 7.30449ZM17.4393 8.13474C18.614 8.42676 19.5451 9.339 19.8467 10.4933C19.9138 10.75 19.9262 10.9218 19.9262 11.5917C19.9262 12.1581 19.9126 12.3991 19.8789 12.432C19.8434 12.4666 19.3525 12.4782 17.9127 12.4782H15.9938L15.9706 11.8145C15.9369 10.8525 15.7846 10.2624 15.366 9.47166C15.2639 9.27883 15.087 8.99412 14.9728 8.83892L14.7653 8.5568L14.8946 8.47885C15.5871 8.0613 16.5954 7.92499 17.4393 8.13474ZM5.22358 8.37686C5.55692 8.45934 6.08334 8.67537 6.08334 8.72966C6.08334 8.74112 6.01038 8.85531 5.92117 8.98343C5.68872 9.31734 5.35495 10.0165 5.23542 10.4198C5.08224 10.9366 5.01898 11.4279 5.01874 12.103L5.01851 12.709H3.09084C1.44453 12.709 1.1562 12.7008 1.11518 12.6526C1.07941 12.6105 1.0714 12.3724 1.08383 11.7196C1.09873 10.9371 1.11021 10.8141 1.19074 10.5737C1.57479 9.42733 2.50727 8.59692 3.69732 8.34146C4.10334 8.25432 4.79304 8.27032 5.22358 8.37686Z" fill="#777E91"/>
<path fill-rule="evenodd" clip-rule="evenodd" d="M9.96955 0.440292C8.79456 0.607305 7.85483 1.39524 7.49689 2.51355C7.36351 2.93018 7.36327 3.71115 7.49633 4.12943C7.89707 5.38901 9.03656 6.20873 10.3899 6.21092C10.9097 6.21177 11.2303 6.14024 11.7033 5.91787C12.3344 5.62116 12.7613 5.20838 13.0826 4.58388C13.323 4.11677 13.3932 3.77817 13.3708 3.19337C13.3564 2.81626 13.332 2.66525 13.2456 2.41736C13.0925 1.97838 12.8593 1.615 12.5151 1.2792C12.0304 0.806444 11.4582 0.531859 10.7638 0.43883C10.4167 0.392354 10.3055 0.392547 9.96955 0.440292ZM11.1314 1.16509C11.8433 1.40282 12.4045 1.95203 12.634 2.63558C12.7571 3.00212 12.7666 3.61269 12.6542 3.93706C12.3666 4.76732 11.7813 5.30806 10.9439 5.51697C10.1796 5.70769 9.37569 5.50124 8.78033 4.96142C8.46951 4.67964 8.29058 4.41094 8.14505 4.00766C8.01006 3.63351 8.00284 3.04894 8.12853 2.66744C8.37944 1.90578 9.11654 1.24743 9.88965 1.09442C10.2104 1.03094 10.8364 1.06656 11.1314 1.16509ZM16.1007 2.45557C15.3025 2.63143 14.6105 3.25104 14.3601 4.01401C14.2638 4.30737 14.2444 4.92902 14.3228 5.20669C14.4297 5.58507 14.6411 5.93895 14.931 6.22454C15.2514 6.54014 15.4687 6.67545 15.8661 6.8066C16.4637 7.00382 17.0634 6.95846 17.6615 6.67083C19.2305 5.91633 19.3765 3.7737 17.9249 2.80614C17.4078 2.46142 16.6954 2.32453 16.1007 2.45557ZM3.91707 2.61177C3.32857 2.73627 2.78878 3.09211 2.45916 3.57291C1.8369 4.4805 1.96022 5.65725 2.75794 6.42406C3.16948 6.81964 3.83989 7.09054 4.40721 7.09054C5.38934 7.09054 6.33413 6.40767 6.64108 5.476C6.76531 5.09888 6.7575 4.5127 6.62325 4.13578C6.48242 3.74043 6.30329 3.46861 5.99784 3.18675C5.43486 2.66721 4.66305 2.45395 3.91707 2.61177ZM17.0893 3.11408C17.39 3.20099 17.5966 3.32822 17.8332 3.57234C18.6155 4.37928 18.3476 5.65906 17.2958 6.13924C16.6086 6.45295 15.7236 6.23927 15.2635 5.64848C15.0168 5.3318 14.9396 5.0943 14.9384 4.64882C14.9375 4.29464 14.9475 4.24339 15.0639 4.00347C15.2697 3.57938 15.6587 3.24893 16.1204 3.10611C16.3442 3.0369 16.8362 3.04094 17.0893 3.11408ZM5.09738 3.34677C5.57123 3.56683 5.86181 3.8934 6.01148 4.37408C6.24728 5.13151 5.86256 5.94915 5.10819 6.29375C4.88489 6.39575 4.78278 6.41821 4.48609 6.43072C3.92465 6.45438 3.51579 6.28864 3.13091 5.88124C2.57996 5.29818 2.57996 4.34573 3.13091 3.76266C3.51784 3.35311 3.89625 3.19826 4.46637 3.21603C4.78921 3.22611 4.87649 3.2442 5.09738 3.34677ZM10.0272 6.61735C8.81973 6.73358 7.66351 7.22435 6.82044 7.97843L6.55183 8.21869L6.16971 8.04233C5.7041 7.82749 5.38579 7.73223 4.9203 7.66848C3.0697 7.41506 1.22127 8.53002 0.614195 10.2659C0.453287 10.726 0.404225 11.1173 0.404225 11.9402C0.404225 12.6975 0.40462 12.701 0.514416 12.906C0.594633 13.0558 0.676941 13.1434 0.816908 13.2278L1.00921 13.3438L3.00905 13.3548L5.00884 13.3657L5.03444 13.5218C5.07112 13.7456 5.18541 13.943 5.37495 14.11C5.70982 14.4052 5.28527 14.3826 10.5004 14.3826C15.7156 14.3826 15.291 14.4052 15.6259 14.11C15.8503 13.9123 15.9508 13.7053 15.9737 13.3939L15.9926 13.1361L17.9693 13.1242C19.3744 13.1158 19.976 13.0993 20.05 13.0671C20.2224 12.9922 20.4468 12.7769 20.5231 12.6132C20.5846 12.481 20.595 12.3509 20.5958 11.7041C20.5967 10.8861 20.5478 10.4955 20.3866 10.0351C19.9756 8.86116 19.0235 7.9523 17.8153 7.58069C16.725 7.24535 15.4499 7.39428 14.5064 7.96715L14.3138 8.08411L14.0696 7.88197C12.9519 6.95703 11.4333 6.48196 10.0272 6.61735ZM11.3136 7.30449C13.2843 7.63486 14.8317 9.08673 15.2362 10.985C15.3054 11.3097 15.3238 11.5546 15.3374 12.3346C15.3554 13.3724 15.334 13.5411 15.1676 13.6688C15.0651 13.7474 15.0446 13.7478 10.5004 13.7478C5.98415 13.7478 5.93517 13.747 5.83515 13.6702C5.66588 13.5403 5.6496 13.4155 5.6645 12.3627C5.67614 11.5406 5.69219 11.3174 5.76377 10.985C6.16971 9.09954 7.70607 7.64667 9.6525 7.30764C10.0781 7.2335 10.8811 7.232 11.3136 7.30449ZM17.4393 8.13474C18.614 8.42676 19.5451 9.339 19.8467 10.4933C19.9138 10.75 19.9262 10.9218 19.9262 11.5917C19.9262 12.1581 19.9126 12.3991 19.8789 12.432C19.8434 12.4666 19.3525 12.4782 17.9127 12.4782H15.9938L15.9706 11.8145C15.9369 10.8525 15.7846 10.2624 15.366 9.47166C15.2639 9.27883 15.087 8.99412 14.9728 8.83892L14.7653 8.5568L14.8946 8.47885C15.5871 8.0613 16.5954 7.92499 17.4393 8.13474ZM5.22358 8.37686C5.55692 8.45934 6.08334 8.67537 6.08334 8.72966C6.08334 8.74112 6.01038 8.85531 5.92117 8.98343C5.68872 9.31734 5.35495 10.0165 5.23542 10.4198C5.08224 10.9366 5.01898 11.4279 5.01874 12.103L5.01851 12.709H3.09084C1.44453 12.709 1.1562 12.7008 1.11518 12.6526C1.07941 12.6105 1.0714 12.3724 1.08383 11.7196C1.09873 10.9371 1.11021 10.8141 1.19074 10.5737C1.57479 9.42733 2.50727 8.59692 3.69732 8.34146C4.10334 8.25432 4.79304 8.27032 5.22358 8.37686Z" stroke="#777E91" stroke-width="0.8" mask="url(#path-1-outside-1_0_25)"/>
</svg>
