<svg width="32" height="32" viewBox="0 0 32 32" fill="none" xmlns="http://www.w3.org/2000/svg">
<path fill-rule="evenodd" clip-rule="evenodd" d="M16.8886 8.81995C16.3823 9.27304 15.6164 9.27304 15.1101 8.81995L14.2209 8.02408C13.2756 7.17798 12.0337 6.66667 10.666 6.66667C7.7205 6.66667 5.33268 9.05448 5.33268 12C5.33268 16.138 7.9187 19.4542 10.9985 21.9179C12.503 23.1214 14.0219 24.0344 15.1709 24.6471C15.6889 24.9234 16.3097 24.9234 16.8278 24.6471C17.9767 24.0343 19.4957 23.1214 21.0002 21.9178C24.08 19.454 26.666 16.1383 26.666 12.0002C26.666 9.05469 24.2782 6.66667 21.3327 6.66667C19.965 6.66667 18.7231 7.17798 17.7778 8.02408L16.8886 8.81995ZM15.9994 6.03705C14.584 4.77028 12.715 4 10.666 4C6.24774 4 2.66602 7.58172 2.66602 12C2.66602 20.9085 11.9661 26.0969 15.032 27.5653C15.6496 27.8611 16.3491 27.8611 16.9667 27.5653C20.0326 26.097 29.3327 20.9087 29.3327 12.0002C29.3327 7.58193 25.751 4 21.3327 4C19.2837 4 17.4147 4.77028 15.9994 6.03705Z" fill="#FCFCFD"/>
</svg>
