<svg width="15" height="15" viewBox="0 0 15 15" fill="none" xmlns="http://www.w3.org/2000/svg">
<path d="M14.3779 0.163204C14.47 0.175928 14.6563 0.591128 14.6626 0.797642C14.6665 0.924105 14.5993 1.39582 14.5554 1.5511C14.4758 1.83238 14.3967 2.05609 14.3684 2.07947C14.3529 2.09229 14.3368 2.129 14.3326 2.16105C14.3253 2.21667 14.2113 2.46382 14.1284 2.60375C14.1069 2.64002 14.0687 2.70536 14.0434 2.74895C13.9633 2.88698 13.7381 3.21731 13.6698 3.29693C13.6337 3.33909 13.5844 3.40618 13.5605 3.44604C13.5364 3.48591 13.507 3.51721 13.495 3.51563C13.483 3.51406 13.4714 3.52585 13.4694 3.54184C13.465 3.57493 13.3278 3.73042 13.2941 3.74039C13.2819 3.74402 13.2703 3.75905 13.2684 3.77383C13.2664 3.78859 13.1947 3.87262 13.1089 3.96052C13.0231 4.04845 12.9304 4.14602 12.9028 4.17734C12.8752 4.2087 12.8378 4.2468 12.8197 4.26208C12.8015 4.27732 12.7502 4.32978 12.7057 4.37866C12.6096 4.48414 12.6012 4.49237 12.4774 4.60457C12.4247 4.65238 12.3803 4.69898 12.3789 4.70811C12.3774 4.71725 12.3473 4.75168 12.3121 4.78464C12.2082 4.8816 12.2029 4.88671 12.0205 5.07057C11.9244 5.16741 11.8343 5.2494 11.8202 5.25275C11.8061 5.25613 11.793 5.27029 11.7912 5.28426C11.787 5.31606 11.5602 5.54697 11.525 5.55518C11.5108 5.55854 11.4976 5.57217 11.4959 5.58547C11.4941 5.5988 11.4477 5.66064 11.3926 5.72293C11.2885 5.84069 11.2625 5.91814 11.2975 6.00664C11.3089 6.03528 11.3367 6.12508 11.3593 6.20622C11.382 6.28736 11.4689 6.55459 11.5525 6.80007C11.6362 7.04555 11.7025 7.26213 11.7 7.28133C11.6975 7.30055 11.708 7.31791 11.7233 7.31992C11.7387 7.32194 11.7496 7.33669 11.7475 7.3527C11.7454 7.36872 11.7697 7.46463 11.8014 7.56587C11.9143 7.92519 11.9432 8.02821 11.9394 8.05733C11.9372 8.07354 11.9471 8.08833 11.9612 8.09019C11.9754 8.09204 11.9903 8.13237 11.9944 8.17981C11.9984 8.22725 12.0134 8.26758 12.0275 8.26943C12.0417 8.27129 12.0515 8.28636 12.0493 8.30293C12.0471 8.31951 12.076 8.42884 12.1135 8.54587C12.151 8.66292 12.2059 8.8386 12.2354 8.93628C12.265 9.03396 12.307 9.16457 12.3287 9.22655C12.3505 9.2885 12.3659 9.35768 12.3629 9.38026C12.3599 9.40284 12.3691 9.42283 12.3833 9.42469C12.3974 9.42654 12.4123 9.46688 12.4164 9.51431C12.4205 9.56175 12.4354 9.60208 12.4495 9.60394C12.4637 9.60579 12.4735 9.62086 12.4713 9.63744C12.4691 9.65401 12.5002 9.77002 12.5404 9.89522L12.6993 10.39C12.8228 10.7737 12.8499 10.8691 12.8454 10.9038C12.8432 10.9207 12.854 10.9361 12.8693 10.9381C12.8847 10.9402 12.8953 10.9576 12.8928 10.9768C12.8878 11.0164 13.0224 11.405 13.0657 11.4756C13.0813 11.5011 13.1084 11.5686 13.1258 11.6256C13.1433 11.6826 13.1699 11.768 13.1849 11.8153C13.2222 11.9331 13.1443 12.527 13.0779 12.6312L12.9712 12.7992C12.7964 13.0749 12.3376 13.4548 12.1534 13.4761C12.1134 13.4808 12.0792 13.4958 12.0774 13.5095C12.0722 13.5492 11.8381 13.5075 11.7406 13.4495C11.6358 13.3872 11.5162 13.2461 11.3867 13.0321C11.3353 12.9473 11.2825 12.862 11.2694 12.8426C11.2563 12.8232 11.2305 12.7768 11.2119 12.7393C11.1821 12.6793 11.1226 12.5711 11.0685 12.4787C11.0586 12.4618 11.0189 12.399 10.9802 12.3392C10.9416 12.2794 10.9109 12.222 10.912 12.2115C10.9131 12.201 10.8975 12.1709 10.8772 12.1445C10.8135 12.0616 10.679 11.8172 10.6825 11.7907C10.6843 11.7767 10.6752 11.7596 10.6623 11.7527C10.6366 11.739 10.4704 11.4571 10.4736 11.4326C10.4746 11.4243 10.4507 11.3861 10.4203 11.3477C10.3899 11.3093 10.3371 11.222 10.303 11.1537C10.2689 11.0853 10.2224 11.0024 10.1997 10.9693C10.1204 10.8536 9.98298 10.6212 9.98497 10.606C9.98607 10.5976 9.95729 10.5487 9.92104 10.4973C9.88479 10.446 9.84468 10.386 9.83191 10.3639C9.81917 10.3418 9.77855 10.275 9.74167 10.2155L9.58924 9.96893C9.45101 9.74508 8.97846 9.14892 8.9347 9.14319C8.92002 9.14126 8.7223 8.93717 8.62677 8.82535C8.5264 8.70784 8.47394 8.69727 8.38655 8.77692C8.34369 8.81596 8.2709 8.88135 8.22475 8.9222C8.17863 8.96306 8.06751 9.07002 7.97781 9.15988C7.88811 9.24975 7.80612 9.32854 7.79561 9.33498C7.78508 9.34142 7.71816 9.403 7.64694 9.47184C7.57569 9.54067 7.50272 9.60945 7.48478 9.62466C7.46681 9.63987 7.39385 9.70661 7.32261 9.77294C7.25138 9.8393 7.14139 9.93842 7.07821 9.99324C7.01502 10.048 6.92097 10.1313 6.86919 10.1782C6.81741 10.2252 6.58978 10.4083 6.36334 10.5852C6.04978 10.8302 5.92236 10.9494 5.82878 11.0851C5.71351 11.2523 5.7038 11.2798 5.67172 11.5293C5.65289 11.6755 5.64685 11.8348 5.65824 11.8832C5.66966 11.9316 5.69452 12.0692 5.71348 12.1889C5.73246 12.3087 5.75576 12.4333 5.76525 12.4658C5.77478 12.4983 5.78726 12.5831 5.793 12.6542C5.79875 12.7253 5.81317 12.8679 5.82503 12.9711C5.83692 13.0742 5.85302 13.2426 5.86085 13.3453C5.88374 13.6449 5.9 13.8121 5.91763 13.9283C5.9297 14.0078 5.92162 14.0648 5.88755 14.1408C5.86196 14.198 5.83781 14.269 5.83391 14.2987C5.82653 14.355 5.62048 14.6687 5.54454 14.7393C5.11633 15.1372 4.66972 15.0761 4.41072 14.5841C4.38257 14.5306 4.36109 14.4748 4.36302 14.4601C4.36495 14.4454 4.35766 14.4279 4.34679 14.4213C4.31797 14.4037 4.22421 14.2179 4.22832 14.1866C4.23025 14.1719 4.22295 14.1544 4.21209 14.1478C4.18211 14.1295 4.08958 13.9438 4.09392 13.9107C4.09601 13.8948 4.08476 13.88 4.06892 13.8779C4.05304 13.8758 4.03458 13.851 4.02782 13.8228C4.02109 13.7945 4.00709 13.7575 3.99676 13.7405C3.98642 13.7235 3.90894 13.5857 3.82455 13.4343C3.64404 13.1104 3.2305 12.5617 2.98122 12.3154C2.88433 12.2197 2.79998 12.1313 2.79378 12.119C2.78757 12.1067 2.75534 12.0841 2.72219 12.0688C2.68903 12.0534 2.66342 12.0292 2.6653 12.0149C2.66718 12.0005 2.65047 11.9864 2.62819 11.9835C2.60589 11.9805 2.57967 11.9611 2.56989 11.9403C2.55073 11.8995 2.49138 11.8544 2.14848 11.6204C1.78014 11.369 1.56625 11.2529 1.08699 11.044C0.97607 10.9956 0.867336 10.9432 0.845353 10.9274C0.823343 10.9117 0.753634 10.8829 0.690423 10.8635C0.627188 10.8441 0.569894 10.8158 0.563042 10.8006C0.556218 10.7855 0.52553 10.7698 0.494845 10.7657C0.335776 10.7449 0.0819352 10.5098 0.0155007 10.3218C-0.0219187 10.2158 0.0160887 9.89489 0.071121 9.85261C0.0925208 9.83617 0.112242 9.80587 0.114941 9.78527C0.129478 9.67438 0.493448 9.38271 0.734318 9.28893C0.885982 9.22987 0.955962 9.22102 1.18236 9.23222C1.32993 9.23952 1.59066 9.25098 1.76175 9.25772C1.93285 9.26443 2.33464 9.30359 2.65464 9.34475C3.25358 9.42178 3.38224 9.42045 3.63926 9.33464C3.73941 9.30118 4.01581 9.1079 4.06062 9.03998C4.07339 9.02062 4.11283 8.97018 4.14822 8.92792C4.18363 8.88566 4.25712 8.78656 4.31151 8.7077C4.36591 8.62885 4.4177 8.55888 4.42656 8.55223C4.43542 8.54557 4.48131 8.48123 4.52856 8.40925C4.57583 8.33728 4.62259 8.27305 4.63252 8.26654C4.66346 8.24623 4.73521 8.15555 4.78028 8.07982C4.80398 8.03991 4.83322 8.00858 4.84521 8.01016C4.85723 8.01173 4.86875 7.99994 4.87085 7.98395C4.87445 7.95645 5.00204 7.80544 5.04295 7.78024C5.05343 7.7738 5.07451 7.74137 5.08986 7.70822C5.10518 7.67506 5.12943 7.64944 5.14376 7.65132C5.1581 7.6532 5.17136 7.64309 5.17323 7.62886C5.1751 7.61461 5.40083 7.34678 5.67485 7.03371L6.17311 6.46444L6.09876 6.40216C6.05788 6.36789 6.02592 6.32854 6.02773 6.31468C6.02955 6.30082 6.01729 6.28767 6.00052 6.28547C5.98372 6.28327 5.94405 6.25567 5.91233 6.22416C5.88065 6.19266 5.82902 6.14431 5.79764 6.11674C5.76626 6.08918 5.72815 6.05163 5.7129 6.03332C5.69768 6.01498 5.60991 5.94031 5.51785 5.86735C5.42579 5.7944 5.34524 5.72465 5.33889 5.71237C5.33251 5.7001 5.294 5.67689 5.25327 5.6608C5.21254 5.64472 5.18055 5.62134 5.18219 5.60885C5.18383 5.59636 5.14853 5.57291 5.10374 5.55675C5.05896 5.54059 5.02383 5.51577 5.02569 5.50163C5.02755 5.48746 5.01179 5.47363 4.99069 5.47086C4.96959 5.4681 4.89444 5.43161 4.82366 5.38979C4.7529 5.34796 4.65339 5.28952 4.60255 5.25994C4.55171 5.23034 4.48986 5.1913 4.46508 5.17319C4.44031 5.15505 4.40659 5.13846 4.39018 5.13631C4.37375 5.13415 4.30878 5.10025 4.24579 5.06096C4.18281 5.02163 4.06383 4.95865 3.98144 4.92096C3.89903 4.88326 3.83292 4.84242 3.83452 4.8302C3.83612 4.81799 3.81542 4.80504 3.78855 4.80144C3.76168 4.7978 3.70611 4.77133 3.6651 4.74261C3.62407 4.71387 3.57624 4.68841 3.55881 4.68604C3.54136 4.68364 3.49566 4.65968 3.45724 4.63276C3.41884 4.60584 3.34687 4.56931 3.29732 4.55156C3.2478 4.53381 3.202 4.51061 3.19558 4.49999C3.18205 4.47766 2.80541 4.28221 2.65661 4.22029C2.601 4.19717 2.55698 4.16718 2.55875 4.15368C2.56052 4.14018 2.53367 4.12535 2.49911 4.12073C2.46455 4.11609 2.40269 4.08879 2.36169 4.06008C2.32065 4.03134 2.27282 4.00588 2.2554 4.00351C2.23794 4.00111 2.19225 3.97715 2.15382 3.95023C2.11542 3.9233 2.04668 3.8878 2.00105 3.87133C1.95543 3.85486 1.91245 3.82884 1.90553 3.81349C1.89865 3.79815 1.87177 3.78241 1.84585 3.77847C1.81993 3.77453 1.7516 3.74044 1.69401 3.70268C1.63643 3.66491 1.57363 3.63155 1.5545 3.6285C1.53534 3.62545 1.52134 3.6104 1.52336 3.59503C1.52537 3.57966 1.50639 3.56438 1.48116 3.56107C1.45592 3.55776 1.38786 3.49148 1.32991 3.41375C1.21969 3.26596 1.21363 3.22588 1.26203 2.96382C1.28515 2.83859 1.51398 2.45675 1.56213 2.46306C1.57529 2.46479 1.58819 2.4499 1.5908 2.42995C1.59677 2.38443 1.67089 2.30909 1.85316 2.16334C2.04414 2.01062 2.31975 1.88015 2.42282 1.89366C2.45054 1.89729 2.49024 1.8872 2.51103 1.87122C2.56012 1.83351 3.08322 1.90055 3.16533 1.95506C3.25602 2.0153 3.68017 2.14367 4.36288 2.31759C4.49148 2.35034 4.65167 2.3969 4.71886 2.42105C4.83847 2.46405 5.07349 2.52763 5.54243 2.64391C5.67114 2.67585 5.8189 2.71961 5.87079 2.74119C5.92269 2.76278 6.08278 2.81009 6.22656 2.8463C6.47721 2.90946 6.74311 2.9823 7.33792 3.15069C7.48867 3.19336 7.71094 3.25425 7.83185 3.28599C7.95277 3.31773 8.08164 3.35922 8.11824 3.3782C8.15484 3.39718 8.29237 3.43508 8.4239 3.46244C8.55539 3.4898 8.70409 3.52729 8.75435 3.54576C8.81092 3.56653 8.86079 3.56949 8.88526 3.55351C9.02682 3.46114 9.23421 3.27334 9.2648 3.20984C9.27718 3.18412 9.29904 3.16458 9.31338 3.16646C9.32772 3.16834 9.34198 3.15063 9.34506 3.1271C9.34815 3.10354 9.37049 3.07952 9.3947 3.07371C9.41892 3.06787 9.44012 3.05246 9.44183 3.03944C9.44354 3.02641 9.51528 2.94275 9.60123 2.8535C9.68717 2.76428 9.78008 2.66557 9.80765 2.63416C9.83521 2.60275 9.87563 2.56268 9.89749 2.54514C9.91932 2.52759 9.93806 2.50668 9.93911 2.49872C9.94063 2.48712 10.2851 2.11987 10.3932 2.01462C10.4573 1.95221 10.5534 1.85196 10.5992 1.79981C10.6268 1.76843 10.6641 1.73028 10.682 1.71498C10.7 1.69971 10.7481 1.65322 10.7888 1.61166C10.9737 1.42323 11.0147 1.38455 11.1115 1.30728C11.1683 1.26201 11.2157 1.21774 11.2168 1.20888C11.2235 1.1576 11.9864 0.622644 12.2194 0.505802C12.2565 0.487212 12.3028 0.460723 12.3222 0.446957C12.3817 0.404753 12.7255 0.259453 12.7563 0.263486C12.7722 0.265574 12.7907 0.257826 12.7975 0.246288C12.8148 0.216602 13.0568 0.132323 13.1062 0.138796C13.1288 0.141756 13.1488 0.132161 13.1507 0.11749C13.1527 0.102818 13.2014 0.0882232 13.2589 0.0850546C13.3165 0.081858 13.3985 0.0665364 13.4411 0.0509405C13.4837 0.0353727 13.5506 0.0267752 13.5898 0.0318031C13.629 0.036859 13.6774 0.0284264 13.6974 0.0130519C13.7543 -0.0306812 14.1814 0.0364196 14.2754 0.10385C14.3182 0.134627 14.3644 0.161315 14.3779 0.163204Z" fill="#353945"/>
</svg>
