<svg width="24" height="18" viewBox="0 0 24 18" fill="none" xmlns="http://www.w3.org/2000/svg">
<mask id="path-1-outside-1_2059_14175" maskUnits="userSpaceOnUse" x="-0.816958" y="-0.817955" width="25.5362" height="18.386" fill="black">
<rect fill="white" x="-0.816958" y="-0.817955" width="25.5362" height="18.386"/>
<path fill-rule="evenodd" clip-rule="evenodd" d="M7.75587 0.26274C7.31334 0.346137 6.72661 0.67137 6.27946 1.08122C5.51683 1.78014 5.34783 1.83373 3.90557 1.83373C2.90299 1.83373 2.89679 1.83439 2.77273 1.9588L2.64795 2.08382V4.8372C2.64795 7.45786 2.64353 7.59052 2.55616 7.59052C2.37202 7.59052 1.82992 7.80765 1.53173 8.00083C0.970473 8.36443 0.625524 8.79858 0.364842 9.46938L0.233764 9.80663L0.204489 17.0671L0.457852 17.321H18.6625L18.7872 17.196C18.9523 17.0305 18.9523 16.7964 18.7872 16.631L18.6625 16.5059H1.02155V13.2454H2.11658C3.2115 13.2454 3.21165 13.2454 3.33638 13.1204C3.50146 12.9549 3.50146 12.7208 3.33638 12.5554L3.21165 12.4303H1.01373L1.04696 9.90852L1.20783 9.56821C1.43166 9.09457 1.71979 8.7996 2.1824 8.57045L2.56643 8.38017H21.4331L21.8171 8.57045C22.2797 8.7996 22.5679 9.09457 22.7917 9.56821L22.9526 9.90852L22.9858 12.4303H5.33706L5.21233 12.5554C5.04725 12.7208 5.04725 12.9549 5.21233 13.1204L5.33706 13.2454H22.978V16.5059H21.8829C20.788 16.5059 20.7879 16.5059 20.6631 16.631C20.4981 16.7964 20.4981 17.0305 20.6631 17.196L20.7879 17.321H23.5417L23.795 17.0671L23.7658 9.80663L23.6347 9.46938C23.4419 8.97312 23.2719 8.70927 22.9204 8.36025C22.572 8.01418 22.0788 7.73745 21.6319 7.63719L21.3516 7.57432V4.83704C21.3516 2.21918 21.3474 2.09452 21.2545 1.97949C21.1589 1.86089 21.1411 1.85885 19.9966 1.83373L18.8357 1.80826L18.4961 1.64697C18.2773 1.54309 18.0142 1.3524 17.7569 1.11113C17.5251 0.893848 17.2037 0.655679 16.9914 0.543855C16.3679 0.215463 16.2578 0.205376 13.2808 0.204357L10.6229 0.203491L10.4981 0.328561C10.4195 0.407373 10.3734 0.511811 10.3734 0.611052C10.3734 0.710293 10.4195 0.81473 10.4981 0.893542L10.6229 1.01861H13.2574C16.5503 1.01861 16.4202 0.994107 17.2602 1.77178C17.721 2.19845 18.2888 2.50544 18.7816 2.59439C18.9474 2.62435 19.4106 2.64885 19.8108 2.64885H20.5384V7.53958H18.9222L18.8866 5.82742L18.6967 5.44253C18.4681 4.97898 18.1737 4.69012 17.7013 4.46581L17.3618 4.30457H13.1433L12.8074 4.46408C12.6227 4.5518 12.3654 4.72558 12.2356 4.85019L11.9998 5.07674L11.7639 4.85019C11.6341 4.72558 11.3768 4.5518 11.1921 4.46408L10.8562 4.30457H6.63772L6.29821 4.46581C5.82579 4.69012 5.53141 4.97898 5.3028 5.44253L5.11297 5.82742L5.07729 7.53958H3.46115V2.64885L4.21082 2.64799C4.66413 2.64743 5.09625 2.61824 5.30392 2.57412C5.79128 2.4706 6.29145 2.18811 6.77108 1.74539C7.27115 1.28383 7.66901 1.08097 8.16542 1.03451C8.43322 1.00944 8.54117 0.974799 8.63057 0.885187C8.78716 0.728225 8.7836 0.490312 8.62218 0.328561C8.48435 0.190348 8.23912 0.171702 7.75587 0.26274ZM10.7487 5.15616C11.0278 5.23885 11.4489 5.66088 11.5314 5.94072C11.5666 6.06039 11.5932 6.44854 11.5932 6.84499V7.53958H5.90076V6.84499C5.90076 6.44854 5.92729 6.06039 5.96256 5.94072C6.03905 5.6812 6.46451 5.23961 6.71396 5.1608C6.97479 5.07842 10.4725 5.0744 10.7487 5.15616ZM17.2543 5.15616C17.5334 5.23885 17.9545 5.66088 18.037 5.94072C18.0722 6.06039 18.0988 6.44854 18.0988 6.84499V7.53958H12.4064V6.84499C12.4064 6.44854 12.4329 6.06039 12.4682 5.94072C12.5447 5.6812 12.9701 5.23961 13.2196 5.1608C13.4804 5.07842 16.9781 5.0744 17.2543 5.15616Z"/>
<path d="M10.6332 0.203491H8.25979L8.40363 0.994638H10.6332V0.203491Z"/>
<path d="M5.81443 12.4303H3.08138V13.2215H5.45482L5.81443 12.4303Z"/>
<path d="M18.0413 16.458H21.2058V17.321H18.0413V16.458Z"/>
</mask>
<path fill-rule="evenodd" clip-rule="evenodd" d="M7.75587 0.26274C7.31334 0.346137 6.72661 0.67137 6.27946 1.08122C5.51683 1.78014 5.34783 1.83373 3.90557 1.83373C2.90299 1.83373 2.89679 1.83439 2.77273 1.9588L2.64795 2.08382V4.8372C2.64795 7.45786 2.64353 7.59052 2.55616 7.59052C2.37202 7.59052 1.82992 7.80765 1.53173 8.00083C0.970473 8.36443 0.625524 8.79858 0.364842 9.46938L0.233764 9.80663L0.204489 17.0671L0.457852 17.321H18.6625L18.7872 17.196C18.9523 17.0305 18.9523 16.7964 18.7872 16.631L18.6625 16.5059H1.02155V13.2454H2.11658C3.2115 13.2454 3.21165 13.2454 3.33638 13.1204C3.50146 12.9549 3.50146 12.7208 3.33638 12.5554L3.21165 12.4303H1.01373L1.04696 9.90852L1.20783 9.56821C1.43166 9.09457 1.71979 8.7996 2.1824 8.57045L2.56643 8.38017H21.4331L21.8171 8.57045C22.2797 8.7996 22.5679 9.09457 22.7917 9.56821L22.9526 9.90852L22.9858 12.4303H5.33706L5.21233 12.5554C5.04725 12.7208 5.04725 12.9549 5.21233 13.1204L5.33706 13.2454H22.978V16.5059H21.8829C20.788 16.5059 20.7879 16.5059 20.6631 16.631C20.4981 16.7964 20.4981 17.0305 20.6631 17.196L20.7879 17.321H23.5417L23.795 17.0671L23.7658 9.80663L23.6347 9.46938C23.4419 8.97312 23.2719 8.70927 22.9204 8.36025C22.572 8.01418 22.0788 7.73745 21.6319 7.63719L21.3516 7.57432V4.83704C21.3516 2.21918 21.3474 2.09452 21.2545 1.97949C21.1589 1.86089 21.1411 1.85885 19.9966 1.83373L18.8357 1.80826L18.4961 1.64697C18.2773 1.54309 18.0142 1.3524 17.7569 1.11113C17.5251 0.893848 17.2037 0.655679 16.9914 0.543855C16.3679 0.215463 16.2578 0.205376 13.2808 0.204357L10.6229 0.203491L10.4981 0.328561C10.4195 0.407373 10.3734 0.511811 10.3734 0.611052C10.3734 0.710293 10.4195 0.81473 10.4981 0.893542L10.6229 1.01861H13.2574C16.5503 1.01861 16.4202 0.994107 17.2602 1.77178C17.721 2.19845 18.2888 2.50544 18.7816 2.59439C18.9474 2.62435 19.4106 2.64885 19.8108 2.64885H20.5384V7.53958H18.9222L18.8866 5.82742L18.6967 5.44253C18.4681 4.97898 18.1737 4.69012 17.7013 4.46581L17.3618 4.30457H13.1433L12.8074 4.46408C12.6227 4.5518 12.3654 4.72558 12.2356 4.85019L11.9998 5.07674L11.7639 4.85019C11.6341 4.72558 11.3768 4.5518 11.1921 4.46408L10.8562 4.30457H6.63772L6.29821 4.46581C5.82579 4.69012 5.53141 4.97898 5.3028 5.44253L5.11297 5.82742L5.07729 7.53958H3.46115V2.64885L4.21082 2.64799C4.66413 2.64743 5.09625 2.61824 5.30392 2.57412C5.79128 2.4706 6.29145 2.18811 6.77108 1.74539C7.27115 1.28383 7.66901 1.08097 8.16542 1.03451C8.43322 1.00944 8.54117 0.974799 8.63057 0.885187C8.78716 0.728225 8.7836 0.490312 8.62218 0.328561C8.48435 0.190348 8.23912 0.171702 7.75587 0.26274ZM10.7487 5.15616C11.0278 5.23885 11.4489 5.66088 11.5314 5.94072C11.5666 6.06039 11.5932 6.44854 11.5932 6.84499V7.53958H5.90076V6.84499C5.90076 6.44854 5.92729 6.06039 5.96256 5.94072C6.03905 5.6812 6.46451 5.23961 6.71396 5.1608C6.97479 5.07842 10.4725 5.0744 10.7487 5.15616ZM17.2543 5.15616C17.5334 5.23885 17.9545 5.66088 18.037 5.94072C18.0722 6.06039 18.0988 6.44854 18.0988 6.84499V7.53958H12.4064V6.84499C12.4064 6.44854 12.4329 6.06039 12.4682 5.94072C12.5447 5.6812 12.9701 5.23961 13.2196 5.1608C13.4804 5.07842 16.9781 5.0744 17.2543 5.15616Z" fill="#3B71FE"/>
<path d="M10.6332 0.203491H8.25979L8.40363 0.994638H10.6332V0.203491Z" fill="#3B71FE"/>
<path d="M5.81443 12.4303H3.08138V13.2215H5.45482L5.81443 12.4303Z" fill="#3B71FE"/>
<path d="M18.0413 16.458H21.2058V17.321H18.0413V16.458Z" fill="#3B71FE"/>
<path fill-rule="evenodd" clip-rule="evenodd" d="M7.75587 0.26274C7.31334 0.346137 6.72661 0.67137 6.27946 1.08122C5.51683 1.78014 5.34783 1.83373 3.90557 1.83373C2.90299 1.83373 2.89679 1.83439 2.77273 1.9588L2.64795 2.08382V4.8372C2.64795 7.45786 2.64353 7.59052 2.55616 7.59052C2.37202 7.59052 1.82992 7.80765 1.53173 8.00083C0.970473 8.36443 0.625524 8.79858 0.364842 9.46938L0.233764 9.80663L0.204489 17.0671L0.457852 17.321H18.6625L18.7872 17.196C18.9523 17.0305 18.9523 16.7964 18.7872 16.631L18.6625 16.5059H1.02155V13.2454H2.11658C3.2115 13.2454 3.21165 13.2454 3.33638 13.1204C3.50146 12.9549 3.50146 12.7208 3.33638 12.5554L3.21165 12.4303H1.01373L1.04696 9.90852L1.20783 9.56821C1.43166 9.09457 1.71979 8.7996 2.1824 8.57045L2.56643 8.38017H21.4331L21.8171 8.57045C22.2797 8.7996 22.5679 9.09457 22.7917 9.56821L22.9526 9.90852L22.9858 12.4303H5.33706L5.21233 12.5554C5.04725 12.7208 5.04725 12.9549 5.21233 13.1204L5.33706 13.2454H22.978V16.5059H21.8829C20.788 16.5059 20.7879 16.5059 20.6631 16.631C20.4981 16.7964 20.4981 17.0305 20.6631 17.196L20.7879 17.321H23.5417L23.795 17.0671L23.7658 9.80663L23.6347 9.46938C23.4419 8.97312 23.2719 8.70927 22.9204 8.36025C22.572 8.01418 22.0788 7.73745 21.6319 7.63719L21.3516 7.57432V4.83704C21.3516 2.21918 21.3474 2.09452 21.2545 1.97949C21.1589 1.86089 21.1411 1.85885 19.9966 1.83373L18.8357 1.80826L18.4961 1.64697C18.2773 1.54309 18.0142 1.3524 17.7569 1.11113C17.5251 0.893848 17.2037 0.655679 16.9914 0.543855C16.3679 0.215463 16.2578 0.205376 13.2808 0.204357L10.6229 0.203491L10.4981 0.328561C10.4195 0.407373 10.3734 0.511811 10.3734 0.611052C10.3734 0.710293 10.4195 0.81473 10.4981 0.893542L10.6229 1.01861H13.2574C16.5503 1.01861 16.4202 0.994107 17.2602 1.77178C17.721 2.19845 18.2888 2.50544 18.7816 2.59439C18.9474 2.62435 19.4106 2.64885 19.8108 2.64885H20.5384V7.53958H18.9222L18.8866 5.82742L18.6967 5.44253C18.4681 4.97898 18.1737 4.69012 17.7013 4.46581L17.3618 4.30457H13.1433L12.8074 4.46408C12.6227 4.5518 12.3654 4.72558 12.2356 4.85019L11.9998 5.07674L11.7639 4.85019C11.6341 4.72558 11.3768 4.5518 11.1921 4.46408L10.8562 4.30457H6.63772L6.29821 4.46581C5.82579 4.69012 5.53141 4.97898 5.3028 5.44253L5.11297 5.82742L5.07729 7.53958H3.46115V2.64885L4.21082 2.64799C4.66413 2.64743 5.09625 2.61824 5.30392 2.57412C5.79128 2.4706 6.29145 2.18811 6.77108 1.74539C7.27115 1.28383 7.66901 1.08097 8.16542 1.03451C8.43322 1.00944 8.54117 0.974799 8.63057 0.885187C8.78716 0.728225 8.7836 0.490312 8.62218 0.328561C8.48435 0.190348 8.23912 0.171702 7.75587 0.26274ZM10.7487 5.15616C11.0278 5.23885 11.4489 5.66088 11.5314 5.94072C11.5666 6.06039 11.5932 6.44854 11.5932 6.84499V7.53958H5.90076V6.84499C5.90076 6.44854 5.92729 6.06039 5.96256 5.94072C6.03905 5.6812 6.46451 5.23961 6.71396 5.1608C6.97479 5.07842 10.4725 5.0744 10.7487 5.15616ZM17.2543 5.15616C17.5334 5.23885 17.9545 5.66088 18.037 5.94072C18.0722 6.06039 18.0988 6.44854 18.0988 6.84499V7.53958H12.4064V6.84499C12.4064 6.44854 12.4329 6.06039 12.4682 5.94072C12.5447 5.6812 12.9701 5.23961 13.2196 5.1608C13.4804 5.07842 16.9781 5.0744 17.2543 5.15616Z" stroke="#3B71FE" stroke-width="0.4" mask="url(#path-1-outside-1_2059_14175)"/>
<path d="M10.6332 0.203491H8.25979L8.40363 0.994638H10.6332V0.203491Z" stroke="#3B71FE" stroke-width="0.4" mask="url(#path-1-outside-1_2059_14175)"/>
<path d="M5.81443 12.4303H3.08138V13.2215H5.45482L5.81443 12.4303Z" stroke="#3B71FE" stroke-width="0.4" mask="url(#path-1-outside-1_2059_14175)"/>
<path d="M18.0413 16.458H21.2058V17.321H18.0413V16.458Z" stroke="#3B71FE" stroke-width="0.4" mask="url(#path-1-outside-1_2059_14175)"/>
</svg>
