<svg width="20" height="17" viewBox="0 0 20 17" fill="none" xmlns="http://www.w3.org/2000/svg">
<path d="M0.405953 2.98222L0.405951 2.98222L0.355674 13.42L0.217321 13.4554C0.217322 13.4554 0.217323 13.4554 0.217325 13.4554C0.657151 15.1732 2.12751 16.4236 4.10128 16.7953C4.26702 16.8266 4.42608 16.8414 5.17656 16.8492C5.92982 16.8571 7.28882 16.8578 9.86262 16.8578C12.4364 16.8578 13.7954 16.8571 14.5487 16.8492C15.2992 16.8414 15.4582 16.8266 15.624 16.7953C17.5988 16.4234 19.0678 15.1741 19.5079 13.4554C19.546 13.3065 19.5632 13.1641 19.5723 12.5212C19.5815 11.8747 19.5824 10.7087 19.5824 8.50151C19.5824 6.29436 19.5815 5.12833 19.5723 4.48183C19.5632 3.83895 19.546 3.69647 19.5079 3.54761C19.0685 1.83152 17.6599 0.629078 15.6456 0.20702C15.5084 0.178268 15.316 0.164861 14.563 0.156766C13.8037 0.148603 12.4621 0.146153 10.0127 0.143742C8.54374 0.142295 7.19354 0.142384 6.2015 0.143694C5.70551 0.144349 5.29894 0.145309 5.01181 0.146537C4.86828 0.147151 4.75441 0.147832 4.67407 0.148576C4.59922 0.14927 4.54347 0.149999 4.52647 0.151619C2.66959 0.328633 1.04184 1.4365 0.405953 2.98222ZM18.013 14.0395L18.1366 14.1111L18.013 14.0395C17.8338 14.3486 17.6828 14.5298 17.3592 14.8192C16.7819 15.3354 16.1001 15.6458 15.2626 15.7692C15.2127 15.7766 15.0174 15.7845 14.6954 15.7914C14.3795 15.7982 13.954 15.8039 13.4549 15.8085C12.4568 15.8176 11.1662 15.8223 9.87462 15.8225C8.58302 15.8227 7.2908 15.8184 6.28945 15.8096C5.78872 15.8052 5.36111 15.7996 5.04284 15.793C4.71883 15.7862 4.51987 15.7783 4.46605 15.7708C3.64111 15.6556 2.93658 15.3327 2.34307 14.7999C2.0258 14.5151 1.90516 14.3698 1.72041 14.0549C1.53592 13.7405 1.4243 13.4481 1.36207 13.1201L1.36207 13.1201C1.35909 13.1044 1.35458 13.0564 1.34997 12.9685C1.34558 12.8846 1.34146 12.7731 1.33763 12.6373C1.32998 12.3658 1.32359 12.0004 1.31847 11.572C1.30824 10.7153 1.30312 9.60851 1.30312 8.50151C1.30312 7.39451 1.30824 6.28776 1.31847 5.43103C1.32359 5.00258 1.32998 4.63719 1.33763 4.36574C1.34146 4.22994 1.34558 4.11837 1.34997 4.03449C1.35458 3.94662 1.35909 3.8986 1.36207 3.88293L1.36207 3.88293C1.49075 3.2049 1.84627 2.6142 2.42599 2.12629C2.86621 1.75585 3.35049 1.50083 3.91591 1.34231L3.92634 1.33939C4.05959 1.30202 4.15155 1.27623 4.29599 1.25637C4.44681 1.23564 4.6568 1.22122 5.02462 1.21146C5.7497 1.19221 7.06746 1.1914 9.71037 1.18978L9.82522 1.18971C11.9893 1.18836 13.2807 1.18938 14.0668 1.19571C14.8574 1.20208 15.1279 1.21393 15.2592 1.23225L15.2789 1.09081L15.2592 1.23225C15.6488 1.28663 15.9953 1.38415 16.3656 1.54395C16.7367 1.7041 16.9077 1.80896 17.2399 2.08114C17.8613 2.59026 18.2186 3.16748 18.3615 3.88053C18.3644 3.89543 18.3692 3.94276 18.374 4.03075C18.3786 4.11449 18.3829 4.226 18.387 4.36183C18.395 4.63333 18.4017 4.99895 18.4071 5.42778C18.4178 6.28528 18.4232 7.39326 18.4232 8.50151C18.4232 9.60976 18.4178 10.7177 18.4071 11.5752C18.4017 12.0041 18.395 12.3697 18.387 12.6412C18.3829 12.777 18.3786 12.8885 18.374 12.9723C18.3692 13.0603 18.3644 13.1076 18.3615 13.1225C18.292 13.469 18.1938 13.7278 18.013 14.0395ZM4.77204 8.11575V8.25856H4.91485H5.36424H5.81358H5.9553L5.95639 8.11685L5.96621 6.84699L5.97363 5.88459L9.4697 8.8831L12.9063 11.8305H11.8023H10.3124H10.1696V11.9734V12.3591V12.7449V12.8877H10.3124H12.5614H14.8104H14.9532V12.7449V10.8161V8.88727V8.74445H14.8104H14.3606H13.9108H13.768V8.88727V10.165V11.1322L10.2741 8.13586L6.83485 5.18637L7.93297 5.18015L9.41363 5.17173L9.55563 5.17092V5.02892V4.64354V4.25813V4.11532H9.41282H7.16384H4.91485H4.77204V4.25813V6.18694V8.11575Z" fill="#3B71FE" stroke="#3B71FE" stroke-width="0.283333"/>
</svg>
