<svg width="20" height="20" viewBox="0 0 20 20" fill="none" xmlns="http://www.w3.org/2000/svg">
<path d="M0.408975 3.49327L0.408973 3.49327L0.360631 15.8155L0.219196 15.8466C0.219197 15.8466 0.219198 15.8466 0.219199 15.8466C0.660898 17.8578 2.14273 19.3394 4.15419 19.781C4.32447 19.8184 4.48777 19.8359 5.24847 19.8451C6.01239 19.8545 7.3905 19.8553 10.0001 19.8553C12.6097 19.8553 13.9878 19.8545 14.7517 19.8451C15.5124 19.8359 15.6757 19.8184 15.846 19.781C17.8586 19.3391 19.339 17.8589 19.781 15.8466C19.8184 15.6763 19.8359 15.513 19.8451 14.7524C19.8545 13.9886 19.8553 12.6107 19.8553 10.0015C19.8553 7.39226 19.8545 6.01434 19.8451 5.25053C19.8359 4.48994 19.8184 4.32666 19.781 4.15638C19.3397 2.1469 17.9204 0.722535 15.8683 0.221272C15.7266 0.186653 15.529 0.170879 14.7663 0.16132C13.9962 0.151669 12.6358 0.148773 10.1523 0.145924C8.66285 0.144213 7.2938 0.144318 6.28792 0.145867C5.785 0.146641 5.37274 0.147776 5.08157 0.149228C4.93603 0.149953 4.82052 0.150758 4.739 0.151639C4.66397 0.15245 4.60586 0.153297 4.58731 0.15536C2.69357 0.365824 1.04848 1.68097 0.408975 3.49327ZM18.2598 16.568L18.3894 16.6325L18.2597 16.568C18.0764 16.9366 17.9219 17.1525 17.5932 17.4951C17.0066 18.1066 16.3165 18.4717 15.4719 18.6168C15.4515 18.6203 15.393 18.6251 15.2903 18.6299C15.1914 18.6345 15.0598 18.6388 14.8997 18.6428C14.5796 18.6508 14.1482 18.6575 13.6422 18.6629C12.6303 18.6738 11.3218 18.6793 10.0123 18.6796C8.70271 18.6798 7.39255 18.6747 6.37734 18.6643C5.86966 18.6591 5.43621 18.6525 5.11363 18.6446C4.78432 18.6365 4.58441 18.6272 4.53155 18.6186C3.69991 18.4833 2.98682 18.1035 2.38369 17.4723C2.06144 17.135 1.93771 16.9617 1.74884 16.5864C1.56037 16.2119 1.44567 15.8622 1.38171 15.4692L1.38171 15.4692C1.37336 15.418 1.36422 15.2196 1.35629 14.8916C1.34853 14.5703 1.34204 14.1381 1.33685 13.6316C1.32648 12.6186 1.32128 11.3102 1.32128 10.0015C1.32128 8.69281 1.32648 7.38435 1.33685 6.37139C1.34204 5.86483 1.34853 5.43263 1.35629 5.11141C1.36422 4.78333 1.37336 4.58501 1.38171 4.53373L1.38171 4.53373C1.51398 3.72125 1.87896 3.01759 2.46797 2.43965C2.91515 2.00095 3.40561 1.70037 3.97639 1.51381C3.97639 1.51381 3.97639 1.51381 3.97639 1.51381L3.98661 1.51047C4.12194 1.46622 4.21405 1.43611 4.35907 1.41287C4.51069 1.38857 4.72256 1.37155 5.09529 1.36001C5.83017 1.33727 7.16608 1.33632 9.84664 1.3344L9.9622 1.33432C12.1564 1.33272 13.4658 1.33393 14.2627 1.34141C15.0649 1.34894 15.3374 1.36299 15.4686 1.38434L15.4919 1.24142L15.4686 1.38434C15.8617 1.44829 16.2114 1.56298 16.586 1.75142C16.9613 1.94026 17.1347 2.06398 17.472 2.3862C18.103 2.98904 18.4699 3.67657 18.6167 4.53046C18.6203 4.55169 18.6252 4.61096 18.6301 4.71422C18.6348 4.81376 18.6392 4.946 18.6432 5.10672C18.6514 5.42802 18.6582 5.86052 18.6636 6.36753C18.6745 7.3814 18.68 8.69132 18.68 10.0015C18.68 11.3116 18.6745 12.6216 18.6636 13.6354C18.6582 14.1424 18.6514 14.5749 18.6432 14.8962C18.6392 15.057 18.6348 15.1892 18.6301 15.2887C18.6252 15.392 18.6203 15.4513 18.6167 15.4725C18.5455 15.8869 18.4445 16.1966 18.2598 16.568ZM4.83856 9.54548V9.69029H4.98336H5.43901H5.89462H6.03847L6.03943 9.54644L6.04938 8.04536L6.05701 6.89055L9.59359 10.4268L13.1278 13.9607H11.9668H10.4562H10.3114V14.1055V14.5615V15.0175V15.1623H10.4562H12.7365H15.0168H15.1616V15.0175V12.7375V10.4575V10.3127H15.0168H14.5608H14.1047H13.9599V10.4575V11.9679V13.1288L10.4255 9.595L6.88875 6.05898L8.04369 6.05135L9.54499 6.04139L9.68884 6.04044V5.89659V5.44104V4.98546V4.84065H9.54403H7.2637H4.98336H4.83856V4.98546V7.26547V9.54548Z" fill="#3B71FE" stroke="#3B71FE" stroke-width="0.283333"/>
</svg>
