<svg width="32" height="32" viewBox="0 0 32 32" fill="none" xmlns="http://www.w3.org/2000/svg">
<path fill-rule="evenodd" clip-rule="evenodd" d="M7.21567 19.4508C7.72831 18.9382 8.09198 18.2958 8.26782 17.5925L9.06372 14.4089C9.23955 13.7056 9.60323 13.0632 10.1159 12.5506L17.9991 4.66737C20.5764 2.09004 24.7551 2.09004 27.3324 4.66737C29.9098 7.2447 29.9098 11.4234 27.3324 14.0007L19.4492 21.8839C18.9366 22.3966 18.2942 22.7603 17.5909 22.9361L14.4073 23.732C13.704 23.9078 13.0616 24.2715 12.549 24.7841L9.33244 28.0007C7.85968 29.4735 5.47186 29.4735 3.9991 28.0007C2.52634 26.5279 2.52634 24.1401 3.9991 22.6674L7.21567 19.4508ZM16.9442 20.349L13.7605 21.1449C12.5883 21.438 11.5178 22.0441 10.6634 22.8985L7.44682 26.1151C7.01545 26.5464 6.31608 26.5464 5.88472 26.1151C5.45336 25.6837 5.45336 24.9843 5.88472 24.553L9.10129 21.3364C9.95568 20.482 10.5618 19.4115 10.8549 18.2393L11.6508 15.0557C11.7094 14.8212 11.8306 14.6071 12.0015 14.4362L19.8847 6.55299C21.4207 5.01706 23.9109 5.01706 25.4468 6.55299C26.9827 8.08892 26.9827 10.5792 25.4468 12.1151L17.5636 19.9983C17.3927 20.1692 17.1786 20.2904 16.9442 20.349Z" fill="#FCFCFD"/>
<path d="M22.6669 12.0002L20.0002 14.6669C19.2638 15.4032 18.0699 15.4032 17.3335 14.6669C16.5972 13.9305 16.5972 12.7366 17.3335 12.0002L20.0002 9.33354C20.7366 8.59716 21.9305 8.59715 22.6669 9.33353C23.4032 10.0699 23.4032 11.2638 22.6669 12.0002Z" fill="#FCFCFD"/>
<path fill-rule="evenodd" clip-rule="evenodd" d="M11.9992 25.3332C11.4785 25.8539 10.6343 25.8539 10.1136 25.3332L6.66591 21.8855C6.14522 21.3648 6.14522 20.5206 6.66591 19.9999C7.18661 19.4792 8.03083 19.4792 8.55153 19.9999L11.9992 23.4476C12.5199 23.9683 12.5199 24.8125 11.9992 25.3332Z" fill="#FCFCFD"/>
</svg>
