<svg width="13" height="13" viewBox="0 0 13 13" fill="none" xmlns="http://www.w3.org/2000/svg">
<path d="M0.275893 2.28084L0.275894 2.28084C0.691596 1.10277 1.76093 0.24785 2.99209 0.111024C3.00482 0.109608 3.04331 0.109067 3.09146 0.108547C3.1443 0.107976 3.21916 0.107454 3.31346 0.106984C3.50212 0.106044 3.76922 0.105308 4.09505 0.104806C4.74674 0.103803 5.63371 0.103735 6.59867 0.104843C8.2076 0.106689 9.08909 0.108565 9.58803 0.114819L0.275893 2.28084ZM0.275893 2.28084C0.266553 2.30731 0.2575 2.33219 0.248787 2.35613M0.275893 2.28084L0.248787 2.35613M1.62799 1.60978C1.91653 1.32671 2.23283 1.13289 2.60094 1.01258L2.60738 1.01047C2.69513 0.981782 2.75409 0.962506 2.84718 0.947587C2.94469 0.931961 3.08137 0.920951 3.32275 0.91348C3.79868 0.89875 4.66405 0.898131 6.40112 0.896889L6.47552 0.896835C7.89711 0.895801 8.74531 0.896585 9.26153 0.901432C9.78161 0.906315 9.95717 0.915434 10.0412 0.929104L10.058 0.825613L10.0412 0.929104C10.2946 0.970343 10.5202 1.04428 10.7619 1.16589C11.004 1.28769 11.1154 1.36718 11.3332 1.57525C11.7404 1.96419 11.9769 2.40749 12.0716 2.95834C12.0738 2.9713 12.0769 3.00898 12.0801 3.07604C12.0831 3.14042 12.086 3.226 12.0886 3.33009C12.0939 3.53817 12.0983 3.81831 12.1018 4.14676C12.1089 4.80356 12.1124 5.65218 12.1124 6.50096C12.1124 7.34974 12.1089 8.19835 12.1018 8.85515C12.0983 9.18361 12.0939 9.46375 12.0886 9.67183C12.086 9.77592 12.0831 9.8615 12.0801 9.92587C12.0769 9.99294 12.0738 10.0306 12.0716 10.0436C12.0256 10.311 11.9605 10.5106 11.8413 10.7503L11.8413 10.7503C11.7231 10.988 11.6237 11.1269 11.4114 11.3482C11.033 11.7426 10.5881 11.978 10.0432 12.0717C10.0308 12.0738 9.99361 12.0769 9.92689 12.08C9.86294 12.083 9.77777 12.0857 9.67407 12.0883C9.46678 12.0935 9.18737 12.0979 8.85956 12.1014C8.20403 12.1084 7.35634 12.112 6.50795 12.1122C5.65955 12.1123 4.81078 12.109 4.15311 12.1023C3.82423 12.0989 3.54347 12.0946 3.33456 12.0895C3.12077 12.0843 2.99225 12.0782 2.95895 12.0728C2.42261 11.9855 1.96278 11.7407 1.57364 11.3334C1.36554 11.1156 1.28604 11.0042 1.16421 10.7622C1.04259 10.5205 0.968644 10.295 0.9274 10.0416L0.927399 10.0416C0.922144 10.0093 0.916218 9.8818 0.91107 9.66881C0.906041 9.46077 0.901842 9.18082 0.89848 8.85266C0.891756 8.19644 0.888393 7.34878 0.888393 6.50096C0.888393 5.65314 0.891756 4.80547 0.89848 4.14926C0.901842 3.8211 0.906041 3.54115 0.91107 3.33311C0.916218 3.12012 0.922144 2.99263 0.927399 2.96036L0.927399 2.96036C1.01271 2.43631 1.24805 1.98257 1.62799 1.60978ZM1.62799 1.60978L1.55456 1.53494L1.62799 1.60978ZM0.248787 2.35613C0.218312 2.43987 0.191995 2.51218 0.172068 2.60145M0.248787 2.35613L0.172068 2.60145M0.172068 2.60145C0.146167 2.71748 0.130687 2.86157 0.120927 3.10798M0.172068 2.60145L0.120927 3.10798M0.120927 3.10798C0.103698 3.54297 0.103829 4.31632 0.104089 5.85633M0.120927 3.10798L0.104089 5.85633M0.104089 5.85633C0.104123 6.05777 0.10416 6.27233 0.10416 6.50096M0.104089 5.85633L0.10416 6.50096M0.10416 6.50096C0.10416 8.19135 0.104724 9.08414 0.110763 9.57908M0.10416 6.50096L0.110763 9.57908M0.110763 9.57908C0.116774 10.0717 0.128054 10.1786 0.152571 10.2902L0.110763 9.57908ZM2.71033 12.8476C1.40297 12.5605 0.439658 11.5974 0.152573 10.2902L2.71033 12.8476ZM2.71033 12.8476C2.82193 12.8721 2.92885 12.8834 3.42151 12.8894M2.71033 12.8476C2.71033 12.8476 2.71033 12.8476 2.71033 12.8476L3.42151 12.8894M3.42151 12.8894C3.91651 12.8954 4.80944 12.896 6.50006 12.896M3.42151 12.8894L6.50006 12.896M6.50006 12.896C8.19069 12.896 9.08361 12.8954 9.57862 12.8894M6.50006 12.896L9.57862 12.8894M9.57862 12.8894C10.0713 12.8834 10.1782 12.8721 10.2898 12.8476M9.57862 12.8894L10.2898 12.8476M10.2898 12.8476C11.5979 12.5604 12.5603 11.5981 12.8476 10.2902M10.2898 12.8476L12.8476 10.2902M12.8476 10.2902C12.8721 10.1786 12.8834 10.0717 12.8894 9.57908M12.8476 10.2902C12.8476 10.2902 12.8476 10.2902 12.8476 10.2902L12.7451 10.2677L12.8894 9.57908M12.8894 9.57908C12.8954 9.08414 12.896 8.19135 12.896 6.50096M12.8894 9.57908L12.896 6.50096M12.896 6.50096C12.896 4.81057 12.8954 3.91778 12.8894 3.42284M12.896 6.50096L12.8894 3.42284M12.8894 3.42284C12.8834 2.93026 12.8721 2.82335 12.8476 2.71176M12.8894 3.42284L12.8476 2.71176M12.8476 2.71176C12.5607 1.40561 11.6379 0.479689 10.3045 0.153975L12.8476 2.71176ZM3.14504 6.20553V6.31038H3.24989H3.54509H3.84027H3.94442L3.94512 6.20623L3.95157 5.23373L3.95634 4.51197L6.2289 6.78432L8.49977 9.05496H7.77423H6.79553H6.69068V9.15981V9.45524V9.75067V9.85552H6.79553H8.27288H9.75023H9.85509V9.75067V8.27353V6.79639V6.69154H9.75023H9.45476H9.15929H9.05444V6.79639V7.77494V8.5004L6.78344 6.22981L4.5108 3.95761L5.23265 3.95284L6.20529 3.94639L6.30945 3.9457V3.84154V3.54641V3.25125V3.1464H6.20459H4.72724H3.24989H3.14504V3.25125V4.72839V6.20553Z" fill="#3B71FE" stroke="#3B71FE" stroke-width="0.2"/>
</svg>
