<svg width="31" height="30" viewBox="0 0 31 30" fill="none" xmlns="http://www.w3.org/2000/svg">
<path fill-rule="evenodd" clip-rule="evenodd" d="M4.10822 17.4998C1.97216 17.5056 0.593284 19.8605 1.90923 21.6446C3.7938 24.1995 7.21123 26.25 12.9165 26.25C21.7581 26.25 28.8553 19.2771 27.8618 11.0389L29.3174 8.22163C30.3268 6.26785 28.5727 4.04527 26.3593 4.47367L24.4363 4.84586C23.9265 4.58554 23.3988 4.38909 22.9479 4.24676C22.069 3.9694 21.0053 3.75 20.0207 3.75C18.252 3.75 16.7255 4.18914 15.5124 5.06991C14.3131 5.9408 13.6376 7.08531 13.2668 8.13631C13.096 8.62076 12.9822 9.10668 12.9091 9.57304C12.2229 9.36404 11.5232 9.08283 10.8382 8.73944C9.28405 7.9604 8.02733 6.97277 7.31839 6.10689C6.12899 4.65412 3.60838 4.76184 2.72387 6.65026C1.47723 9.31184 1.8192 12.4668 2.93977 15.0161C3.31536 15.8705 3.80394 16.7151 4.40083 17.4979C4.29865 17.499 4.20089 17.4995 4.10822 17.4998ZM12.9164 23.75C7.92627 23.75 5.34594 22.0009 4.01171 20.1921C3.95177 20.1109 4.01222 20 4.11538 19.9998C5.47272 19.996 8.25884 19.9339 10.0964 18.8931C10.1914 18.8392 10.1705 18.7036 10.0661 18.6697C5.78273 17.276 3.3479 11.3732 5.07664 7.68237C5.11628 7.59775 5.23383 7.58659 5.29346 7.65943C7.26825 10.0715 11.586 12.434 15.3427 12.4986C15.4242 12.5 15.4858 12.4284 15.4734 12.3504C15.322 11.4007 14.744 6.25 20.0206 6.25C21.2806 6.25 23.1553 6.84479 23.8459 7.45413C23.8778 7.48229 23.921 7.49507 23.9634 7.48688L26.8658 6.92513C26.9712 6.90473 27.0547 7.01056 27.0067 7.1036L25.2065 10.5877C25.194 10.6119 25.1901 10.6397 25.1949 10.6663C26.4557 17.525 20.6509 23.75 12.9164 23.75Z" fill="#B1B5C4"/>
</svg>
