<svg width="18" height="16" viewBox="0 0 18 16" fill="none" xmlns="http://www.w3.org/2000/svg">
<path fill-rule="evenodd" clip-rule="evenodd" d="M9.56701 3.24221C9.22649 3.54699 8.71125 3.54699 8.37072 3.24221L7.77258 2.70686C7.13668 2.13771 6.3013 1.79377 5.38132 1.79377C3.39997 1.79377 1.79377 3.39997 1.79377 5.38132C1.79377 8.16483 3.53329 10.3955 5.60496 12.0527C6.617 12.8623 7.63872 13.4764 8.41157 13.8886C8.76006 14.0744 9.17765 14.0744 9.52614 13.8886C10.299 13.4764 11.3207 12.8623 12.3328 12.0527C14.4044 10.3953 16.144 8.16498 16.144 5.38146C16.144 3.40011 14.5378 1.79377 12.5564 1.79377C11.6364 1.79377 10.8011 2.13771 10.1652 2.70686L9.56701 3.24221ZM8.96887 1.37025C8.01681 0.518138 6.75957 0 5.38132 0C2.4093 0 0 2.4093 0 5.38132C0 11.3737 6.25585 14.8638 8.31817 15.8515C8.73357 16.0505 9.20416 16.0505 9.61957 15.8516C11.6819 14.8639 17.9377 11.3739 17.9377 5.38146C17.9377 2.40944 15.5284 0 12.5564 0C11.1782 0 9.92093 0.518138 8.96887 1.37025Z" fill="#777E91"/>
</svg>
