<svg width="20" height="15" viewBox="0 0 20 15" fill="none" xmlns="http://www.w3.org/2000/svg">
<mask id="path-1-outside-1_2059_14345" maskUnits="userSpaceOnUse" x="-0.578512" y="-0.578512" width="21.157" height="16.1196" fill="black">
<rect fill="white" x="-0.578512" y="-0.578512" width="21.157" height="16.1196"/>
<path fill-rule="evenodd" clip-rule="evenodd" d="M6.55638 0.477042C6.1973 0.544712 5.72121 0.808616 5.35837 1.14118C4.73955 1.7083 4.60243 1.75179 3.43213 1.75179C2.61861 1.75179 2.61358 1.75233 2.51291 1.85328L2.41167 1.95472V4.18889C2.41167 6.31538 2.40808 6.42302 2.33718 6.42302C2.18777 6.42302 1.74789 6.59921 1.50593 6.75596C1.05051 7.05099 0.770605 7.40328 0.55908 7.94758L0.45272 8.22124L0.428965 14.1126L0.634551 14.3186H15.4063L15.5075 14.2172C15.6415 14.0829 15.6415 13.8929 15.5075 13.7587L15.4063 13.6572H1.09195V11.0116H1.98049C2.86894 11.0116 2.86907 11.0116 2.97027 10.9101C3.10422 10.7759 3.10422 10.5859 2.97027 10.4516L2.86907 10.3502H1.0856L1.11258 8.30391L1.2431 8.02778C1.42473 7.64345 1.65852 7.4041 2.0339 7.21816L2.34551 7.06377H17.6545L17.9661 7.21816C18.3415 7.4041 18.5753 7.64345 18.7569 8.02778L18.8874 8.30391L18.9144 10.3502H4.59368L4.49248 10.4516C4.35853 10.5859 4.35853 10.7759 4.49248 10.9101L4.59368 11.0116H18.908V13.6572H18.0195C17.1311 13.6572 17.1309 13.6572 17.0297 13.7587C16.8958 13.8929 16.8958 14.0829 17.0297 14.2172L17.1309 14.3186H19.3654L19.571 14.1126L19.5473 8.22124L19.4409 7.94758C19.2845 7.5449 19.1466 7.33081 18.8614 7.0476C18.5786 6.76679 18.1785 6.54224 17.8158 6.46089L17.5883 6.40988V4.18877C17.5883 2.06456 17.5849 1.9634 17.5096 1.87006C17.432 1.77382 17.4175 1.77217 16.4889 1.75179L15.5469 1.73112L15.2713 1.60024C15.0938 1.51596 14.8803 1.36123 14.6715 1.16545C14.4834 0.989141 14.2227 0.795884 14.0504 0.705146C13.5445 0.438679 13.4551 0.430494 11.0395 0.429668L8.88274 0.428965L8.78154 0.530451C8.7177 0.594401 8.68029 0.679144 8.68029 0.759672C8.68029 0.840199 8.7177 0.924942 8.78154 0.988892L8.88274 1.09038H11.0205C13.6924 1.09038 13.5868 1.07049 14.2684 1.70152C14.6424 2.04773 15.1031 2.29684 15.5029 2.36901C15.6375 2.39332 16.0133 2.4132 16.3381 2.4132H16.9285V6.38168H15.6171L15.5881 4.99238L15.4341 4.68007C15.2486 4.30394 15.0097 4.06955 14.6264 3.88754L14.3509 3.7567H10.9279L10.6554 3.88613C10.5055 3.95731 10.2967 4.09832 10.1914 4.19943L10 4.38326L9.8086 4.19943C9.70331 4.09832 9.49451 3.95731 9.34464 3.88613L9.07208 3.7567H5.64908L5.37359 3.88754C4.99026 4.06955 4.75139 4.30394 4.56589 4.68007L4.41185 4.99238L4.3829 6.38168H3.07152V2.4132L3.67982 2.4125C4.04765 2.41205 4.39828 2.38836 4.56679 2.35256C4.96225 2.26856 5.36811 2.03934 5.7573 1.68011C6.16307 1.30559 6.4859 1.14098 6.8887 1.10328C7.106 1.08294 7.1936 1.05483 7.26614 0.982113C7.3932 0.85475 7.39031 0.6617 7.25933 0.530451C7.14749 0.4183 6.9485 0.40317 6.55638 0.477042ZM8.98481 4.44771C9.21135 4.5148 9.55299 4.85725 9.61992 5.08432C9.64855 5.18142 9.67007 5.49638 9.67007 5.81808V6.38168H5.05109V5.81808C5.05109 5.49638 5.07261 5.18142 5.10124 5.08432C5.1633 4.87374 5.50853 4.51542 5.71094 4.45147C5.92259 4.38463 8.76071 4.38136 8.98481 4.44771ZM14.2637 4.44771C14.4902 4.5148 14.8318 4.85725 14.8988 5.08432C14.9274 5.18142 14.9489 5.49638 14.9489 5.81808V6.38168H10.3299V5.81808C10.3299 5.49638 10.3515 5.18142 10.3801 5.08432C10.4421 4.87374 10.7874 4.51542 10.9898 4.45147C11.2014 4.38463 14.0396 4.38136 14.2637 4.44771Z"/>
<path d="M8.89115 0.428965H6.96527L7.08199 1.07092H8.89115V0.428965Z"/>
<path d="M4.98104 10.3502H2.76336V10.9921H4.68924L4.98104 10.3502Z"/>
<path d="M14.9022 13.6183H17.4701V14.3186H14.9022V13.6183Z"/>
</mask>
<path fill-rule="evenodd" clip-rule="evenodd" d="M6.55638 0.477042C6.1973 0.544712 5.72121 0.808616 5.35837 1.14118C4.73955 1.7083 4.60243 1.75179 3.43213 1.75179C2.61861 1.75179 2.61358 1.75233 2.51291 1.85328L2.41167 1.95472V4.18889C2.41167 6.31538 2.40808 6.42302 2.33718 6.42302C2.18777 6.42302 1.74789 6.59921 1.50593 6.75596C1.05051 7.05099 0.770605 7.40328 0.55908 7.94758L0.45272 8.22124L0.428965 14.1126L0.634551 14.3186H15.4063L15.5075 14.2172C15.6415 14.0829 15.6415 13.8929 15.5075 13.7587L15.4063 13.6572H1.09195V11.0116H1.98049C2.86894 11.0116 2.86907 11.0116 2.97027 10.9101C3.10422 10.7759 3.10422 10.5859 2.97027 10.4516L2.86907 10.3502H1.0856L1.11258 8.30391L1.2431 8.02778C1.42473 7.64345 1.65852 7.4041 2.0339 7.21816L2.34551 7.06377H17.6545L17.9661 7.21816C18.3415 7.4041 18.5753 7.64345 18.7569 8.02778L18.8874 8.30391L18.9144 10.3502H4.59368L4.49248 10.4516C4.35853 10.5859 4.35853 10.7759 4.49248 10.9101L4.59368 11.0116H18.908V13.6572H18.0195C17.1311 13.6572 17.1309 13.6572 17.0297 13.7587C16.8958 13.8929 16.8958 14.0829 17.0297 14.2172L17.1309 14.3186H19.3654L19.571 14.1126L19.5473 8.22124L19.4409 7.94758C19.2845 7.5449 19.1466 7.33081 18.8614 7.0476C18.5786 6.76679 18.1785 6.54224 17.8158 6.46089L17.5883 6.40988V4.18877C17.5883 2.06456 17.5849 1.9634 17.5096 1.87006C17.432 1.77382 17.4175 1.77217 16.4889 1.75179L15.5469 1.73112L15.2713 1.60024C15.0938 1.51596 14.8803 1.36123 14.6715 1.16545C14.4834 0.989141 14.2227 0.795884 14.0504 0.705146C13.5445 0.438679 13.4551 0.430494 11.0395 0.429668L8.88274 0.428965L8.78154 0.530451C8.7177 0.594401 8.68029 0.679144 8.68029 0.759672C8.68029 0.840199 8.7177 0.924942 8.78154 0.988892L8.88274 1.09038H11.0205C13.6924 1.09038 13.5868 1.07049 14.2684 1.70152C14.6424 2.04773 15.1031 2.29684 15.5029 2.36901C15.6375 2.39332 16.0133 2.4132 16.3381 2.4132H16.9285V6.38168H15.6171L15.5881 4.99238L15.4341 4.68007C15.2486 4.30394 15.0097 4.06955 14.6264 3.88754L14.3509 3.7567H10.9279L10.6554 3.88613C10.5055 3.95731 10.2967 4.09832 10.1914 4.19943L10 4.38326L9.8086 4.19943C9.70331 4.09832 9.49451 3.95731 9.34464 3.88613L9.07208 3.7567H5.64908L5.37359 3.88754C4.99026 4.06955 4.75139 4.30394 4.56589 4.68007L4.41185 4.99238L4.3829 6.38168H3.07152V2.4132L3.67982 2.4125C4.04765 2.41205 4.39828 2.38836 4.56679 2.35256C4.96225 2.26856 5.36811 2.03934 5.7573 1.68011C6.16307 1.30559 6.4859 1.14098 6.8887 1.10328C7.106 1.08294 7.1936 1.05483 7.26614 0.982113C7.3932 0.85475 7.39031 0.6617 7.25933 0.530451C7.14749 0.4183 6.9485 0.40317 6.55638 0.477042ZM8.98481 4.44771C9.21135 4.5148 9.55299 4.85725 9.61992 5.08432C9.64855 5.18142 9.67007 5.49638 9.67007 5.81808V6.38168H5.05109V5.81808C5.05109 5.49638 5.07261 5.18142 5.10124 5.08432C5.1633 4.87374 5.50853 4.51542 5.71094 4.45147C5.92259 4.38463 8.76071 4.38136 8.98481 4.44771ZM14.2637 4.44771C14.4902 4.5148 14.8318 4.85725 14.8988 5.08432C14.9274 5.18142 14.9489 5.49638 14.9489 5.81808V6.38168H10.3299V5.81808C10.3299 5.49638 10.3515 5.18142 10.3801 5.08432C10.4421 4.87374 10.7874 4.51542 10.9898 4.45147C11.2014 4.38463 14.0396 4.38136 14.2637 4.44771Z" fill="#3B71FE"/>
<path d="M8.89115 0.428965H6.96527L7.08199 1.07092H8.89115V0.428965Z" fill="#3B71FE"/>
<path d="M4.98104 10.3502H2.76336V10.9921H4.68924L4.98104 10.3502Z" fill="#3B71FE"/>
<path d="M14.9022 13.6183H17.4701V14.3186H14.9022V13.6183Z" fill="#3B71FE"/>
<path fill-rule="evenodd" clip-rule="evenodd" d="M6.55638 0.477042C6.1973 0.544712 5.72121 0.808616 5.35837 1.14118C4.73955 1.7083 4.60243 1.75179 3.43213 1.75179C2.61861 1.75179 2.61358 1.75233 2.51291 1.85328L2.41167 1.95472V4.18889C2.41167 6.31538 2.40808 6.42302 2.33718 6.42302C2.18777 6.42302 1.74789 6.59921 1.50593 6.75596C1.05051 7.05099 0.770605 7.40328 0.55908 7.94758L0.45272 8.22124L0.428965 14.1126L0.634551 14.3186H15.4063L15.5075 14.2172C15.6415 14.0829 15.6415 13.8929 15.5075 13.7587L15.4063 13.6572H1.09195V11.0116H1.98049C2.86894 11.0116 2.86907 11.0116 2.97027 10.9101C3.10422 10.7759 3.10422 10.5859 2.97027 10.4516L2.86907 10.3502H1.0856L1.11258 8.30391L1.2431 8.02778C1.42473 7.64345 1.65852 7.4041 2.0339 7.21816L2.34551 7.06377H17.6545L17.9661 7.21816C18.3415 7.4041 18.5753 7.64345 18.7569 8.02778L18.8874 8.30391L18.9144 10.3502H4.59368L4.49248 10.4516C4.35853 10.5859 4.35853 10.7759 4.49248 10.9101L4.59368 11.0116H18.908V13.6572H18.0195C17.1311 13.6572 17.1309 13.6572 17.0297 13.7587C16.8958 13.8929 16.8958 14.0829 17.0297 14.2172L17.1309 14.3186H19.3654L19.571 14.1126L19.5473 8.22124L19.4409 7.94758C19.2845 7.5449 19.1466 7.33081 18.8614 7.0476C18.5786 6.76679 18.1785 6.54224 17.8158 6.46089L17.5883 6.40988V4.18877C17.5883 2.06456 17.5849 1.9634 17.5096 1.87006C17.432 1.77382 17.4175 1.77217 16.4889 1.75179L15.5469 1.73112L15.2713 1.60024C15.0938 1.51596 14.8803 1.36123 14.6715 1.16545C14.4834 0.989141 14.2227 0.795884 14.0504 0.705146C13.5445 0.438679 13.4551 0.430494 11.0395 0.429668L8.88274 0.428965L8.78154 0.530451C8.7177 0.594401 8.68029 0.679144 8.68029 0.759672C8.68029 0.840199 8.7177 0.924942 8.78154 0.988892L8.88274 1.09038H11.0205C13.6924 1.09038 13.5868 1.07049 14.2684 1.70152C14.6424 2.04773 15.1031 2.29684 15.5029 2.36901C15.6375 2.39332 16.0133 2.4132 16.3381 2.4132H16.9285V6.38168H15.6171L15.5881 4.99238L15.4341 4.68007C15.2486 4.30394 15.0097 4.06955 14.6264 3.88754L14.3509 3.7567H10.9279L10.6554 3.88613C10.5055 3.95731 10.2967 4.09832 10.1914 4.19943L10 4.38326L9.8086 4.19943C9.70331 4.09832 9.49451 3.95731 9.34464 3.88613L9.07208 3.7567H5.64908L5.37359 3.88754C4.99026 4.06955 4.75139 4.30394 4.56589 4.68007L4.41185 4.99238L4.3829 6.38168H3.07152V2.4132L3.67982 2.4125C4.04765 2.41205 4.39828 2.38836 4.56679 2.35256C4.96225 2.26856 5.36811 2.03934 5.7573 1.68011C6.16307 1.30559 6.4859 1.14098 6.8887 1.10328C7.106 1.08294 7.1936 1.05483 7.26614 0.982113C7.3932 0.85475 7.39031 0.6617 7.25933 0.530451C7.14749 0.4183 6.9485 0.40317 6.55638 0.477042ZM8.98481 4.44771C9.21135 4.5148 9.55299 4.85725 9.61992 5.08432C9.64855 5.18142 9.67007 5.49638 9.67007 5.81808V6.38168H5.05109V5.81808C5.05109 5.49638 5.07261 5.18142 5.10124 5.08432C5.1633 4.87374 5.50853 4.51542 5.71094 4.45147C5.92259 4.38463 8.76071 4.38136 8.98481 4.44771ZM14.2637 4.44771C14.4902 4.5148 14.8318 4.85725 14.8988 5.08432C14.9274 5.18142 14.9489 5.49638 14.9489 5.81808V6.38168H10.3299V5.81808C10.3299 5.49638 10.3515 5.18142 10.3801 5.08432C10.4421 4.87374 10.7874 4.51542 10.9898 4.45147C11.2014 4.38463 14.0396 4.38136 14.2637 4.44771Z" stroke="#3B71FE" stroke-width="0.85" mask="url(#path-1-outside-1_2059_14345)"/>
<path d="M8.89115 0.428965H6.96527L7.08199 1.07092H8.89115V0.428965Z" stroke="#3B71FE" stroke-width="0.85" mask="url(#path-1-outside-1_2059_14345)"/>
<path d="M4.98104 10.3502H2.76336V10.9921H4.68924L4.98104 10.3502Z" stroke="#3B71FE" stroke-width="0.85" mask="url(#path-1-outside-1_2059_14345)"/>
<path d="M14.9022 13.6183H17.4701V14.3186H14.9022V13.6183Z" stroke="#3B71FE" stroke-width="0.85" mask="url(#path-1-outside-1_2059_14345)"/>
</svg>
