<svg width="29" height="30" viewBox="0 0 29 30" fill="none" xmlns="http://www.w3.org/2000/svg">
<path fill-rule="evenodd" clip-rule="evenodd" d="M14.4993 25C19.8381 25 24.166 20.5229 24.166 15C24.166 9.47715 19.8381 5 14.4993 5C9.16059 5 4.83268 9.47715 4.83268 15C4.83268 20.5229 9.16059 25 14.4993 25ZM14.4993 27.5C21.1727 27.5 26.5827 21.9035 26.5827 15C26.5827 8.09644 21.1727 2.5 14.4993 2.5C7.82591 2.5 2.41602 8.09644 2.41602 15C2.41602 21.9035 7.82591 27.5 14.4993 27.5Z" fill="#B1B5C4"/>
<path d="M14.4993 12.5C14.4993 11.8096 15.0403 11.25 15.7077 11.25H16.916C17.5834 11.25 18.1243 10.6904 18.1243 10C18.1243 9.30965 17.5834 8.75 16.916 8.75H15.7077C13.7056 8.75 12.0827 10.4289 12.0827 12.5V15H10.8743C10.207 15 9.66602 15.5596 9.66602 16.25C9.66602 16.9404 10.207 17.5 10.8743 17.5H12.0827V25C12.0827 25.6904 12.6237 26.25 13.291 26.25C13.9584 26.25 14.4993 25.6904 14.4993 25V17.5H16.916C17.5834 17.5 18.1243 16.9404 18.1243 16.25C18.1243 15.5596 17.5834 15 16.916 15H14.4993V12.5Z" fill="#B1B5C4"/>
</svg>
