<svg width="18" height="19" viewBox="0 0 18 19" fill="none" xmlns="http://www.w3.org/2000/svg">
<mask id="path-1-outside-1_0_5" maskUnits="userSpaceOnUse" x="-0.825868" y="-0.824859" width="19.6191" height="20.6517" fill="black">
<rect fill="white" x="-0.825868" y="-0.824859" width="19.6191" height="20.6517"/>
<path fill-rule="evenodd" clip-rule="evenodd" d="M3.97981 0.269753C3.80339 0.354038 3.65791 0.524536 3.60899 0.704338C3.58876 0.778665 3.57214 1.00546 3.57203 1.20827L3.57182 1.577L2.86863 1.59321C2.08155 1.61131 1.87636 1.65558 1.43555 1.90226C1.0805 2.10096 0.66193 2.55161 0.479386 2.93175C0.183121 3.54872 0.207189 2.90605 0.207189 10.1985C0.207189 17.4777 0.184224 16.8505 0.472621 17.4513C0.737803 18.0039 1.25193 18.4605 1.8586 18.6822L2.16544 18.7943H8.9837H15.802L16.0868 18.6919C16.8868 18.4045 17.4773 17.7559 17.6977 16.9225C17.7562 16.7014 17.7602 16.2705 17.7602 10.1985C17.7602 2.90398 17.7845 3.54915 17.4869 2.92939C17.2777 2.49371 16.8537 2.06218 16.425 1.84865C16.0076 1.64068 15.7016 1.58459 14.9846 1.58459H14.3956L14.3954 1.21205C14.3952 0.769542 14.357 0.607368 14.214 0.441086C13.9052 0.0821723 13.3164 0.157917 13.1151 0.582435C13.0549 0.70939 13.0426 0.807087 13.0426 1.15993V1.58459H8.98652H4.93045L4.9187 1.11835C4.90809 0.696015 4.8989 0.640115 4.82118 0.524463C4.62649 0.234788 4.2754 0.128513 3.97981 0.269753ZM3.57815 3.39279C3.59425 3.88971 3.64851 4.04338 3.86402 4.20276C4.12322 4.39445 4.4531 4.37562 4.69913 4.15511C4.89007 3.98396 4.92479 3.86543 4.92479 3.38487V2.96573H8.9837H13.0426V3.38487C13.0426 3.86543 13.0773 3.98396 13.2683 4.15511C13.5193 4.38009 13.8645 4.39136 14.1318 4.18324C14.3205 4.03629 14.3737 3.87307 14.3893 3.39279L14.4031 2.96573H14.9677C15.4491 2.96573 15.5609 2.97667 15.7267 3.04002C15.9717 3.13358 16.1905 3.34798 16.3129 3.61432L16.4072 3.81986V10.1985V16.5772L16.3142 16.7771C16.2027 17.0167 16.0107 17.2186 15.7877 17.3308L15.6239 17.4132H8.9837H2.34346L2.17872 17.3303C1.95096 17.2158 1.76307 17.0188 1.65312 16.7795L1.56016 16.5772V10.1985C1.56016 4.13919 1.56337 3.81259 1.62411 3.67447C1.72643 3.4419 1.85785 3.26951 2.01241 3.16509C2.26748 2.99277 2.37547 2.97104 2.9895 2.96828L3.5643 2.96573L3.57815 3.39279ZM4.72124 6.50966C4.1798 6.7893 4.10101 7.50978 4.56725 7.91718C5.27111 8.53219 6.28164 7.67715 5.82669 6.85149C5.67547 6.57708 5.45967 6.44289 5.14265 6.42617C4.94373 6.41567 4.878 6.42868 4.72124 6.50966ZM8.46744 6.48763C8.16701 6.62993 7.98678 6.92429 7.98678 7.2727C7.98678 7.63132 8.16815 7.9114 8.49257 8.05388C8.81921 8.19733 9.16742 8.12155 9.42481 7.851C9.81354 7.4424 9.68867 6.7459 9.18369 6.50588C8.958 6.39858 8.67085 6.39128 8.46744 6.48763ZM12.1607 6.49352C11.4089 6.883 11.6219 8.04872 12.4576 8.11944C12.9881 8.16437 13.3966 7.73942 13.3533 7.1879C13.3317 6.91371 13.2181 6.72035 12.9771 6.54738C12.8479 6.4547 12.7853 6.43617 12.5686 6.42632C12.3614 6.41694 12.2838 6.42973 12.1607 6.49352ZM8.68106 9.87236C8.24498 9.93877 7.9631 10.3156 7.99287 10.7924C8.01074 11.079 8.1277 11.2798 8.367 11.4347C8.57016 11.5662 8.78243 11.601 9.02696 11.5427C9.2747 11.4837 9.55202 11.2082 9.62256 10.951C9.7884 10.3463 9.29339 9.7791 8.68106 9.87236ZM12.3777 9.87629C12.1689 9.91387 12.0365 9.9919 11.8948 10.1609C11.5058 10.6248 11.6938 11.3215 12.2632 11.5266C12.7952 11.7182 13.3631 11.3003 13.3631 10.7173C13.3631 10.4822 13.2908 10.2937 13.1387 10.1318C12.9368 9.91689 12.663 9.82497 12.3777 9.87629ZM4.71924 9.94832C4.32247 10.1488 4.1474 10.6833 4.34557 11.089C4.49308 11.391 4.76361 11.5588 5.10281 11.5588C5.50098 11.5588 5.79493 11.3317 5.90726 10.9372C5.95671 10.7635 5.95924 10.7008 5.92328 10.5368C5.87005 10.294 5.70371 10.0669 5.49777 9.95596C5.28646 9.84212 4.93629 9.83867 4.71924 9.94832ZM4.85358 13.3419C4.6469 13.4098 4.44438 13.5824 4.34767 13.773C4.23591 13.9932 4.23994 14.3433 4.35668 14.5588C4.47211 14.7718 4.6987 14.9436 4.93568 14.9978C5.51038 15.129 6.05188 14.5763 5.92328 13.9896C5.8154 13.4974 5.31042 13.1917 4.85358 13.3419ZM8.56855 13.3383C8.34884 13.4111 8.21062 13.5267 8.09281 13.7364C8.00572 13.8915 7.98745 13.9649 7.98745 14.1602C7.98745 15.0996 9.2042 15.3486 9.5861 14.4873C9.87029 13.8464 9.2271 13.1201 8.56855 13.3383ZM12.3483 13.3201C11.7251 13.4856 11.4785 14.2408 11.8943 14.7106C12.0792 14.9195 12.268 15.0085 12.5264 15.0085C13.4069 15.0085 13.6892 13.8079 12.9048 13.3994C12.7368 13.3119 12.504 13.2787 12.3483 13.3201Z"/>
</mask>
<path fill-rule="evenodd" clip-rule="evenodd" d="M3.97981 0.269753C3.80339 0.354038 3.65791 0.524536 3.60899 0.704338C3.58876 0.778665 3.57214 1.00546 3.57203 1.20827L3.57182 1.577L2.86863 1.59321C2.08155 1.61131 1.87636 1.65558 1.43555 1.90226C1.0805 2.10096 0.66193 2.55161 0.479386 2.93175C0.183121 3.54872 0.207189 2.90605 0.207189 10.1985C0.207189 17.4777 0.184224 16.8505 0.472621 17.4513C0.737803 18.0039 1.25193 18.4605 1.8586 18.6822L2.16544 18.7943H8.9837H15.802L16.0868 18.6919C16.8868 18.4045 17.4773 17.7559 17.6977 16.9225C17.7562 16.7014 17.7602 16.2705 17.7602 10.1985C17.7602 2.90398 17.7845 3.54915 17.4869 2.92939C17.2777 2.49371 16.8537 2.06218 16.425 1.84865C16.0076 1.64068 15.7016 1.58459 14.9846 1.58459H14.3956L14.3954 1.21205C14.3952 0.769542 14.357 0.607368 14.214 0.441086C13.9052 0.0821723 13.3164 0.157917 13.1151 0.582435C13.0549 0.70939 13.0426 0.807087 13.0426 1.15993V1.58459H8.98652H4.93045L4.9187 1.11835C4.90809 0.696015 4.8989 0.640115 4.82118 0.524463C4.62649 0.234788 4.2754 0.128513 3.97981 0.269753ZM3.57815 3.39279C3.59425 3.88971 3.64851 4.04338 3.86402 4.20276C4.12322 4.39445 4.4531 4.37562 4.69913 4.15511C4.89007 3.98396 4.92479 3.86543 4.92479 3.38487V2.96573H8.9837H13.0426V3.38487C13.0426 3.86543 13.0773 3.98396 13.2683 4.15511C13.5193 4.38009 13.8645 4.39136 14.1318 4.18324C14.3205 4.03629 14.3737 3.87307 14.3893 3.39279L14.4031 2.96573H14.9677C15.4491 2.96573 15.5609 2.97667 15.7267 3.04002C15.9717 3.13358 16.1905 3.34798 16.3129 3.61432L16.4072 3.81986V10.1985V16.5772L16.3142 16.7771C16.2027 17.0167 16.0107 17.2186 15.7877 17.3308L15.6239 17.4132H8.9837H2.34346L2.17872 17.3303C1.95096 17.2158 1.76307 17.0188 1.65312 16.7795L1.56016 16.5772V10.1985C1.56016 4.13919 1.56337 3.81259 1.62411 3.67447C1.72643 3.4419 1.85785 3.26951 2.01241 3.16509C2.26748 2.99277 2.37547 2.97104 2.9895 2.96828L3.5643 2.96573L3.57815 3.39279ZM4.72124 6.50966C4.1798 6.7893 4.10101 7.50978 4.56725 7.91718C5.27111 8.53219 6.28164 7.67715 5.82669 6.85149C5.67547 6.57708 5.45967 6.44289 5.14265 6.42617C4.94373 6.41567 4.878 6.42868 4.72124 6.50966ZM8.46744 6.48763C8.16701 6.62993 7.98678 6.92429 7.98678 7.2727C7.98678 7.63132 8.16815 7.9114 8.49257 8.05388C8.81921 8.19733 9.16742 8.12155 9.42481 7.851C9.81354 7.4424 9.68867 6.7459 9.18369 6.50588C8.958 6.39858 8.67085 6.39128 8.46744 6.48763ZM12.1607 6.49352C11.4089 6.883 11.6219 8.04872 12.4576 8.11944C12.9881 8.16437 13.3966 7.73942 13.3533 7.1879C13.3317 6.91371 13.2181 6.72035 12.9771 6.54738C12.8479 6.4547 12.7853 6.43617 12.5686 6.42632C12.3614 6.41694 12.2838 6.42973 12.1607 6.49352ZM8.68106 9.87236C8.24498 9.93877 7.9631 10.3156 7.99287 10.7924C8.01074 11.079 8.1277 11.2798 8.367 11.4347C8.57016 11.5662 8.78243 11.601 9.02696 11.5427C9.2747 11.4837 9.55202 11.2082 9.62256 10.951C9.7884 10.3463 9.29339 9.7791 8.68106 9.87236ZM12.3777 9.87629C12.1689 9.91387 12.0365 9.9919 11.8948 10.1609C11.5058 10.6248 11.6938 11.3215 12.2632 11.5266C12.7952 11.7182 13.3631 11.3003 13.3631 10.7173C13.3631 10.4822 13.2908 10.2937 13.1387 10.1318C12.9368 9.91689 12.663 9.82497 12.3777 9.87629ZM4.71924 9.94832C4.32247 10.1488 4.1474 10.6833 4.34557 11.089C4.49308 11.391 4.76361 11.5588 5.10281 11.5588C5.50098 11.5588 5.79493 11.3317 5.90726 10.9372C5.95671 10.7635 5.95924 10.7008 5.92328 10.5368C5.87005 10.294 5.70371 10.0669 5.49777 9.95596C5.28646 9.84212 4.93629 9.83867 4.71924 9.94832ZM4.85358 13.3419C4.6469 13.4098 4.44438 13.5824 4.34767 13.773C4.23591 13.9932 4.23994 14.3433 4.35668 14.5588C4.47211 14.7718 4.6987 14.9436 4.93568 14.9978C5.51038 15.129 6.05188 14.5763 5.92328 13.9896C5.8154 13.4974 5.31042 13.1917 4.85358 13.3419ZM8.56855 13.3383C8.34884 13.4111 8.21062 13.5267 8.09281 13.7364C8.00572 13.8915 7.98745 13.9649 7.98745 14.1602C7.98745 15.0996 9.2042 15.3486 9.5861 14.4873C9.87029 13.8464 9.2271 13.1201 8.56855 13.3383ZM12.3483 13.3201C11.7251 13.4856 11.4785 14.2408 11.8943 14.7106C12.0792 14.9195 12.268 15.0085 12.5264 15.0085C13.4069 15.0085 13.6892 13.8079 12.9048 13.3994C12.7368 13.3119 12.504 13.2787 12.3483 13.3201Z" fill="#777E91"/>
<path fill-rule="evenodd" clip-rule="evenodd" d="M3.97981 0.269753C3.80339 0.354038 3.65791 0.524536 3.60899 0.704338C3.58876 0.778665 3.57214 1.00546 3.57203 1.20827L3.57182 1.577L2.86863 1.59321C2.08155 1.61131 1.87636 1.65558 1.43555 1.90226C1.0805 2.10096 0.66193 2.55161 0.479386 2.93175C0.183121 3.54872 0.207189 2.90605 0.207189 10.1985C0.207189 17.4777 0.184224 16.8505 0.472621 17.4513C0.737803 18.0039 1.25193 18.4605 1.8586 18.6822L2.16544 18.7943H8.9837H15.802L16.0868 18.6919C16.8868 18.4045 17.4773 17.7559 17.6977 16.9225C17.7562 16.7014 17.7602 16.2705 17.7602 10.1985C17.7602 2.90398 17.7845 3.54915 17.4869 2.92939C17.2777 2.49371 16.8537 2.06218 16.425 1.84865C16.0076 1.64068 15.7016 1.58459 14.9846 1.58459H14.3956L14.3954 1.21205C14.3952 0.769542 14.357 0.607368 14.214 0.441086C13.9052 0.0821723 13.3164 0.157917 13.1151 0.582435C13.0549 0.70939 13.0426 0.807087 13.0426 1.15993V1.58459H8.98652H4.93045L4.9187 1.11835C4.90809 0.696015 4.8989 0.640115 4.82118 0.524463C4.62649 0.234788 4.2754 0.128513 3.97981 0.269753ZM3.57815 3.39279C3.59425 3.88971 3.64851 4.04338 3.86402 4.20276C4.12322 4.39445 4.4531 4.37562 4.69913 4.15511C4.89007 3.98396 4.92479 3.86543 4.92479 3.38487V2.96573H8.9837H13.0426V3.38487C13.0426 3.86543 13.0773 3.98396 13.2683 4.15511C13.5193 4.38009 13.8645 4.39136 14.1318 4.18324C14.3205 4.03629 14.3737 3.87307 14.3893 3.39279L14.4031 2.96573H14.9677C15.4491 2.96573 15.5609 2.97667 15.7267 3.04002C15.9717 3.13358 16.1905 3.34798 16.3129 3.61432L16.4072 3.81986V10.1985V16.5772L16.3142 16.7771C16.2027 17.0167 16.0107 17.2186 15.7877 17.3308L15.6239 17.4132H8.9837H2.34346L2.17872 17.3303C1.95096 17.2158 1.76307 17.0188 1.65312 16.7795L1.56016 16.5772V10.1985C1.56016 4.13919 1.56337 3.81259 1.62411 3.67447C1.72643 3.4419 1.85785 3.26951 2.01241 3.16509C2.26748 2.99277 2.37547 2.97104 2.9895 2.96828L3.5643 2.96573L3.57815 3.39279ZM4.72124 6.50966C4.1798 6.7893 4.10101 7.50978 4.56725 7.91718C5.27111 8.53219 6.28164 7.67715 5.82669 6.85149C5.67547 6.57708 5.45967 6.44289 5.14265 6.42617C4.94373 6.41567 4.878 6.42868 4.72124 6.50966ZM8.46744 6.48763C8.16701 6.62993 7.98678 6.92429 7.98678 7.2727C7.98678 7.63132 8.16815 7.9114 8.49257 8.05388C8.81921 8.19733 9.16742 8.12155 9.42481 7.851C9.81354 7.4424 9.68867 6.7459 9.18369 6.50588C8.958 6.39858 8.67085 6.39128 8.46744 6.48763ZM12.1607 6.49352C11.4089 6.883 11.6219 8.04872 12.4576 8.11944C12.9881 8.16437 13.3966 7.73942 13.3533 7.1879C13.3317 6.91371 13.2181 6.72035 12.9771 6.54738C12.8479 6.4547 12.7853 6.43617 12.5686 6.42632C12.3614 6.41694 12.2838 6.42973 12.1607 6.49352ZM8.68106 9.87236C8.24498 9.93877 7.9631 10.3156 7.99287 10.7924C8.01074 11.079 8.1277 11.2798 8.367 11.4347C8.57016 11.5662 8.78243 11.601 9.02696 11.5427C9.2747 11.4837 9.55202 11.2082 9.62256 10.951C9.7884 10.3463 9.29339 9.7791 8.68106 9.87236ZM12.3777 9.87629C12.1689 9.91387 12.0365 9.9919 11.8948 10.1609C11.5058 10.6248 11.6938 11.3215 12.2632 11.5266C12.7952 11.7182 13.3631 11.3003 13.3631 10.7173C13.3631 10.4822 13.2908 10.2937 13.1387 10.1318C12.9368 9.91689 12.663 9.82497 12.3777 9.87629ZM4.71924 9.94832C4.32247 10.1488 4.1474 10.6833 4.34557 11.089C4.49308 11.391 4.76361 11.5588 5.10281 11.5588C5.50098 11.5588 5.79493 11.3317 5.90726 10.9372C5.95671 10.7635 5.95924 10.7008 5.92328 10.5368C5.87005 10.294 5.70371 10.0669 5.49777 9.95596C5.28646 9.84212 4.93629 9.83867 4.71924 9.94832ZM4.85358 13.3419C4.6469 13.4098 4.44438 13.5824 4.34767 13.773C4.23591 13.9932 4.23994 14.3433 4.35668 14.5588C4.47211 14.7718 4.6987 14.9436 4.93568 14.9978C5.51038 15.129 6.05188 14.5763 5.92328 13.9896C5.8154 13.4974 5.31042 13.1917 4.85358 13.3419ZM8.56855 13.3383C8.34884 13.4111 8.21062 13.5267 8.09281 13.7364C8.00572 13.8915 7.98745 13.9649 7.98745 14.1602C7.98745 15.0996 9.2042 15.3486 9.5861 14.4873C9.87029 13.8464 9.2271 13.1201 8.56855 13.3383ZM12.3483 13.3201C11.7251 13.4856 11.4785 14.2408 11.8943 14.7106C12.0792 14.9195 12.268 15.0085 12.5264 15.0085C13.4069 15.0085 13.6892 13.8079 12.9048 13.3994C12.7368 13.3119 12.504 13.2787 12.3483 13.3201Z" stroke="#777E91" stroke-width="0.4" mask="url(#path-1-outside-1_0_5)"/>
</svg>
