<svg width="18" height="15" viewBox="0 0 18 15" fill="none" xmlns="http://www.w3.org/2000/svg">
<path fill-rule="evenodd" clip-rule="evenodd" d="M5.45867 0.284662L5.10432 0.568143L5.08566 2.85312L5.067 5.13809L3.49108 5.20011C2.62433 5.23424 1.82964 5.30358 1.72511 5.35401C1.29835 5.56025 1.2641 5.89192 1.23504 10.099L1.20646 14.2331L0.655676 14.2687C0.0942655 14.3049 -0.0925959 14.4738 0.0415851 14.8237C0.101234 14.979 1.20894 15.0009 9.02262 15.0009H17.9357L17.8983 14.6761C17.8659 14.394 17.8026 14.3464 17.418 14.3146L16.9751 14.2779V10.0434V5.80876L16.6116 5.50296C16.2602 5.20719 16.1961 5.19715 14.6627 5.19715H13.0772V2.90993V0.622831L12.7659 0.311357L12.4544 0L9.13377 0.000590712L5.81302 0.00118097L5.45867 0.284662ZM12.3399 7.52997L12.3704 14.2922H11.4245H10.4786V12.8157V11.3392H9.1203H7.76196V12.6288C7.76196 13.3381 7.72971 14.0025 7.69026 14.1053C7.63321 14.2539 7.42745 14.2922 6.68626 14.2922H5.75396V7.64218C5.75396 2.57909 5.78822 0.95793 5.8976 0.848553C6.00473 0.741421 6.83674 0.712955 9.17535 0.736342L12.3095 0.767761L12.3399 7.52997ZM6.66406 1.84593C6.51039 1.9996 6.56815 3.75093 6.72843 3.79664C6.8097 3.81979 7.24815 3.83881 7.7029 3.83881H8.52972V2.83481V1.83082L7.63852 1.7968C7.14834 1.77802 6.70989 1.80022 6.66406 1.84593ZM9.67545 1.9135C9.48186 2.10709 9.4867 3.61852 9.68136 3.73912C9.90011 3.8746 11.341 3.88145 11.5122 3.74797C11.6655 3.6282 11.7216 2.30647 11.5881 1.95862C11.5319 1.81215 11.3326 1.77176 10.6668 1.77176C10.1635 1.77176 9.75943 1.82952 9.67545 1.9135ZM7.99819 2.84225C7.99819 3.31259 7.99051 3.32145 7.61431 3.28519C7.31606 3.25649 7.22181 3.18704 7.19157 2.97383C7.1292 2.53397 7.25512 2.36234 7.64018 2.36234C7.98 2.36234 7.99819 2.38667 7.99819 2.84225ZM11.0468 2.86434C11.0829 3.30078 11.0773 3.30728 10.6593 3.30728C10.1863 3.30728 10.0546 3.12869 10.1746 2.65019C10.2392 2.39317 10.3074 2.35348 10.6303 2.38467C10.9762 2.41809 11.0135 2.46109 11.0468 2.86434ZM6.60559 5.81727L6.63984 6.79173H7.58478H8.52972L8.56397 5.81727L8.59834 4.8428H7.58478H6.57122L6.60559 5.81727ZM9.5832 5.00214C9.54966 5.08978 9.53796 5.52835 9.55745 5.97661L9.59277 6.79173H10.5968H11.6008L11.6369 6.08799C11.7001 4.85863 11.6867 4.8428 10.5909 4.8428C9.90554 4.8428 9.6275 4.88674 9.5832 5.00214ZM7.99819 5.8468C7.99819 6.24048 7.97846 6.26021 7.58478 6.26021C7.1911 6.26021 7.17137 6.24048 7.17137 5.8468C7.17137 5.45311 7.1911 5.43339 7.58478 5.43339C7.97846 5.43339 7.99819 5.45311 7.99819 5.8468ZM11.0692 5.8468C11.0692 6.24048 11.0495 6.26021 10.6558 6.26021C10.2621 6.26021 10.2424 6.24048 10.2424 5.8468C10.2424 5.45311 10.2621 5.43339 10.6558 5.43339C11.0495 5.43339 11.0692 5.45311 11.0692 5.8468ZM5.06192 8.9769C5.06262 10.6335 5.05932 12.5071 5.05424 13.1405L5.04526 14.2922H3.50974C2.6652 14.2922 1.96831 14.2522 1.96111 14.2036C1.9539 14.1549 1.92957 12.3667 1.90689 10.2299C1.88067 7.75876 1.90913 6.26363 1.98508 6.12189C2.09375 5.91861 2.23549 5.90184 3.58238 5.93196L5.06038 5.96491L5.06192 8.9769ZM16.2384 10.1285L16.2695 14.2922H14.6733H13.0772V10.1778C13.0772 7.91479 13.1142 6.02645 13.1593 5.98121C13.2044 5.93609 13.9088 5.91389 14.7244 5.93208L16.2073 5.96491L16.2384 10.1285ZM2.61465 6.77331C2.5811 6.8606 2.56953 7.32562 2.58878 7.80683L2.62386 8.68161L3.3276 8.71775C4.55413 8.78083 4.57279 8.76535 4.57279 7.68801C4.57279 6.60901 4.5787 6.61456 3.43733 6.61456C2.90852 6.61456 2.65693 6.6631 2.61465 6.77331ZM13.7511 6.68874C13.7053 6.73457 13.6678 7.18743 13.6678 7.69509C13.6678 8.76441 13.6877 8.78071 14.913 8.71775L15.6167 8.68161V7.67761V6.67362L14.7255 6.6396C14.2354 6.62082 13.7969 6.64302 13.7511 6.68874ZM3.96012 7.64808C3.99567 8.01625 3.97996 8.03196 3.57624 8.03196C3.17263 8.03196 3.15539 8.01472 3.15539 7.61111C3.15539 7.20739 3.1711 7.19168 3.53927 7.22723C3.87685 7.25971 3.92764 7.3105 3.96012 7.64808ZM15.0852 7.61855C15.0852 8.01224 15.0655 8.03196 14.6718 8.03196C14.2781 8.03196 14.2584 8.01224 14.2584 7.61855C14.2584 7.22487 14.2781 7.20514 14.6718 7.20514C15.0655 7.20514 15.0852 7.22487 15.0852 7.61855ZM6.72843 7.87156C6.62803 7.91373 6.58078 8.23194 6.58078 8.86634C6.58078 9.947 6.59897 9.962 7.82597 9.89892L8.52972 9.86278V8.85878V7.85479L7.7029 7.83223C7.24815 7.81971 6.8097 7.83742 6.72843 7.87156ZM9.67545 7.93747C9.59383 8.01909 9.53371 8.40994 9.53371 8.85878C9.53371 9.30763 9.59383 9.69848 9.67545 9.7801C9.75707 9.86172 10.1479 9.92184 10.5968 9.92184C11.0456 9.92184 11.4365 9.86172 11.5181 9.7801C11.6021 9.69612 11.6598 9.29204 11.6598 8.78874C11.6598 8.12291 11.6194 7.92365 11.473 7.86743C11.1394 7.73939 9.82215 7.79077 9.67545 7.93747ZM7.99819 8.85878C7.99819 9.32003 7.98839 9.33125 7.58478 9.33125C7.19499 9.33125 7.17137 9.30881 7.17137 8.93757C7.17137 8.45754 7.23492 8.38632 7.66356 8.38632C7.97527 8.38632 7.99819 8.4188 7.99819 8.85878ZM11.0468 8.88831C11.0827 9.32157 11.0745 9.33125 10.6764 9.33125C10.3194 9.33125 10.2632 9.28991 10.22 8.9958C10.145 8.48483 10.2274 8.36931 10.6383 8.40923C10.9751 8.44195 11.0136 8.48719 11.0468 8.88831ZM2.58949 10.6552L2.62386 11.6345H3.5688H4.51373V10.6896V9.74466L3.53443 9.71029L2.55512 9.67592L2.58949 10.6552ZM13.6678 10.6943V11.7032L14.6423 11.6688L15.6167 11.6345L15.651 10.6601L15.6854 9.6856H14.6765H13.6678V10.6943ZM3.98221 10.6896C3.98221 11.0833 3.96248 11.103 3.5688 11.103C3.17511 11.103 3.15539 11.0833 3.15539 10.6896C3.15539 10.2959 3.17511 10.2762 3.5688 10.2762C3.96248 10.2762 3.98221 10.2959 3.98221 10.6896ZM15.0852 10.6896C15.0852 11.0833 15.0655 11.103 14.6718 11.103C14.2781 11.103 14.2584 11.0833 14.2584 10.6896C14.2584 10.2959 14.2781 10.2762 14.6718 10.2762C15.0655 10.2762 15.0852 10.2959 15.0852 10.6896ZM9.86267 13.0815L9.89633 14.2922H9.13707C8.24057 14.2922 8.23442 14.2838 8.23442 13.0519C8.23442 11.8098 8.24529 11.7946 9.10542 11.836L9.829 11.8708L9.86267 13.0815Z" fill="#FCFCFD"/>
</svg>
