<svg width="28" height="20" viewBox="0 0 28 20" fill="none" xmlns="http://www.w3.org/2000/svg">
<mask id="path-1-outside-1_0_342" maskUnits="userSpaceOnUse" x="-0.500279" y="-0.500279" width="29.0162" height="21.0117" fill="black">
<rect fill="white" x="-0.500279" y="-0.500279" width="29.0162" height="21.0117"/>
<path fill-rule="evenodd" clip-rule="evenodd" d="M5.02608 0.52357C4.91358 0.540071 4.79241 0.581937 4.75675 0.616575C4.72109 0.651213 4.64956 0.67951 4.59774 0.67951C4.43587 0.67951 3.91746 1.15251 3.75218 1.4511C3.59487 1.73522 3.59412 1.74859 3.57319 4.6824L3.55219 7.62848L3.24133 7.95529C3.07032 8.1351 2.88125 8.35888 2.82111 8.45264C2.7609 8.54639 2.45004 8.97712 2.13018 9.40982C1.81033 9.84252 1.51795 10.2461 1.48045 10.3067C1.44294 10.3672 1.28155 10.6115 1.12179 10.8496C0.548831 11.7034 0.4786 12.1091 0.504919 14.4162L0.525852 16.2545L0.757546 16.4106C0.960056 16.5471 1.07386 16.5667 1.661 16.5667C2.14778 16.5667 2.33542 16.5901 2.34245 16.6519C2.34776 16.6988 2.35588 17.0747 2.36058 17.4872C2.3704 18.355 2.46695 18.6359 2.85806 18.9345C3.10101 19.12 3.1263 19.124 4.17731 19.1453L5.24891 19.1669L5.37724 18.9748C5.48906 18.8073 5.5042 18.6603 5.49499 17.8281C5.48913 17.3031 5.51279 16.8198 5.54743 16.7542C5.60695 16.6416 6.07907 16.6349 13.9925 16.6349H22.3745L22.4504 16.7767C22.5007 16.8709 22.5145 17.2306 22.4913 17.8465C22.459 18.7057 22.4668 18.7889 22.5971 18.9719L22.7378 19.1694L23.8083 19.1465C24.8601 19.124 24.8834 19.1203 25.1293 18.9326C25.5521 18.6099 25.6147 18.4198 25.6165 17.4531L25.618 16.6008L26.3799 16.5667C27.0701 16.5358 27.1586 16.5168 27.3195 16.3655L27.497 16.1984L27.4747 14.2176C27.4523 12.2304 27.4194 11.9193 27.1745 11.3846C27.0212 11.0495 26.5377 10.3247 25.8559 9.40723C25.5354 8.97596 25.2239 8.54639 25.1635 8.45264C25.1032 8.35888 24.8797 8.10775 24.6667 7.89454L24.2796 7.50691L24.2859 4.97921C24.2931 2.10486 24.252 1.68436 23.9224 1.25909C23.6671 0.929818 23.5841 0.857883 23.2316 0.661236L22.9588 0.509047L14.0947 0.501274C9.21948 0.496978 5.13859 0.507001 5.02608 0.52357ZM22.768 1.16035C23.1443 1.24286 23.3103 1.36382 23.5232 1.71034C23.6729 1.9541 23.6748 1.98853 23.6748 4.59116C23.6748 7.46033 23.6939 7.33385 23.2905 7.12343C23.1831 7.06745 22.9812 7.02143 22.8418 7.02115C22.7024 7.02095 22.4831 6.97049 22.3543 6.90906L22.1201 6.79744L22.0963 5.69877C22.0738 4.66515 22.0626 4.58605 21.9062 4.36152C21.5537 3.85545 21.184 3.6155 20.3678 3.36301C20.0137 3.25344 19.7204 3.23646 18.1858 3.23646C16.6033 3.23646 16.3691 3.25091 16.0039 3.37126C15.3056 3.60132 14.8584 3.91668 14.5513 4.39561C14.3965 4.63692 14.3729 4.75706 14.3462 5.43844L14.316 6.20859L13.8985 6.18847L13.4811 6.16843L13.4974 5.69113C13.5317 4.68601 13.3043 4.18362 12.6107 3.73183C11.9524 3.30314 11.1198 3.18096 9.15129 3.22405C7.90507 3.25132 7.62906 3.27669 7.31029 3.39335C6.57478 3.66241 6.24217 3.90747 5.92026 4.41743C5.74857 4.68935 5.74203 4.73729 5.74203 5.7212C5.74203 6.92604 5.717 6.97608 5.08159 7.04168C4.87164 7.06336 4.66736 7.11354 4.62774 7.15316C4.5269 7.25401 4.17418 7.24385 4.17193 7.14007C4.1709 7.09323 4.1707 5.91116 4.17138 4.5133C4.17261 2.1397 4.18133 1.95492 4.30393 1.7177C4.44692 1.44094 4.62372 1.30252 4.99199 1.1791C5.31321 1.07144 22.2806 1.05351 22.768 1.16035ZM11.2991 3.88463C11.8384 3.99741 12.3392 4.20183 12.5236 4.3845C12.8613 4.71908 12.9076 4.87052 12.8869 5.57317L12.8674 6.23661L11.8105 6.28155C10.0344 6.35703 8.38162 6.47308 8.09442 6.54249C7.94441 6.5787 7.66826 6.60986 7.48075 6.61163C7.29324 6.61341 7.01709 6.64695 6.86709 6.68616C6.71708 6.72543 6.52527 6.77425 6.44093 6.79478L6.28751 6.83208V5.90271C6.28751 4.91034 6.30681 4.83513 6.66253 4.44259C6.90595 4.17394 7.2644 4.00545 7.82168 3.89772C8.04669 3.85429 8.29216 3.80465 8.36716 3.78746C8.63629 3.72596 10.8985 3.8009 11.2991 3.88463ZM19.9587 3.88504C20.3644 3.96836 20.9544 4.21171 21.1529 4.37754C21.4626 4.63637 21.5246 4.84891 21.5457 5.72522C21.5571 6.194 21.5406 6.61552 21.5091 6.66188C21.4667 6.72427 21.3906 6.72871 21.217 6.67893C21.0879 6.64191 20.798 6.61088 20.5728 6.61C20.3475 6.60911 20.0405 6.5787 19.8905 6.54249C19.6122 6.47526 18.2911 6.38008 16.1977 6.2763C15.5543 6.24445 14.9943 6.19761 14.9533 6.17231C14.9102 6.14565 14.8789 5.91157 14.8789 5.61667C14.8789 5.21165 14.913 5.03969 15.0451 4.77895C15.2539 4.36697 15.737 4.0238 16.2426 3.92834C16.3738 3.90358 16.6039 3.85456 16.754 3.81944C17.1235 3.73292 19.4502 3.78051 19.9587 3.88504ZM18.5609 7.01215C18.8796 7.05381 19.4473 7.11893 19.8223 7.15698C21.259 7.30255 23.1347 7.67532 23.5168 7.8912C23.5988 7.9375 23.7003 7.97534 23.7425 7.97534C23.8767 7.97534 24.4455 8.44889 24.6259 8.71078C24.7215 8.84954 24.8305 8.99791 24.868 9.04046C24.9055 9.08301 24.9822 9.18529 25.0385 9.26772C25.0947 9.35023 25.3248 9.67322 25.5499 9.98551C25.7749 10.2978 26.005 10.6211 26.0613 10.7041C26.1175 10.787 26.2177 10.9258 26.2838 11.0124C26.3499 11.099 26.5023 11.3639 26.6223 11.6011L26.8406 12.0324L26.8672 13.9331C26.8889 15.48 26.8766 15.8447 26.8014 15.8924C26.6392 15.9952 25.7211 15.9661 25.6791 15.8568C25.6588 15.8039 25.6357 15.2132 25.6277 14.5442C25.6116 13.1936 25.5705 13.0373 25.1461 12.7137L24.9233 12.5438H13.9925H3.0616L2.83883 12.7137C2.41915 13.0338 2.37695 13.1938 2.35342 14.5552C2.3417 15.2303 2.3179 15.8209 2.30051 15.8678C2.26369 15.967 1.33303 15.9871 1.18282 15.892C1.10665 15.8437 1.0952 15.4882 1.11954 13.9327C1.14593 12.2476 1.16393 12.0015 1.27848 11.7596C1.43565 11.4278 1.86692 10.7454 1.93933 10.7141C1.96824 10.7016 1.99184 10.6641 1.99184 10.6308C1.99184 10.5975 2.19128 10.3088 2.43504 9.98933C2.6788 9.66988 2.87825 9.39155 2.87825 9.37089C2.87825 9.33618 2.9332 9.26275 3.12071 9.04687C3.16026 9.00132 3.27004 8.84961 3.36461 8.70983C3.54189 8.4478 4.10647 7.97534 4.24236 7.97534C4.28457 7.97534 4.3861 7.9375 4.46805 7.8912C4.75464 7.72926 5.21305 7.63257 7.10573 7.33487C7.462 7.27883 7.81486 7.21657 7.88987 7.19653C7.96487 7.17648 8.47114 7.12404 9.01492 7.07993C9.5587 7.03588 10.2798 6.97751 10.6173 6.95031C11.5499 6.8751 17.8899 6.92447 18.5609 7.01215ZM24.7888 13.1886C24.8577 13.2408 24.941 13.4009 24.974 13.5444C25.0592 13.9165 25.047 17.9126 24.9597 18.1903C24.8653 18.4906 24.6975 18.5441 23.8488 18.5441C23.002 18.5441 23.0633 18.6463 23.0621 17.2339C23.0612 16.3122 23.0504 16.2248 22.9292 16.16C22.7455 16.0616 5.23943 16.0616 5.05567 16.16C4.93451 16.2248 4.92374 16.3122 4.92285 17.2339C4.92155 18.6717 4.99854 18.5596 4.03126 18.5325C3.5541 18.5192 3.19435 18.4786 3.14887 18.4331C2.98673 18.2705 2.95632 17.7691 2.98639 15.7533C3.02089 13.4426 3.03173 13.3135 3.20233 13.184C3.38445 13.0457 24.6062 13.0502 24.7888 13.1886Z"/>
</mask>
<path fill-rule="evenodd" clip-rule="evenodd" d="M5.02608 0.52357C4.91358 0.540071 4.79241 0.581937 4.75675 0.616575C4.72109 0.651213 4.64956 0.67951 4.59774 0.67951C4.43587 0.67951 3.91746 1.15251 3.75218 1.4511C3.59487 1.73522 3.59412 1.74859 3.57319 4.6824L3.55219 7.62848L3.24133 7.95529C3.07032 8.1351 2.88125 8.35888 2.82111 8.45264C2.7609 8.54639 2.45004 8.97712 2.13018 9.40982C1.81033 9.84252 1.51795 10.2461 1.48045 10.3067C1.44294 10.3672 1.28155 10.6115 1.12179 10.8496C0.548831 11.7034 0.4786 12.1091 0.504919 14.4162L0.525852 16.2545L0.757546 16.4106C0.960056 16.5471 1.07386 16.5667 1.661 16.5667C2.14778 16.5667 2.33542 16.5901 2.34245 16.6519C2.34776 16.6988 2.35588 17.0747 2.36058 17.4872C2.3704 18.355 2.46695 18.6359 2.85806 18.9345C3.10101 19.12 3.1263 19.124 4.17731 19.1453L5.24891 19.1669L5.37724 18.9748C5.48906 18.8073 5.5042 18.6603 5.49499 17.8281C5.48913 17.3031 5.51279 16.8198 5.54743 16.7542C5.60695 16.6416 6.07907 16.6349 13.9925 16.6349H22.3745L22.4504 16.7767C22.5007 16.8709 22.5145 17.2306 22.4913 17.8465C22.459 18.7057 22.4668 18.7889 22.5971 18.9719L22.7378 19.1694L23.8083 19.1465C24.8601 19.124 24.8834 19.1203 25.1293 18.9326C25.5521 18.6099 25.6147 18.4198 25.6165 17.4531L25.618 16.6008L26.3799 16.5667C27.0701 16.5358 27.1586 16.5168 27.3195 16.3655L27.497 16.1984L27.4747 14.2176C27.4523 12.2304 27.4194 11.9193 27.1745 11.3846C27.0212 11.0495 26.5377 10.3247 25.8559 9.40723C25.5354 8.97596 25.2239 8.54639 25.1635 8.45264C25.1032 8.35888 24.8797 8.10775 24.6667 7.89454L24.2796 7.50691L24.2859 4.97921C24.2931 2.10486 24.252 1.68436 23.9224 1.25909C23.6671 0.929818 23.5841 0.857883 23.2316 0.661236L22.9588 0.509047L14.0947 0.501274C9.21948 0.496978 5.13859 0.507001 5.02608 0.52357ZM22.768 1.16035C23.1443 1.24286 23.3103 1.36382 23.5232 1.71034C23.6729 1.9541 23.6748 1.98853 23.6748 4.59116C23.6748 7.46033 23.6939 7.33385 23.2905 7.12343C23.1831 7.06745 22.9812 7.02143 22.8418 7.02115C22.7024 7.02095 22.4831 6.97049 22.3543 6.90906L22.1201 6.79744L22.0963 5.69877C22.0738 4.66515 22.0626 4.58605 21.9062 4.36152C21.5537 3.85545 21.184 3.6155 20.3678 3.36301C20.0137 3.25344 19.7204 3.23646 18.1858 3.23646C16.6033 3.23646 16.3691 3.25091 16.0039 3.37126C15.3056 3.60132 14.8584 3.91668 14.5513 4.39561C14.3965 4.63692 14.3729 4.75706 14.3462 5.43844L14.316 6.20859L13.8985 6.18847L13.4811 6.16843L13.4974 5.69113C13.5317 4.68601 13.3043 4.18362 12.6107 3.73183C11.9524 3.30314 11.1198 3.18096 9.15129 3.22405C7.90507 3.25132 7.62906 3.27669 7.31029 3.39335C6.57478 3.66241 6.24217 3.90747 5.92026 4.41743C5.74857 4.68935 5.74203 4.73729 5.74203 5.7212C5.74203 6.92604 5.717 6.97608 5.08159 7.04168C4.87164 7.06336 4.66736 7.11354 4.62774 7.15316C4.5269 7.25401 4.17418 7.24385 4.17193 7.14007C4.1709 7.09323 4.1707 5.91116 4.17138 4.5133C4.17261 2.1397 4.18133 1.95492 4.30393 1.7177C4.44692 1.44094 4.62372 1.30252 4.99199 1.1791C5.31321 1.07144 22.2806 1.05351 22.768 1.16035ZM11.2991 3.88463C11.8384 3.99741 12.3392 4.20183 12.5236 4.3845C12.8613 4.71908 12.9076 4.87052 12.8869 5.57317L12.8674 6.23661L11.8105 6.28155C10.0344 6.35703 8.38162 6.47308 8.09442 6.54249C7.94441 6.5787 7.66826 6.60986 7.48075 6.61163C7.29324 6.61341 7.01709 6.64695 6.86709 6.68616C6.71708 6.72543 6.52527 6.77425 6.44093 6.79478L6.28751 6.83208V5.90271C6.28751 4.91034 6.30681 4.83513 6.66253 4.44259C6.90595 4.17394 7.2644 4.00545 7.82168 3.89772C8.04669 3.85429 8.29216 3.80465 8.36716 3.78746C8.63629 3.72596 10.8985 3.8009 11.2991 3.88463ZM19.9587 3.88504C20.3644 3.96836 20.9544 4.21171 21.1529 4.37754C21.4626 4.63637 21.5246 4.84891 21.5457 5.72522C21.5571 6.194 21.5406 6.61552 21.5091 6.66188C21.4667 6.72427 21.3906 6.72871 21.217 6.67893C21.0879 6.64191 20.798 6.61088 20.5728 6.61C20.3475 6.60911 20.0405 6.5787 19.8905 6.54249C19.6122 6.47526 18.2911 6.38008 16.1977 6.2763C15.5543 6.24445 14.9943 6.19761 14.9533 6.17231C14.9102 6.14565 14.8789 5.91157 14.8789 5.61667C14.8789 5.21165 14.913 5.03969 15.0451 4.77895C15.2539 4.36697 15.737 4.0238 16.2426 3.92834C16.3738 3.90358 16.6039 3.85456 16.754 3.81944C17.1235 3.73292 19.4502 3.78051 19.9587 3.88504ZM18.5609 7.01215C18.8796 7.05381 19.4473 7.11893 19.8223 7.15698C21.259 7.30255 23.1347 7.67532 23.5168 7.8912C23.5988 7.9375 23.7003 7.97534 23.7425 7.97534C23.8767 7.97534 24.4455 8.44889 24.6259 8.71078C24.7215 8.84954 24.8305 8.99791 24.868 9.04046C24.9055 9.08301 24.9822 9.18529 25.0385 9.26772C25.0947 9.35023 25.3248 9.67322 25.5499 9.98551C25.7749 10.2978 26.005 10.6211 26.0613 10.7041C26.1175 10.787 26.2177 10.9258 26.2838 11.0124C26.3499 11.099 26.5023 11.3639 26.6223 11.6011L26.8406 12.0324L26.8672 13.9331C26.8889 15.48 26.8766 15.8447 26.8014 15.8924C26.6392 15.9952 25.7211 15.9661 25.6791 15.8568C25.6588 15.8039 25.6357 15.2132 25.6277 14.5442C25.6116 13.1936 25.5705 13.0373 25.1461 12.7137L24.9233 12.5438H13.9925H3.0616L2.83883 12.7137C2.41915 13.0338 2.37695 13.1938 2.35342 14.5552C2.3417 15.2303 2.3179 15.8209 2.30051 15.8678C2.26369 15.967 1.33303 15.9871 1.18282 15.892C1.10665 15.8437 1.0952 15.4882 1.11954 13.9327C1.14593 12.2476 1.16393 12.0015 1.27848 11.7596C1.43565 11.4278 1.86692 10.7454 1.93933 10.7141C1.96824 10.7016 1.99184 10.6641 1.99184 10.6308C1.99184 10.5975 2.19128 10.3088 2.43504 9.98933C2.6788 9.66988 2.87825 9.39155 2.87825 9.37089C2.87825 9.33618 2.9332 9.26275 3.12071 9.04687C3.16026 9.00132 3.27004 8.84961 3.36461 8.70983C3.54189 8.4478 4.10647 7.97534 4.24236 7.97534C4.28457 7.97534 4.3861 7.9375 4.46805 7.8912C4.75464 7.72926 5.21305 7.63257 7.10573 7.33487C7.462 7.27883 7.81486 7.21657 7.88987 7.19653C7.96487 7.17648 8.47114 7.12404 9.01492 7.07993C9.5587 7.03588 10.2798 6.97751 10.6173 6.95031C11.5499 6.8751 17.8899 6.92447 18.5609 7.01215ZM24.7888 13.1886C24.8577 13.2408 24.941 13.4009 24.974 13.5444C25.0592 13.9165 25.047 17.9126 24.9597 18.1903C24.8653 18.4906 24.6975 18.5441 23.8488 18.5441C23.002 18.5441 23.0633 18.6463 23.0621 17.2339C23.0612 16.3122 23.0504 16.2248 22.9292 16.16C22.7455 16.0616 5.23943 16.0616 5.05567 16.16C4.93451 16.2248 4.92374 16.3122 4.92285 17.2339C4.92155 18.6717 4.99854 18.5596 4.03126 18.5325C3.5541 18.5192 3.19435 18.4786 3.14887 18.4331C2.98673 18.2705 2.95632 17.7691 2.98639 15.7533C3.02089 13.4426 3.03173 13.3135 3.20233 13.184C3.38445 13.0457 24.6062 13.0502 24.7888 13.1886Z" fill="#777E91"/>
<path fill-rule="evenodd" clip-rule="evenodd" d="M5.02608 0.52357C4.91358 0.540071 4.79241 0.581937 4.75675 0.616575C4.72109 0.651213 4.64956 0.67951 4.59774 0.67951C4.43587 0.67951 3.91746 1.15251 3.75218 1.4511C3.59487 1.73522 3.59412 1.74859 3.57319 4.6824L3.55219 7.62848L3.24133 7.95529C3.07032 8.1351 2.88125 8.35888 2.82111 8.45264C2.7609 8.54639 2.45004 8.97712 2.13018 9.40982C1.81033 9.84252 1.51795 10.2461 1.48045 10.3067C1.44294 10.3672 1.28155 10.6115 1.12179 10.8496C0.548831 11.7034 0.4786 12.1091 0.504919 14.4162L0.525852 16.2545L0.757546 16.4106C0.960056 16.5471 1.07386 16.5667 1.661 16.5667C2.14778 16.5667 2.33542 16.5901 2.34245 16.6519C2.34776 16.6988 2.35588 17.0747 2.36058 17.4872C2.3704 18.355 2.46695 18.6359 2.85806 18.9345C3.10101 19.12 3.1263 19.124 4.17731 19.1453L5.24891 19.1669L5.37724 18.9748C5.48906 18.8073 5.5042 18.6603 5.49499 17.8281C5.48913 17.3031 5.51279 16.8198 5.54743 16.7542C5.60695 16.6416 6.07907 16.6349 13.9925 16.6349H22.3745L22.4504 16.7767C22.5007 16.8709 22.5145 17.2306 22.4913 17.8465C22.459 18.7057 22.4668 18.7889 22.5971 18.9719L22.7378 19.1694L23.8083 19.1465C24.8601 19.124 24.8834 19.1203 25.1293 18.9326C25.5521 18.6099 25.6147 18.4198 25.6165 17.4531L25.618 16.6008L26.3799 16.5667C27.0701 16.5358 27.1586 16.5168 27.3195 16.3655L27.497 16.1984L27.4747 14.2176C27.4523 12.2304 27.4194 11.9193 27.1745 11.3846C27.0212 11.0495 26.5377 10.3247 25.8559 9.40723C25.5354 8.97596 25.2239 8.54639 25.1635 8.45264C25.1032 8.35888 24.8797 8.10775 24.6667 7.89454L24.2796 7.50691L24.2859 4.97921C24.2931 2.10486 24.252 1.68436 23.9224 1.25909C23.6671 0.929818 23.5841 0.857883 23.2316 0.661236L22.9588 0.509047L14.0947 0.501274C9.21948 0.496978 5.13859 0.507001 5.02608 0.52357ZM22.768 1.16035C23.1443 1.24286 23.3103 1.36382 23.5232 1.71034C23.6729 1.9541 23.6748 1.98853 23.6748 4.59116C23.6748 7.46033 23.6939 7.33385 23.2905 7.12343C23.1831 7.06745 22.9812 7.02143 22.8418 7.02115C22.7024 7.02095 22.4831 6.97049 22.3543 6.90906L22.1201 6.79744L22.0963 5.69877C22.0738 4.66515 22.0626 4.58605 21.9062 4.36152C21.5537 3.85545 21.184 3.6155 20.3678 3.36301C20.0137 3.25344 19.7204 3.23646 18.1858 3.23646C16.6033 3.23646 16.3691 3.25091 16.0039 3.37126C15.3056 3.60132 14.8584 3.91668 14.5513 4.39561C14.3965 4.63692 14.3729 4.75706 14.3462 5.43844L14.316 6.20859L13.8985 6.18847L13.4811 6.16843L13.4974 5.69113C13.5317 4.68601 13.3043 4.18362 12.6107 3.73183C11.9524 3.30314 11.1198 3.18096 9.15129 3.22405C7.90507 3.25132 7.62906 3.27669 7.31029 3.39335C6.57478 3.66241 6.24217 3.90747 5.92026 4.41743C5.74857 4.68935 5.74203 4.73729 5.74203 5.7212C5.74203 6.92604 5.717 6.97608 5.08159 7.04168C4.87164 7.06336 4.66736 7.11354 4.62774 7.15316C4.5269 7.25401 4.17418 7.24385 4.17193 7.14007C4.1709 7.09323 4.1707 5.91116 4.17138 4.5133C4.17261 2.1397 4.18133 1.95492 4.30393 1.7177C4.44692 1.44094 4.62372 1.30252 4.99199 1.1791C5.31321 1.07144 22.2806 1.05351 22.768 1.16035ZM11.2991 3.88463C11.8384 3.99741 12.3392 4.20183 12.5236 4.3845C12.8613 4.71908 12.9076 4.87052 12.8869 5.57317L12.8674 6.23661L11.8105 6.28155C10.0344 6.35703 8.38162 6.47308 8.09442 6.54249C7.94441 6.5787 7.66826 6.60986 7.48075 6.61163C7.29324 6.61341 7.01709 6.64695 6.86709 6.68616C6.71708 6.72543 6.52527 6.77425 6.44093 6.79478L6.28751 6.83208V5.90271C6.28751 4.91034 6.30681 4.83513 6.66253 4.44259C6.90595 4.17394 7.2644 4.00545 7.82168 3.89772C8.04669 3.85429 8.29216 3.80465 8.36716 3.78746C8.63629 3.72596 10.8985 3.8009 11.2991 3.88463ZM19.9587 3.88504C20.3644 3.96836 20.9544 4.21171 21.1529 4.37754C21.4626 4.63637 21.5246 4.84891 21.5457 5.72522C21.5571 6.194 21.5406 6.61552 21.5091 6.66188C21.4667 6.72427 21.3906 6.72871 21.217 6.67893C21.0879 6.64191 20.798 6.61088 20.5728 6.61C20.3475 6.60911 20.0405 6.5787 19.8905 6.54249C19.6122 6.47526 18.2911 6.38008 16.1977 6.2763C15.5543 6.24445 14.9943 6.19761 14.9533 6.17231C14.9102 6.14565 14.8789 5.91157 14.8789 5.61667C14.8789 5.21165 14.913 5.03969 15.0451 4.77895C15.2539 4.36697 15.737 4.0238 16.2426 3.92834C16.3738 3.90358 16.6039 3.85456 16.754 3.81944C17.1235 3.73292 19.4502 3.78051 19.9587 3.88504ZM18.5609 7.01215C18.8796 7.05381 19.4473 7.11893 19.8223 7.15698C21.259 7.30255 23.1347 7.67532 23.5168 7.8912C23.5988 7.9375 23.7003 7.97534 23.7425 7.97534C23.8767 7.97534 24.4455 8.44889 24.6259 8.71078C24.7215 8.84954 24.8305 8.99791 24.868 9.04046C24.9055 9.08301 24.9822 9.18529 25.0385 9.26772C25.0947 9.35023 25.3248 9.67322 25.5499 9.98551C25.7749 10.2978 26.005 10.6211 26.0613 10.7041C26.1175 10.787 26.2177 10.9258 26.2838 11.0124C26.3499 11.099 26.5023 11.3639 26.6223 11.6011L26.8406 12.0324L26.8672 13.9331C26.8889 15.48 26.8766 15.8447 26.8014 15.8924C26.6392 15.9952 25.7211 15.9661 25.6791 15.8568C25.6588 15.8039 25.6357 15.2132 25.6277 14.5442C25.6116 13.1936 25.5705 13.0373 25.1461 12.7137L24.9233 12.5438H13.9925H3.0616L2.83883 12.7137C2.41915 13.0338 2.37695 13.1938 2.35342 14.5552C2.3417 15.2303 2.3179 15.8209 2.30051 15.8678C2.26369 15.967 1.33303 15.9871 1.18282 15.892C1.10665 15.8437 1.0952 15.4882 1.11954 13.9327C1.14593 12.2476 1.16393 12.0015 1.27848 11.7596C1.43565 11.4278 1.86692 10.7454 1.93933 10.7141C1.96824 10.7016 1.99184 10.6641 1.99184 10.6308C1.99184 10.5975 2.19128 10.3088 2.43504 9.98933C2.6788 9.66988 2.87825 9.39155 2.87825 9.37089C2.87825 9.33618 2.9332 9.26275 3.12071 9.04687C3.16026 9.00132 3.27004 8.84961 3.36461 8.70983C3.54189 8.4478 4.10647 7.97534 4.24236 7.97534C4.28457 7.97534 4.3861 7.9375 4.46805 7.8912C4.75464 7.72926 5.21305 7.63257 7.10573 7.33487C7.462 7.27883 7.81486 7.21657 7.88987 7.19653C7.96487 7.17648 8.47114 7.12404 9.01492 7.07993C9.5587 7.03588 10.2798 6.97751 10.6173 6.95031C11.5499 6.8751 17.8899 6.92447 18.5609 7.01215ZM24.7888 13.1886C24.8577 13.2408 24.941 13.4009 24.974 13.5444C25.0592 13.9165 25.047 17.9126 24.9597 18.1903C24.8653 18.4906 24.6975 18.5441 23.8488 18.5441C23.002 18.5441 23.0633 18.6463 23.0621 17.2339C23.0612 16.3122 23.0504 16.2248 22.9292 16.16C22.7455 16.0616 5.23943 16.0616 5.05567 16.16C4.93451 16.2248 4.92374 16.3122 4.92285 17.2339C4.92155 18.6717 4.99854 18.5596 4.03126 18.5325C3.5541 18.5192 3.19435 18.4786 3.14887 18.4331C2.98673 18.2705 2.95632 17.7691 2.98639 15.7533C3.02089 13.4426 3.03173 13.3135 3.20233 13.184C3.38445 13.0457 24.6062 13.0502 24.7888 13.1886Z" stroke="#3B71FE" mask="url(#path-1-outside-1_0_342)"/>
</svg>
