<svg width="16" height="16" viewBox="0 0 16 16" fill="none" xmlns="http://www.w3.org/2000/svg">
<path d="M7.3887 2.08417C7.6203 1.54747 8.38131 1.54747 8.61291 2.08417L10.0663 5.45209C10.1643 5.67935 10.3802 5.83356 10.627 5.85263L14.3541 6.14063C14.9521 6.18684 15.1897 6.93754 14.7272 7.3194L11.9243 9.63359C11.7266 9.79682 11.64 10.059 11.7016 10.3078L12.5642 13.7934C12.7061 14.3666 12.0877 14.8276 11.5788 14.5281L8.33902 12.6207C8.13028 12.4979 7.87132 12.4979 7.66259 12.6207L4.42276 14.5281C3.9139 14.8276 3.29554 14.3666 3.4374 13.7934L4.30003 10.3078C4.36162 10.059 4.27504 9.79682 4.07734 9.63359L1.27441 7.3194C0.811906 6.93754 1.04951 6.18684 1.6475 6.14063L5.3746 5.85263C5.62138 5.83356 5.83728 5.67935 5.93535 5.45209L7.3887 2.08417Z" fill="#FCFCFD"/>
</svg>
