<svg width="21" height="21" viewBox="0 0 21 21" fill="none" xmlns="http://www.w3.org/2000/svg">
<path fill-rule="evenodd" clip-rule="evenodd" d="M10.5 11.375C7.11726 11.375 4.375 14.1173 4.375 17.5V19.25C4.375 19.7332 3.98325 20.125 3.5 20.125C3.01675 20.125 2.625 19.7332 2.625 19.25V17.5C2.625 13.1508 6.15076 9.625 10.5 9.625C14.8492 9.625 18.375 13.1508 18.375 17.5V19.25C18.375 19.7332 17.9832 20.125 17.5 20.125C17.0168 20.125 16.625 19.7332 16.625 19.25V17.5C16.625 14.1173 13.8827 11.375 10.5 11.375Z" fill="#3B71FE"/>
<path fill-rule="evenodd" clip-rule="evenodd" d="M10.5 9.625C12.433 9.625 14 8.058 14 6.125C14 4.192 12.433 2.625 10.5 2.625C8.567 2.625 7 4.192 7 6.125C7 8.058 8.567 9.625 10.5 9.625ZM10.5 11.375C13.3995 11.375 15.75 9.0245 15.75 6.125C15.75 3.22551 13.3995 0.875 10.5 0.875C7.60051 0.875 5.25 3.22551 5.25 6.125C5.25 9.0245 7.60051 11.375 10.5 11.375Z" fill="#3B71FE"/>
</svg>
