<svg width="16" height="19" viewBox="0 0 16 19" fill="none" xmlns="http://www.w3.org/2000/svg">
<path d="M3.38301 0.0539063H4.6161V6.61936H3.38301V0.0539063Z" fill="#3B71FE" stroke="white" stroke-width="0.1"/>
<path d="M3.38273 9.9411V9.89884L3.34106 9.8918C2.4215 9.73637 1.58661 9.26052 0.984257 8.54854C0.381901 7.83655 0.0509451 6.93437 0.05 6.00176L0.05 0.0529036H1.28309V6.00181C1.28309 6.72219 1.56926 7.41306 2.07864 7.92245C2.58803 8.43183 3.2789 8.718 3.99927 8.718C4.71965 8.718 5.41052 8.43183 5.91991 7.92245C6.42929 7.41306 6.71546 6.72219 6.71546 6.00181V0.0529036H7.94855V6.00176C7.9476 6.93437 7.61665 7.83655 7.01429 8.54854C6.41194 9.26052 5.57705 9.73637 4.65749 9.8918L4.61582 9.89884V9.9411V18.6162H3.38273V9.9411ZM11.9978 0.0529036V0.0529413L11.9998 0.0528659C12.5236 0.0325176 13.046 0.120699 13.5341 0.311873C14.0222 0.503046 14.4656 0.793082 14.8362 1.16377C15.2069 1.53445 15.497 1.97777 15.6881 2.4659C15.8793 2.95402 15.9675 3.47641 15.9471 4.00024L15.9471 4.00024V4.00218V10.6676C15.9471 11.0079 15.8119 11.3343 15.5713 11.5749C15.3307 11.8155 15.0043 11.9507 14.664 11.9507H12.6644H12.6144V12.0007V18.6162H11.3813V0.0529036H11.9978ZM14.664 10.7176H14.714V10.6676V4.00218C14.714 3.87545 14.6937 3.30917 14.4296 2.72595C14.1646 2.14068 13.6531 1.5373 12.6739 1.3469L12.6144 1.33533V1.39598V10.6676V10.7176H12.6644H14.664Z" fill="#3B71FE" stroke="white" stroke-width="0.1"/>
</svg>
