<svg width="15" height="13" viewBox="0 0 15 13" fill="none" xmlns="http://www.w3.org/2000/svg">
<path d="M4.05386 6.30188C3.75976 6.08936 3.4248 5.74337 3.23897 5.45767C2.65508 4.56009 2.50594 3.52729 2.81446 2.51018C3.16183 1.36496 4.11657 0.464438 5.25543 0.215705C5.42496 0.178676 5.6582 0.159071 5.88495 0.155496C6.11167 0.151922 6.34505 0.164164 6.5149 0.195876C7.1935 0.322569 7.84465 0.69416 8.32872 1.22724C9.16584 2.14911 9.43373 3.49758 9.01743 4.6834C8.7987 5.30642 8.35287 5.91022 7.82515 6.30112C7.91423 6.32944 8.07926 6.39198 8.21694 6.44892L8.21695 6.44893C9.56662 7.00726 10.627 8.01511 11.2224 9.30904C11.5075 9.92842 11.6458 10.4699 11.698 11.1687M4.05386 6.30188L11.5444 11.1801M4.05386 6.30188L3.95011 6.33735L3.95011 6.33735C3.54915 6.47447 2.90618 6.80043 2.56289 7.04079C1.44128 7.82611 0.66898 8.90629 0.336725 10.1622L0.336724 10.1622C0.197209 10.6896 0.145344 11.2001 0.156317 11.9035L0.310391 11.9011M4.05386 6.30188L1.05938 12.4447C1.05062 12.4903 1.0267 12.534 1.00863 12.5631C0.987956 12.5963 0.961513 12.6312 0.93271 12.6612C0.757339 12.8435 0.483187 12.8241 0.306098 12.6597L0.214331 12.5746L0.166112 12.5298L0.165083 12.464L0.156317 11.9035L0.310391 11.9011M11.698 11.1687L11.5444 11.1801M11.698 11.1687C11.698 11.1687 11.698 11.1686 11.698 11.1686L11.5444 11.1801M11.698 11.1687C11.716 11.4093 11.7248 11.6855 11.7246 11.919C11.7245 12.0358 11.7221 12.1432 11.7173 12.231C11.7128 12.3137 11.7057 12.3928 11.692 12.4441C11.6281 12.6829 11.4228 12.7973 11.2256 12.7851C11.0297 12.773 10.8389 12.6365 10.7927 12.3963L10.7926 12.3963C10.7878 12.3711 10.7851 12.3316 10.7831 12.294C10.7809 12.252 10.7789 12.1984 10.7772 12.1373C10.7739 12.015 10.7718 11.8598 10.7718 11.701C10.7715 10.9437 10.6976 10.5071 10.4789 9.94011C10.0179 8.74455 8.96094 7.72719 7.70202 7.2733C7.07105 7.04583 6.6295 6.96789 5.95201 6.96456C5.07011 6.96024 4.3881 7.12157 3.61414 7.51702L3.61413 7.51702C3.11553 7.77175 2.7848 8.02167 2.35467 8.47129C1.96017 8.88367 1.73507 9.19743 1.54251 9.59646C1.21331 10.2787 1.11096 10.747 1.08866 11.7154L0.934612 11.7119M11.5444 11.1801C11.5797 11.6527 11.5791 12.2696 11.5431 12.4043C11.4568 12.7271 11.0079 12.6993 10.944 12.3672C10.9341 12.316 10.926 12.0162 10.9259 11.7009C10.9256 10.9289 10.8495 10.4728 10.6227 9.88466C10.1449 8.64555 9.05333 7.5967 7.75428 7.12834C7.10663 6.89485 6.64765 6.81388 5.95277 6.81047C5.04658 6.80603 4.34023 6.97298 3.54403 7.3798C3.02857 7.64314 2.68418 7.90395 2.24332 8.36477C1.84043 8.78593 1.60486 9.11271 1.40373 9.52949C1.06285 10.2359 0.957287 10.7269 0.934612 11.7119M0.934612 11.7119L1.08866 11.7154C1.08458 11.8927 1.07953 12.061 1.07469 12.1895C1.07227 12.2536 1.06988 12.3084 1.06766 12.3495C1.0658 12.3839 1.0635 12.4233 1.05939 12.4447L3.99997 6.48316M0.934612 11.7119C0.926463 12.0653 0.914522 12.382 0.908059 12.4156C0.901597 12.4493 0.862709 12.5117 0.821659 12.5544C0.713651 12.6666 0.536522 12.6634 0.410925 12.5468L0.319158 12.4616L0.310391 11.9011M3.99997 6.48316L4.20056 6.41457C4.17309 6.39015 4.12845 6.35502 4.06798 6.312C4.06798 6.312 4.06797 6.31199 4.06797 6.31199L3.99997 6.48316ZM3.99997 6.48316C3.61253 6.61565 2.98255 6.93507 2.65127 7.16702C1.55757 7.9328 0.808059 8.98308 0.485693 10.2016C0.350711 10.7119 0.299573 11.2077 0.310391 11.9011M14.0035 11.2899L14.0035 11.2899C13.9639 11.2321 13.9409 11.1767 13.9298 11.0888C13.9202 11.0131 13.9187 10.9063 13.9185 10.7437C13.9173 9.85163 13.7787 9.27514 13.4456 8.71487C12.8265 7.67389 11.7877 7.05001 10.5022 6.95733C10.3328 6.9451 10.1947 6.92626 10.0914 6.87547C9.96895 6.81529 9.91017 6.71938 9.87767 6.60655M14.0035 11.2899L10.0367 6.34372M14.0035 11.2899C14.1987 11.5749 14.6584 11.5514 14.793 11.2164M14.0035 11.2899L9.87632 2.04534C9.81543 1.83407 9.90848 1.60246 10.1062 1.50113L10.1765 1.63825L10.1062 1.50112C10.1988 1.45364 10.3154 1.43987 10.4291 1.4412C10.5467 1.44258 10.6792 1.46048 10.8154 1.49075C11.0874 1.55117 11.3902 1.66442 11.6429 1.81396L11.6429 1.81397C11.9141 1.97445 12.2876 2.3284 12.471 2.59731L12.471 2.59732C13.1262 3.55786 13.1262 4.82317 12.471 5.78405C12.4031 5.8836 12.256 6.04827 12.1258 6.18292C12.081 6.22931 12.0365 6.27379 11.9959 6.31261C12.2487 6.41269 12.6469 6.61723 12.8522 6.75477C13.5632 7.23104 14.0931 7.85202 14.4494 8.62658C14.7343 9.24594 14.8448 9.80389 14.8451 10.5955C14.8452 10.7657 14.8425 10.8924 14.8356 10.9873C14.8289 11.0795 14.8175 11.1555 14.793 11.2164M9.87767 6.60655L10.0257 6.56389L9.87768 6.60658C9.87767 6.60657 9.87767 6.60656 9.87767 6.60655ZM9.87767 6.60655C9.86288 6.55525 9.85129 6.5028 9.85419 6.44475C9.85708 6.38661 9.87387 6.33566 9.89371 6.28626L10.0367 6.34372M10.0367 6.34372L9.89371 6.28626C9.93434 6.18516 9.99855 6.10755 10.1117 6.05629C10.209 6.01217 10.339 5.98981 10.5044 5.97065C11.333 5.87472 11.9804 5.16782 12.028 4.28462C12.0454 3.9619 11.9938 3.71177 11.8371 3.3818M10.0367 6.34372L11.8371 3.3818M11.8371 3.3818C11.6666 3.02282 11.4229 2.77148 11.0815 2.59935C10.9357 2.52586 10.8415 2.48485 10.7479 2.45765C10.6546 2.43052 10.5557 2.41528 10.3985 2.40059C10.3985 2.40059 10.3985 2.40059 10.3985 2.40059L10.4128 2.24716L11.8371 3.3818ZM14.793 11.2164L14.65 11.1589L14.793 11.2164C14.793 11.2164 14.793 11.2164 14.793 11.2164ZM8.23333 3.07935L8.23333 3.07935C8.25917 3.21193 8.27011 3.41958 8.26467 3.63239C8.25922 3.84581 8.23775 4.04631 8.20611 4.16585C8.17955 4.26613 8.11892 4.42183 8.04657 4.57911C7.97413 4.73658 7.89615 4.88212 7.83893 4.96429L7.83891 4.96431C7.50992 5.43692 7.02618 5.77614 6.48177 5.91787L6.48176 5.91787C6.33079 5.95719 6.12598 5.97807 5.9168 5.97754C5.70742 5.977 5.50598 5.95503 5.36136 5.91533C4.2389 5.60718 3.47769 4.47498 3.60596 3.2947L3.60596 3.29469C3.72691 2.18156 4.49966 1.32697 5.55033 1.12862L5.52175 0.977204L5.55033 1.12862C5.62933 1.11371 5.82239 1.10982 6.03181 1.11849C6.24194 1.12718 6.43057 1.14697 6.50253 1.16765L6.54509 1.01956L6.50253 1.16765C7.39888 1.42527 8.05088 2.14335 8.23333 3.07935Z" fill="#3B71FE" stroke="#3B71FE" stroke-width="0.3"/>
</svg>
